<?xml version="1.0" encoding="UTF-8"?>
<svg id="Capa_1" data-name="Capa 1" xmlns="http://www.w3.org/2000/svg" viewBox="0 0 141.73 141.73">
  <defs>
    <style>
      .cls-1 {
        stroke-width: 0px;
      }
    </style>
  </defs>
  <path class="cls-1" d="m133.47,28.61H49.08c-1.95-8.55-9.61-14.96-18.74-14.96-10.6,0-19.22,8.62-19.22,19.22v70.79h-2.86c-2.15,0-3.9,1.74-3.9,3.9v16.63c0,2.15,1.74,3.9,3.9,3.9h44.16c2.15,0,3.9-1.74,3.9-3.9v-16.63c0-2.15-1.74-3.9-3.9-3.9h-2.86v-43.38h36.49s.02,0,.03,0,.02,0,.03,0h16.28s.02,0,.03,0,.02,0,.03,0h16.28s.02,0,.03,0,.02,0,.03,0h14.7c2.15,0,3.9-1.74,3.9-3.9v-23.88c0-2.15-1.74-3.9-3.9-3.9Zm-114.56,4.26c0-6.3,5.13-11.43,11.43-11.43s11.43,5.13,11.43,11.43v70.79h-22.86V32.88Zm29.61,87.41H12.16v-8.83h36.37v8.83Zm1.95-67.8h-.91v-16.08h6.21l-5.3,16.08Zm16.39,0h-8.18l5.3-16.08h8.15l-5.27,16.08Zm16.38,0h-8.18l5.27-16.08h8.16l-5.24,16.08Zm16.34,0h-8.14l5.24-16.08h8.19l-5.28,16.08Zm16.34,0h-8.14l5.29-16.08h8.18l-5.33,16.08Zm13.64,0h-5.43l5.33-16.08h.1v16.08Z"/>
  <path class="cls-1" d="m30.34,40.55c-2.15,0-3.9,1.75-3.9,3.9s1.75,3.9,3.9,3.9,3.9-1.75,3.9-3.9-1.75-3.9-3.9-3.9Z"/>
</svg>