<?xml version="1.0" encoding="UTF-8"?>
<svg id="Capa_1" data-name="Capa 1" xmlns="http://www.w3.org/2000/svg" viewBox="0 0 141.73 141.73">
  <defs>
    <style>
      .cls-1 {
        stroke-width: 0px;
      }
    </style>
  </defs>
  <path class="cls-1" d="m33.38,83.72l4.7-2.76c1.99-1.16,4.45-1.15,6.43.04l4.4,2.64c4.31,2.6,9.69,2.63,14.02.08l4.7-2.76c1.99-1.16,4.45-1.15,6.43.04l4.4,2.64c2.18,1.31,4.63,1.97,7.08,1.97s4.8-.63,6.95-1.89l4.7-2.76c1.99-1.16,4.45-1.15,6.43.04l4.4,2.64c4.31,2.6,9.69,2.63,14.03.08l4.71-2.76-3.77-6.43-4.71,2.76c-1.98,1.16-4.44,1.15-6.41-.04l-4.4-2.64c-4.32-2.6-9.69-2.63-14.04-.08l-4.7,2.76c-1.99,1.16-4.45,1.15-6.42-.04l-4.52-2.64c-.45-.27-.28-.51-1.49-.72V22.73c0-4.4,4.04-7.98,8.44-7.98s8.44,3.58,8.44,7.98v8.36h6.63v-8.36c0-8.51-7.16-15.43-15.67-15.43s-15.67,6.92-15.67,15.43v29.46h-30.14v-29.46c0-4.4,3.43-7.98,7.83-7.98s7.84,3.58,7.84,7.98v8.36h6.63v-8.36c0-8.51-6.56-15.43-15.07-15.43s-15.06,6.92-15.06,15.43v54.14l-.8.42c-1.99,1.16-4.49,1.15-6.46-.04l-4.39-2.63-3.85,6.39,4.36,2.63c4.31,2.6,9.68,2.63,14.02.08m4.94-23.7h-.54,30.68v12.74c-1.21.23-3.28.82-4.91,1.78l-4.55,2.76c-1.99,1.16-4.37,1.15-6.34-.04l-4.09-2.64c-3.22-1.94-6.64-2.45-10.26-1.52v-13.08Z"/>
  <path class="cls-1" d="m33.38,108.59l4.7-2.76c1.99-1.17,4.45-1.16,6.43.03l4.4,2.65c4.31,2.59,9.69,2.62,14.03.08l4.7-2.76c1.99-1.17,4.45-1.16,6.43.03l4.4,2.65c2.18,1.31,4.63,1.97,7.08,1.97s4.8-.63,6.95-1.89l4.7-2.76c1.99-1.17,4.45-1.16,6.43.03l4.4,2.65c4.31,2.59,9.69,2.62,14.03.08l4.71-2.76-3.77-6.42-4.71,2.76c-1.99,1.17-4.45,1.15-6.42-.03l-4.4-2.65c-4.32-2.59-9.69-2.62-14.04-.08l-4.7,2.76c-1.98,1.17-4.44,1.15-6.42-.03l-4.4-2.65c-4.31-2.6-9.69-2.62-14.03-.08l-4.71,2.76c-1.98,1.17-4.44,1.15-6.41-.03l-4.4-2.65c-4.32-2.6-9.69-2.62-14.04-.08l-4.7,2.76c-1.99,1.16-4.45,1.15-6.42-.03l-4.37-2.63-3.84,6.38,4.38,2.63c4.31,2.59,9.68,2.62,14.02.08"/>
  <path class="cls-1" d="m118.28,126.12c-1.98,1.16-4.44,1.15-6.42-.03l-4.4-2.65c-4.31-2.6-9.69-2.63-14.03-.08l-4.71,2.76c-1.98,1.16-4.44,1.15-6.41-.03l-4.4-2.65c-4.32-2.6-9.69-2.63-14.04-.08l-4.7,2.76c-1.99,1.16-4.45,1.15-6.42-.03l-4.4-2.65c-4.32-2.6-9.69-2.63-14.04-.08l-4.7,2.76c-1.98,1.16-4.44,1.15-6.42-.03l-4.37-2.63-3.84,6.39,4.37,2.63c4.31,2.59,9.69,2.62,14.02.08l4.71-2.76c1.99-1.17,4.45-1.16,6.43.03l4.4,2.65c4.31,2.59,9.69,2.62,14.03.08l4.7-2.76c1.99-1.16,4.45-1.15,6.43.04l4.4,2.65c2.18,1.31,4.63,1.96,7.08,1.96s4.8-.63,6.95-1.89l4.71-2.76c1.99-1.16,4.45-1.15,6.43.04l4.4,2.65c4.31,2.59,9.69,2.62,14.02.08l4.71-2.76-3.77-6.43-4.71,2.76Z"/>
</svg>