<?xml version="1.0" encoding="UTF-8"?>
<svg id="Capa_1" data-name="Capa 1" xmlns="http://www.w3.org/2000/svg" viewBox="0 0 141.73 141.73">
  <defs>
    <style>
      .cls-1 {
        stroke-width: 0px;
      }
    </style>
  </defs>
  <path class="cls-1" d="m76.6,54c0,.64.25,1.24.7,1.7h0c.46.46,1.06.71,1.7.71s1.25-.25,1.7-.7c2.47-2.47,2.47-6.5,0-8.97-.29-.29-.45-.67-.45-1.08s.16-.79.45-1.08c.94-.94.94-2.47,0-3.41-.94-.93-2.47-.93-3.4,0-1.2,1.2-1.86,2.79-1.86,4.49s.66,3.29,1.86,4.48c.59.6.59,1.57,0,2.16-.46.46-.7,1.06-.7,1.7Z"/>
  <path class="cls-1" d="m95.51,51.21c0,.41-.16.79-.45,1.08-.46.46-.7,1.06-.7,1.7s.25,1.24.7,1.7c.46.45,1.06.7,1.7.7s1.24-.25,1.7-.7c1.2-1.2,1.86-2.79,1.86-4.49s-.66-3.29-1.86-4.48c-.29-.29-.45-.68-.45-1.08s.16-.79.45-1.08c.46-.46.7-1.06.7-1.7s-.25-1.24-.7-1.7c-.93-.93-2.46-.93-3.4,0-2.47,2.47-2.47,6.5,0,8.97.29.29.45.68.45,1.08Z"/>
  <path class="cls-1" d="m108.38,66.3h-1.73v-3.14c0-2.56-2.08-4.64-4.63-4.64h-33.79c-2.56,0-4.63,2.08-4.63,4.64v3.14h-14.54c-.04-.1-.08-.21-.13-.31l41.95-41.95c1.77-1.77,1.77-4.65,0-6.42l-1.94-1.94c-4.5-4.5-10.48-6.98-16.84-6.98s-12.35,2.48-16.84,6.98l-1.86,1.86-.91-.91c-.91-.91-2.11-1.45-3.36-1.5-1.28,0-2.45.4-3.31,1.26l-7.44,7.44c-.82.82-1.27,1.92-1.27,3.12,0,1.3.55,2.6,1.5,3.56l.91.91-1.86,1.86c-8.97,8.97-9.36,23.24-.96,32.67-.39.87-.6,1.81-.6,2.76,0,2.68,1.64,5.12,4.07,6.16h-5.72c-3.11,0-5.65,2.54-5.65,5.65s2.53,5.65,5.65,5.65h9.54c3.04,4.88,7.67,8.46,13.13,10.16l-7.49,28.99c-.41,1.6-.18,3.26.66,4.68.84,1.42,2.18,2.43,3.77,2.84.5.13,1.02.2,1.54.2,2.81,0,5.27-1.9,5.97-4.63l2.55-9.85h25.08l.63,2.43c-.57,1.15-.87,2.42-.87,3.7,0,4.6,3.74,8.35,8.34,8.35s8.35-3.75,8.35-8.35c0-2.88-1.51-5.57-3.95-7.09l-5.51-21.27c5.81-1.83,10.8-5.9,13.73-11.21.09-.13.17-.28.21-.38,1.82-3.42,2.78-7.27,2.78-11.15v-2.74c0-2.5-2.04-4.54-4.54-4.54Zm-20.42,47.44h-22.59l.7-2.71h21.19l.7,2.71Zm-20.65-7.53l2.27-8.8h14.15l2.28,8.8h-18.7Zm-17.33-20.04h53.35c-3.62,4.1-8.74,6.42-14.23,6.42h-24.88c-5.5,0-10.62-2.32-14.23-6.42Zm11.86,11.12c.79.08,1.58.12,2.37.12h.4l-7.69,29.79c-.18.71-.95,1.18-1.66.97-.35-.09-.64-.31-.83-.62-.18-.31-.23-.68-.15-1.03l7.55-29.23Zm39,27.4c0,1.95-1.59,3.53-3.53,3.53s-3.53-1.58-3.53-3.53,1.58-3.53,3.53-3.53,3.53,1.58,3.53,3.53Zm-11.75-27.28c.79,0,1.59-.04,2.38-.12l4.95,19.11c-.9.1-1.79.34-2.62.72l-5.11-19.71h.39Zm-20.69-31.11v-2.96h33.43v2.96h-33.43Zm39.7,4.82v2.47c0,2.7-.56,5.32-1.66,7.77h-59.57c-.91-2.03-1.46-4.18-1.61-6.41,1.74-.69,3.12-2.08,3.8-3.83h59.05Zm-62.59-8.53c-.85-.38-1.78-.58-2.72-.58s-1.83.19-2.67.56c-6.53-7.52-6.16-18.81.93-25.89l17.59-17.59c3.59-3.59,8.37-5.57,13.44-5.57s9.85,1.98,13.44,5.57l1.74,1.74-41.76,41.76Zm-2.72,4.24c1.04,0,1.89.85,1.89,1.89s-.85,1.88-1.89,1.88-1.89-.84-1.89-1.88.85-1.89,1.89-1.89Zm-.85-39.78l7.06-7.06s.04.03.06.05l.91.91-7.07,7.07-.91-.91s-.04-.04-.05-.06Zm-.26,54.31h-7.24c-.46,0-.83-.37-.83-.83s.37-.83.83-.83h6.73c.15.56.32,1.11.51,1.66Z"/>
  <path class="cls-1" d="m85.48,54c0,.64.25,1.24.7,1.7h0c.46.46,1.06.71,1.7.71s1.25-.25,1.7-.7c1.2-1.2,1.86-2.79,1.86-4.49s-.66-3.29-1.85-4.48c-.29-.29-.45-.68-.45-1.08s.16-.79.45-1.08c.46-.46.7-1.06.7-1.7s-.25-1.24-.7-1.7c-.94-.93-2.47-.93-3.4,0-2.47,2.47-2.47,6.5,0,8.97.29.29.45.68.45,1.08s-.16.79-.45,1.08c-.46.46-.7,1.06-.7,1.7Z"/>
</svg>