<?xml version="1.0" encoding="UTF-8"?>
<svg id="Capa_1" data-name="Capa 1" xmlns="http://www.w3.org/2000/svg" viewBox="0 0 141.73 141.73">
  <defs>
    <style>
      .cls-1 {
        stroke-width: 0px;
      }
    </style>
  </defs>
  <path class="cls-1" d="m117.33,72.55c.13-.91.19-1.83.19-2.75,0-10.77-8.76-19.53-19.53-19.53-1.78,0-3.54.24-5.24.72.01-.37.02-.74.02-1.11,0-7.34-1.96-14.55-5.67-20.84-3.6-6.11-8.74-11.21-14.88-14.75-.84-.49-1.88-.48-2.71,0-6.13,3.55-11.28,8.65-14.88,14.75-3.71,6.29-5.67,13.5-5.67,20.84,0,.1,0,.2,0,.3-1.72-.3-3.47-.46-5.21-.46-6.15,0-12.05,1.85-17.08,5.37-4.91,3.43-8.63,8.18-10.77,13.74-.06.14-.07.28-.07.39-1.26,3.36-1.9,6.82-1.92,10.32v.12c0,3.58.66,7.14,1.97,10.59-.02-.05-.03-.1-.03-.12l.14.44c.03.1.07.2.11.3l.18.32h0c2.2,5.21,5.79,9.65,10.38,12.86,4.26,2.97,9.22,4.78,14.37,5.24v13.13h-12.44c-1.49,0-2.71,1.21-2.71,2.7s1.21,2.7,2.71,2.7h84.52c1.49,0,2.71-1.21,2.71-2.7s-1.21-2.7-2.71-2.7h-13.85v-12.73c2.49,1.03,5.13,1.55,7.86,1.55,11.4,0,20.68-9.28,20.68-20.68,0-7.47-4.01-14.33-10.49-18Zm-43.76,33.19c3.48,3.5,8.21,5.49,13.16,5.49,2.49,0,4.89-.48,7.14-1.42v12.6h-20.3v-16.67Zm13.6-52.19c-5.46,3.65-8.71,9.7-8.71,16.25,0,1.1.1,2.22.28,3.32-1.56,1.81-3.29,3.47-5.17,4.93v-24.46l6.63-6.63c.51-.52.79-1.19.79-1.92,0-.72-.28-1.4-.79-1.9-1.02-1.03-2.81-1.03-3.82,0l-2.81,2.81v-8.15c0-1.49-1.21-2.7-2.7-2.7s-2.71,1.21-2.71,2.7v18.48l-4.61-4.61c-1.02-1.03-2.81-1.03-3.82,0-.51.51-.79,1.19-.79,1.91,0,.73.28,1.4.79,1.92l8.44,8.44v14.12c-8.65-6.75-13.79-17.2-13.79-28.17,0-12.07,6.31-23.57,16.49-30.09,10.18,6.51,16.49,18.01,16.49,30.09,0,1.21-.06,2.44-.19,3.68Zm12.11,37.64l8.53-8.53c.51-.51.79-1.19.79-1.91,0-.73-.28-1.4-.79-1.92-1.05-1.05-2.77-1.05-3.82,0l-4.71,4.71v-3.56c0-1.49-1.21-2.7-2.7-2.7s-2.7,1.21-2.7,2.7v11.99l-4.16-4.16c-1.02-1.03-2.8-1.03-3.83,0-.51.51-.79,1.19-.79,1.91s.28,1.4.79,1.92l7.99,7.98v4.09c-2.12,1.38-4.59,2.11-7.14,2.11-7.26,0-13.16-5.9-13.16-13.16,0-6.07,4.11-11.32,9.98-12.78.8-.2,1.46-.74,1.8-1.49.35-.75.34-1.6-.03-2.34-.97-1.96-1.46-4.07-1.46-6.26,0-7.79,6.34-14.12,14.12-14.12s14.12,6.33,14.12,14.12c0,1.21-.15,2.4-.46,3.57-.34,1.3.31,2.63,1.54,3.16,5.59,2.42,9.21,7.93,9.21,14.02,0,8.42-6.85,15.27-15.27,15.27-2.78,0-5.49-.75-7.86-2.18v-12.45Zm-52.82,12.65v-7.66l9.91-9.91c.51-.51.79-1.19.79-1.91s-.28-1.4-.79-1.91c-1.02-1.02-2.8-1.03-3.83,0l-6.08,6.08v-15.21c0-1.49-1.21-2.7-2.7-2.7s-2.7,1.21-2.7,2.7v5.69l-3.45-3.45c-1.02-1.03-2.81-1.03-3.82,0-1.05,1.06-1.05,2.77,0,3.83l7.28,7.27v17.16c-8.86-1-16.66-6.93-19.98-15.22-1.16-2.93-1.75-5.94-1.75-8.97,0-3.38.7-6.68,2.08-9.82,3.9-8.93,12.68-14.7,22.35-14.7,1.9,0,3.79.22,5.64.66.77,5.31,2.53,10.33,5.24,14.93,3.23,5.47,7.75,10.18,13.08,13.65-2.07,10.4-10.72,18.31-21.26,19.48Zm0,5.44c8.69-.79,16.66-5.42,21.7-12.55v25.68h-21.7v-13.13Z"/>
  <path class="cls-1" d="m114.16,41.23c7.53,0,13.66-6.13,13.66-13.66s-6.13-13.66-13.66-13.66-13.66,6.13-13.66,13.66,6.13,13.66,13.66,13.66Zm-8.25-13.66c0-4.55,3.7-8.25,8.25-8.25s8.25,3.7,8.25,8.25-3.7,8.25-8.25,8.25-8.25-3.7-8.25-8.25Z"/>
</svg>