<?xml version="1.0" encoding="UTF-8"?>
<svg id="Capa_1" data-name="Capa 1" xmlns="http://www.w3.org/2000/svg" viewBox="0 0 141.73 141.73">
  <defs>
    <style>
      .cls-1 {
        stroke-width: 0px;
      }
    </style>
  </defs>
  <path class="cls-1" d="m115.53,73.86h-12.37c-1.68,0-3.31.23-4.86.65-3.06-6.01-9.31-10.15-16.5-10.15h-21.86c-7.2,0-13.44,4.13-16.5,10.15-1.55-.42-3.18-.65-4.86-.65h-12.37c-10.2,0-18.51,8.3-18.51,18.51v19.77c0,6.12,4.98,11.1,11.1,11.1h104.13c6.12,0,11.1-4.98,11.1-11.1v-19.77c0-10.2-8.3-18.51-18.51-18.51Zm-74.1,9.01v32.96h-22.63c-2.04,0-3.7-1.66-3.7-3.7v-19.77c0-6.12,4.98-11.1,11.1-11.1h12.37c1,0,1.98.14,2.9.39-.03.4-.04.81-.04,1.22Zm51.47,32.96h-44.07v-32.96c0-6.12,4.98-11.1,11.1-11.1h21.86c6.12,0,11.1,4.98,11.1,11.1v32.96Zm33.73-3.7c0,2.04-1.66,3.7-3.7,3.7h-22.63v-32.96c0-.41-.02-.82-.04-1.22.93-.25,1.9-.39,2.9-.39h12.37c6.12,0,11.1,4.98,11.1,11.1v19.77Z"/>
  <path class="cls-1" d="m32.39,38.91c-9.07,0-16.45,7.38-16.45,16.45,0,9.07,7.38,16.45,16.45,16.45s16.45-7.38,16.45-16.45-7.38-16.45-16.45-16.45Zm0,25.49c-4.99,0-9.04-4.06-9.04-9.04s4.06-9.04,9.04-9.04,9.04,4.06,9.04,9.04-4.06,9.04-9.04,9.04Z"/>
  <path class="cls-1" d="m70.87,18.49c-12.11,0-21.97,9.86-21.97,21.97s9.86,21.97,21.97,21.97,21.97-9.86,21.97-21.97-9.86-21.97-21.97-21.97Zm0,36.54c-8.03,0-14.57-6.53-14.57-14.57s6.53-14.57,14.57-14.57,14.57,6.53,14.57,14.57-6.53,14.57-14.57,14.57Z"/>
  <path class="cls-1" d="m109.34,38.91c-9.07,0-16.45,7.38-16.45,16.45,0,9.07,7.38,16.45,16.45,16.45s16.45-7.38,16.45-16.45-7.38-16.45-16.45-16.45Zm0,25.49c-4.99,0-9.04-4.06-9.04-9.04,0-4.99,4.06-9.04,9.04-9.04s9.04,4.06,9.04,9.04-4.06,9.04-9.04,9.04Z"/>
</svg>