<?xml version="1.0" encoding="UTF-8"?>
<svg id="Capa_1" data-name="Capa 1" xmlns="http://www.w3.org/2000/svg" viewBox="0 0 141.73 141.73">
  <defs>
    <style>
      .cls-1 {
        stroke-width: 0px;
      }
    </style>
  </defs>
  <path class="cls-1" d="m110.77,115.12c22.59.34,30.12-32.37,10.2-42.4,7.83-10.9,1.66-27.62-11.53-30.45.11-.27.21-.54.31-.82h11.51c13.3.62,15.39-19.53,2.83-21.89-2.17-16.55-27.48-16.92-30.13-.43-11.28.13-19.45,12.83-14.91,23.15-13.2,2.82-19.36,19.55-11.53,30.44-24.9,12.77-5.57,53.01,19.85,40.09v15.92h-34.09v-61.15c3.42.6,3.42-4.6,0-4,.11-2.82.5-5.62-3.4-4.83-2.09-.07-1.11,3.68-1.32,4.83h-1.77c-.83-2.09-4.07-2.09-4.89,0h-18.72c-.85-2.09-4.05-2.09-4.89,0h-1.77c.11-2.82.5-5.62-3.4-4.83-2.09-.07-1.11,3.68-1.32,4.83-3.43-.61-3.42,4.6,0,4-.11,2.82-.5,5.62,3.4,4.83,2.09.07,1.11-3.68,1.32-4.83h1.84c-.48,6.51,3.26,12.93,7.58,17.48,1.12,2.65-4.24,55.45,6.57,38v.11h.07v-.11c10.71,18.09,5.53-36.67,6.62-38.07l5.53-7.19c1.73-1.82,1.56-7.91,2-10.21h1.83v61.15H14.45c-21.61,11.16,112.13,2.98,109.07,5.33,12.83-8.01-20.51-4.76-22.4-5.33v-15.92c2.98,1.51,6.3,2.31,9.65,2.31Zm-69.76-44.21c-2.75,15.8-17.49,10.61-17.26-3.32h17.61l-.35,3.32ZM109.77,12.02c6.82.3,8.6,6.47,9.95,11.81,8.04.55,11.24,10.9,1.89,12.3,0,0-10.94,0-10.94,0,.13-7.25-4.57-13.87-11.41-16.18.99-4.86,5.5-8.34,10.52-7.92Zm-13.98,116.72h-3.09v-19.71c.54-.51,1.06-1.06,1.55-1.63.48.56,1,1.11,1.55,1.63v19.71Zm1.53-26.11l13.54-13.54c2.85-12.5-12.05,4.55-13.96,6.42v-19.83l9.75-9.75c2.45-2.41-1.36-6.21-3.77-3.77,0,0-5.98,5.98-5.98,5.98-.54-2.37,1.76-11.14-2.66-10.97-4.42-.19-2.13,8.62-2.66,10.97l-5.98-5.98c-2.41-2.44-6.21,1.35-3.76,3.77,0,0,9.74,9.74,9.74,9.74v19.83c-1.92-1.88-16.79-18.92-13.96-6.42,0,0,13.54,13.54,13.54,13.54-16.85,23.79-46.75-15.78-18.59-26.32,1.92-.49,2.58-3.11,1.13-4.46-10.67-11.78-.6-23.7,11.93-26.17-3.02-8.54-4.22-20.3,8.6-21.22,12.81.97,11.69,12.61,8.58,21.22,7.34,2.8,16.88,5.3,16.29,15.79,1.9,5.61-8.67,11.07-3.3,14.81,27.41,10-.41,50.19-18.49,26.35Z"/>
  <path class="cls-1" d="m32.55,79.11c6.89.1,6.89-10.72,0-10.62-6.89-.1-6.89,10.72,0,10.62Z"/>
</svg>