<?xml version="1.0" encoding="UTF-8"?>
<svg id="Capa_1" data-name="Capa 1" xmlns="http://www.w3.org/2000/svg" viewBox="0 0 141.73 141.73">
  <defs>
    <style>
      .cls-1 {
        stroke-width: 0px;
      }
    </style>
  </defs>
  <path class="cls-1" d="m106.61,47.58c6.87,0,12.46-5.59,12.46-12.46s-5.59-12.46-12.46-12.46c-6.86,0-12.45,5.59-12.46,12.46,0,6.87,5.59,12.46,12.46,12.46Zm-7.4-12.46c0-4.08,3.32-7.4,7.4-7.4s7.4,3.32,7.4,7.4-3.32,7.4-7.4,7.4-7.4-3.32-7.4-7.4Z"/>
  <path class="cls-1" d="m106.61,19.78c1.4,0,2.53-1.13,2.53-2.53v-3.97c0-1.39-1.13-2.53-2.53-2.53s-2.53,1.13-2.53,2.53v3.97c0,1.4,1.13,2.53,2.53,2.53Z"/>
  <path class="cls-1" d="m104.08,52.99v3.97c0,1.4,1.13,2.53,2.53,2.53s2.53-1.13,2.53-2.53v-3.97c0-1.39-1.13-2.53-2.53-2.53s-2.53,1.13-2.53,2.53Z"/>
  <path class="cls-1" d="m121.95,35.12c0,1.39,1.13,2.53,2.53,2.53h3.97c1.4,0,2.53-1.13,2.53-2.53s-1.13-2.53-2.53-2.53h-3.97c-1.4,0-2.53,1.13-2.53,2.53Z"/>
  <path class="cls-1" d="m84.77,37.65h3.97c1.4,0,2.53-1.13,2.53-2.53s-1.13-2.53-2.53-2.53h-3.97c-1.4,0-2.53,1.13-2.53,2.53s1.13,2.53,2.53,2.53Z"/>
  <path class="cls-1" d="m92.19,24.28c.49.47,1.12.71,1.76.71s1.3-.25,1.79-.73c.98-.99.99-2.54.02-3.56l-2.81-2.81h0c-.99-.96-2.58-.94-3.55.03-.97.97-.98,2.56-.02,3.56l2.81,2.81Z"/>
  <path class="cls-1" d="m121.04,45.98c-.96-.96-2.62-.96-3.58,0-.48.48-.74,1.11-.74,1.78s.26,1.31.74,1.79l2.81,2.81c.49.47,1.12.71,1.76.71s1.3-.25,1.79-.73c.97-.97.99-2.56.03-3.56l-2.81-2.8Z"/>
  <path class="cls-1" d="m118.58,24.96c.21.06.43.08.64.08.68,0,1.34-.27,1.81-.76l2.81-2.81c.48-.48.74-1.11.74-1.79s-.26-1.31-.74-1.79h0c-.99-.98-2.59-.98-3.58,0l-2.8,2.8c-.66.64-.92,1.58-.69,2.46.23.88.92,1.58,1.81,1.81Z"/>
  <path class="cls-1" d="m92.19,45.97l-2.81,2.81c-.66.63-.92,1.58-.69,2.46.23.88.92,1.58,1.81,1.81.21.06.43.08.64.08.67,0,1.33-.27,1.81-.76l2.81-2.82c.97-1,.95-2.56-.03-3.55-.97-.97-2.57-.98-3.55-.03Z"/>
  <path class="cls-1" d="m126.47,110.04h-14.54c-1.41,0-2.65-.84-3.18-2.16l-16.71-38.39c-3.77-9.15-12.58-15.05-22.47-15.05h-8.09v-16.85c1.68-.23,3.13-1.38,3.71-2.99.65-1.81.08-3.84-1.41-5.03l-21.71-17.75c-1.72-1.41-4.22-1.4-5.94,0L14.42,29.56c-1.5,1.2-2.07,3.23-1.42,5.04.58,1.61,2.03,2.77,3.7,2.99v32.73h-1.44c-2.49,0-4.52,2.03-4.52,4.52v5.95c0,2.31,1.74,4.21,3.97,4.48v41.19c0,2.49,2.03,4.52,4.52,4.52h5.96c2.49,0,4.52-2.03,4.52-4.52v-1.44h18.77v1.44c0,2.49,2.03,4.52,4.52,4.52h5.96c2.49,0,4.52-2.03,4.52-4.52v-41.19c2.23-.27,3.97-2.17,3.97-4.48v-5.41h2.08c1.41,0,2.66.84,3.19,2.16l16.71,38.39c3.77,9.15,12.58,15.05,22.48,15.05h14.58c2.49,0,4.52-2.03,4.52-4.52v-11.91c0-2.49-2.03-4.52-4.52-4.52Zm-68.06-24.73v40.61h-4.87v-40.61h4.87Zm-9.93,29.79v4.87h-18.77v-4.87h18.77Zm0-9.93v4.87h-18.77v-4.87h18.77Zm0-9.93v4.87h-18.77v-4.87h18.77Zm0-9.93v4.87h-18.77v-4.87h18.77Zm-23.83,0v40.61h-4.87v-40.61h4.87Zm101.27,29.79v10.83h-14.03c-7.85,0-14.85-4.69-17.83-11.97l-16.71-38.39c-1.31-3.19-4.38-5.24-7.82-5.24h-8.06v-10.83h8.07c7.85,0,14.85,4.69,17.83,11.97l16.71,38.39c1.31,3.19,4.38,5.24,7.83,5.24h14ZM31.7,60.94c0-4.08,3.32-7.4,7.4-7.4s7.4,3.32,7.4,7.4v9.39h-14.8v-9.39Zm7.4-12.46c-6.87,0-12.46,5.59-12.46,12.46v9.39h-4.87v-32.67h34.66v32.67h-4.87v-9.39c0-6.87-5.59-12.46-12.46-12.46Zm-20.3-15.96l20.3-16.6,20.19,16.67-40.49-.07Zm43.58,42.87v4.87H15.81v-4.87h46.57Z"/>
</svg>