<?xml version="1.0" encoding="UTF-8"?>
<svg id="Capa_1" data-name="Capa 1" xmlns="http://www.w3.org/2000/svg" viewBox="0 0 141.73 141.73">
  <defs>
    <style>
      .cls-1 {
        stroke-width: 0px;
      }
    </style>
  </defs>
  <path class="cls-1" d="m113.69,111.24c-2.5-15.01-2.5-30.2,0-45.22h1.52c9.73,0,17.64-7.92,17.64-17.65,0-3.85-3.13-6.98-6.98-6.98h-6.96c-1.72-9.4-9.96-16.54-19.85-16.54-1.42,0-4.49-.06-5.64.2-8.62,1.21-15.59,7.84-17.06,16.66-1.6,9.61-1.16,6.96-1.82,10.91-.67,4,.45,8.11,3.15,11.25-16.34,20.57-23.89,32.64-25.76,48.27-4.13-1.81-7.75-6.71-10.26-10.95-3.97-6.73-14.37-3.26-13.49,4.51,2,17.51,11.59,27.15,27,27.15h65.74c4.17,0,7.56-3.37,7.56-7.56,0-7.21-5.51-14.06-14.81-14.06h0Zm-22.59-78.05l3.44,20.62c.66,3.97-2.4,7.57-6.41,7.57s-7.07-3.6-6.42-7.56c0,0,0,0,0,0,1.18-7.05.8-4.77,1.82-10.91,0,0,0,0,0,0,.74-4.44,3.66-8.01,7.57-9.71h0Zm29.84,92.4h-16.64c-.06-8.02-6.6-14.53-14.64-14.53h-1.34c2.93-4.1,4.14-8.93,3.5-14.12-.25-1.99-2.06-3.41-4.05-3.16-1.99.25-3.41,2.06-3.16,4.05,1.15,9.3-7.1,13.41-7.44,13.57-1.54.72-2.37,2.42-2,4.08.37,1.66,1.84,2.84,3.55,2.84h10.95c4.03,0,7.31,3.25,7.37,7.26h-41.84c-11.71,0-18.18-6.77-19.78-20.7,0,0,0,0,.01,0,0,0,0,0,0,0,5.97,10.12,12.62,15.25,19.77,15.25,1.94,0,3.5-1.53,3.62-3.39.95-14.49,5.45-24.29,24.93-48.8,5.27,1.77,11.19.21,14.89-4.15,2.62-3.1,3.74-7.17,3.07-11.17l-3.42-20.5h.78c7.12,0,12.91,5.79,12.91,12.91,0,2.01,1.63,3.63,3.63,3.63h9.98c-.15,5.59-4.75,10.09-10.38,10.09h-4.57c-1.76,0-3.26,1.26-3.58,2.99l-.22,1.22c-3.15,17.46-3.07,35.15.23,52.58.32,1.72,1.82,2.96,3.57,2.96h3.79c3.75,0,6.8,3.05,6.8,6.8,0,.16-.13.29-.29.29h0Z"/>
  <path class="cls-1" d="m41.84,61.82l22.63-22.63c6.94-6.94,6.94-18.18,0-25.12-6.93-6.93-18.2-6.93-25.12,0l-.07.07-.07-.07c-6.93-6.93-18.2-6.93-25.12,0-6.93,6.93-6.93,18.2,0,25.12l22.63,22.63c1.42,1.42,3.72,1.42,5.14,0ZM19.21,19.21c4.1-4.1,10.74-4.1,14.85,0l2.64,2.64c1.42,1.42,3.72,1.42,5.14,0l2.64-2.64c4.09-4.09,10.75-4.09,14.85,0,4.1,4.1,4.1,10.74,0,14.85l-20.06,20.06-20.06-20.06c-4.09-4.09-4.09-10.75,0-14.85Z"/>
</svg>