<?xml version="1.0" encoding="UTF-8" standalone="no"?>
<!-- Created with Inkscape (http://www.inkscape.org/) -->

<svg
   width="38.121433mm"
   height="26.458317mm"
   viewBox="0 0 38.121433 26.458317"
   version="1.1"
   id="svg5"
   xml:space="preserve"
   inkscape:version="1.2.1 (9c6d41e410, 2022-07-14)"
   sodipodi:docname="gevora.svg"
   xmlns:inkscape="http://www.inkscape.org/namespaces/inkscape"
   xmlns:sodipodi="http://sodipodi.sourceforge.net/DTD/sodipodi-0.dtd"
   xmlns="http://www.w3.org/2000/svg"
   xmlns:svg="http://www.w3.org/2000/svg"><sodipodi:namedview
     id="namedview7"
     pagecolor="#ffffff"
     bordercolor="#000000"
     borderopacity="0.25"
     inkscape:showpageshadow="2"
     inkscape:pageopacity="0.0"
     inkscape:pagecheckerboard="0"
     inkscape:deskcolor="#d1d1d1"
     inkscape:document-units="mm"
     showgrid="false"
     inkscape:zoom="6.1932098"
     inkscape:cx="61.357521"
     inkscape:cy="50.29702"
     inkscape:window-width="1920"
     inkscape:window-height="1001"
     inkscape:window-x="2391"
     inkscape:window-y="-9"
     inkscape:window-maximized="1"
     inkscape:current-layer="layer1" /><defs
     id="defs2"><style
       id="style392">.cls-1{fill:#c97d31;}.cls-2{fill:#238dc1;}.cls-3{fill:#6bcbb8;}.cls-4{fill:#009877;}</style><style
       id="style456">.cls-1{fill:#ef7f11;}.cls-2{fill:#42bbcb;}.cls-3{fill:#0c3148;}.cls-4{fill:#ea5a62;}</style><style
       id="style2414">.cls-1{fill:#8cc04b;}</style><style
       id="style2425">.cls-1{fill:#004e59;}.cls-2{fill:#ffad5f;}.cls-3{fill:#ff6b00;}.cls-4{fill:#00abc8;}.cls-5{fill:#00758d;}.cls-6{fill:#00bed6;}.cls-7{fill:#5fd0df;}.cls-8{fill:#ff5100;}.cls-9{fill:#ff9015;}.cls-10{fill:#673918;}</style><style
       id="style2516">.cls-1{fill:#c97d31;}.cls-2{fill:#238dc1;}.cls-3{fill:#6bcbb8;}.cls-4{fill:#009877;}</style><style
       id="style2943">.cls-1{fill:#8cc04b;}</style><style
       id="style2954">.cls-1{fill:#8cc04b;}</style></defs><g
     inkscape:label="Capa 1"
     inkscape:groupmode="layer"
     id="layer1"
     transform="translate(-76.041348,-181.69299)"><path
       class="cls-1"
       d="m 113.20334,188.6416 c -0.61496,-1.42855 -1.48948,-2.70035 -2.60008,-3.77921 -2.1882,-2.12602 -5.03958,-3.24995 -8.0306,-3.1649 -2.743497,0.0787 -5.179841,0.95892 -7.240482,2.61657 -1.230546,0.90308 -2.141874,1.95213 -2.786655,3.20742 -0.764729,1.48948 -1.183585,3.29943 -1.279413,5.53334 -0.177698,4.12381 -0.987484,6.68201 -2.549307,8.05154 -0.627648,0.51214 -1.33526,0.90371 -2.103161,1.16518 -0.531185,0.16373 -1.053485,0.24877 -1.536437,0.28558 v -1.5523 l 3.42192,-3.38385 0.01015,-0.01 -0.932904,-1.01096 -2.498536,2.44776 v -3.73606 h -1.386664 v 3.73924 l -2.436341,-2.07016 -0.854847,1.08838 3.27913,2.9358 v 1.53517 c -0.05267,-0.005 -0.103445,-0.0108 -0.152311,-0.0165 -3.095722,-0.51152 -5.342309,-3.15918 -5.342309,-6.29616 0,-3.52283 2.865985,-6.38881 6.388812,-6.38881 0.936714,0 1.847406,0.20498 2.707964,0.6086 l 0.01142,0.005 1.30797,-2.03843 -0.01396,-0.007 c -1.226103,-0.62955 -2.547401,-0.94813 -3.928355,-0.94813 -2.3018,0 -4.465886,0.89609 -6.093075,2.52391 -1.627825,1.62783 -2.523921,3.79129 -2.523921,6.09308 0,2.3018 0.896096,4.46589 2.523921,6.09308 1.39428,1.39428 3.1833,2.25166 5.114477,2.46871 v 3.49363 l 1.399358,0.0197 v -3.47016 c 1.586572,-0.0552 3.02845,-0.52484 4.290728,-1.3981 1.781403,-1.1677 3.062721,-2.93452 3.608502,-4.97485 0.501358,-1.51486 0.613051,-2.96435 0.720937,-4.36562 0.01206,-0.15421 0.02348,-0.30652 0.03618,-0.4601 0,-0.0146 -7.19e-4,-0.0292 -0.0012,-0.0438 0,-0.0171 -0.0012,-0.0349 -0.0012,-0.052 0,-4.77749 3.887104,-8.6646 8.664599,-8.6646 4.77749,0 8.66459,3.88711 8.66459,8.6646 0,0.0152 0,0.0298 -0.001,0.0451 0,0.0133 -0.001,0.026 -0.001,0.0394 0,0.003 0,0.006 0,0.0101 0,0.003 0,0.006 0,0.009 0,4.38909 -3.30515,8.0198 -7.55716,8.53576 v -4.05274 l 3.4313,-3.39336 -0.9329,-1.01097 -2.49854,2.44777 v -3.57741 h -1.38667 v 3.58058 l -2.43634,-2.07016 -0.854846,1.08839 3.279126,2.9358 v 4.10731 c -0.99763,-0.0419 -1.97687,-0.25828 -2.915484,-0.64604 -0.112329,-0.0451 -0.225927,-0.0933 -0.338255,-0.14343 -0.01585,-0.007 -0.0311,-0.014 -0.04696,-0.0209 -0.02032,-0.009 -0.04125,-0.0178 -0.06156,-0.0279 -0.665727,-0.31033 -1.288297,-0.70253 -1.850579,-1.16582 l -0.0089,-0.008 -2.179319,1.71414 0.01269,0.0114 c 2.030814,1.87723 4.639139,2.95547 7.388987,3.06652 v 3.27088 l 1.39936,0.0197 v -3.31657 c 1.23626,-0.0971 2.43761,-0.3903 3.58185,-0.87388 1.37968,-0.58386 2.61847,-1.41903 3.68275,-2.48331 1.06427,-1.06427 1.89944,-2.30307 2.4833,-3.68275 0.60417,-1.42855 0.91069,-2.94596 0.91069,-4.50967 0,-1.56373 -0.32175,-3.16807 -0.95638,-4.64232 z"
       id="path2958"
       style="stroke-width:0.264583" /></g></svg>
