<?xml version="1.0" encoding="UTF-8" standalone="no"?>
<!-- Created with Inkscape (http://www.inkscape.org/) -->

<svg
   width="50.123589mm"
   height="26.458344mm"
   viewBox="0 0 50.123589 26.458344"
   version="1.1"
   id="svg5"
   xml:space="preserve"
   inkscape:version="1.2.1 (9c6d41e410, 2022-07-14)"
   sodipodi:docname="la-amistad.svg"
   xmlns:inkscape="http://www.inkscape.org/namespaces/inkscape"
   xmlns:sodipodi="http://sodipodi.sourceforge.net/DTD/sodipodi-0.dtd"
   xmlns="http://www.w3.org/2000/svg"
   xmlns:svg="http://www.w3.org/2000/svg"><sodipodi:namedview
     id="namedview7"
     pagecolor="#ffffff"
     bordercolor="#000000"
     borderopacity="0.25"
     inkscape:showpageshadow="2"
     inkscape:pageopacity="0.0"
     inkscape:pagecheckerboard="0"
     inkscape:deskcolor="#d1d1d1"
     inkscape:document-units="mm"
     showgrid="false"
     inkscape:zoom="3.0966049"
     inkscape:cx="106.24539"
     inkscape:cy="59.581382"
     inkscape:window-width="1920"
     inkscape:window-height="1001"
     inkscape:window-x="2391"
     inkscape:window-y="-9"
     inkscape:window-maximized="1"
     inkscape:current-layer="layer1" /><defs
     id="defs2"><style
       id="style132">.cls-1{fill:#ef7f11;}.cls-2{fill:#42bbcb;}.cls-3{fill:#0c3148;}.cls-4{fill:#ea5a62;}</style></defs><g
     inkscape:label="Capa 1"
     inkscape:groupmode="layer"
     id="layer1"
     transform="translate(-119.30572,-162.04145)"><g
       id="g1168"><path
         class="cls-1"
         d="m 147.1028,163.57219 c -0.90713,-1.4764 -2.80008,-1.96236 -4.30887,-1.11539 l -0.0278,0.014 c -0.0278,0.014 -0.0556,0.0278 -0.0833,0.0462 -0.014,0.009 -0.0278,0.0185 -0.0371,0.0231 -1.4764,0.9349 -1.9346,2.90653 -1.0182,4.39218 0.44892,0.73126 1.15705,1.24036 1.99013,1.43937 0.24992,0.0602 0.50447,0.088 0.7544,0.088 0.58778,0 1.16167,-0.16198 1.67077,-0.4767 0.73126,-0.44893 1.24038,-1.15706 1.43939,-1.99014 0.19901,-0.83307 0.0602,-1.69855 -0.38415,-2.42517 z"
         id="path176"
         style="stroke-width:0.264582" /><path
         class="cls-1"
         d="m 159.83502,174.90206 c 0.52299,0.31936 1.1015,0.47671 1.67541,0.47671 1.07838,0 2.13361,-0.5415 2.7399,-1.5273 0.9164,-1.49029 0.4582,-3.45729 -1.01358,-4.38755 -0.014,-0.009 -0.0231,-0.0185 -0.0416,-0.0278 -0.0278,-0.014 -0.0509,-0.0324 -0.0787,-0.0464 l -0.0278,-0.014 c -1.5088,-0.85159 -3.40175,-0.36101 -4.30887,1.11539 -0.92565,1.50881 -0.45358,3.48967 1.05523,4.41532 z"
         id="path178"
         style="stroke-width:0.264582" /><path
         class="cls-1"
         d="m 129.95526,170.48212 c -0.90714,-1.4764 -2.80007,-1.96236 -4.30887,-1.11539 l -0.0278,0.014 c -0.0278,0.014 -0.0556,0.0278 -0.0787,0.0464 -0.014,0.009 -0.0278,0.0185 -0.0416,0.0278 -1.47178,0.93027 -1.92996,2.9019 -1.01358,4.38755 0.6063,0.98581 1.66154,1.5273 2.7399,1.5273 0.57391,0 1.15243,-0.15271 1.67542,-0.4767 1.5088,-0.92563 1.98087,-2.90652 1.05524,-4.41531 z"
         id="path180"
         style="stroke-width:0.264582" /><path
         class="cls-4"
         d="m 169.42931,177.44297 c 0,-0.33323 -0.0185,-0.66647 -0.0464,-0.99044 -0.28232,-0.0231 -0.56463,-0.0371 -0.85158,-0.0371 -6.10463,0 -11.05682,4.95219 -11.05682,11.05682 0,0.33323 0.0186,0.66646 0.0464,0.99044 0.28233,0.0231 0.56464,0.0371 0.85158,0.0371 6.10463,0 11.05682,-4.95218 11.05682,-11.05679 z"
         id="path182"
         style="stroke-width:0.264582" /><path
         class="cls-4"
         d="m 155.88251,172.88417 c 0,-2.09196 -0.58314,-4.04968 -1.59209,-5.71584 -4.08672,1.62449 -6.97472,5.6094 -6.97472,10.27464 0,2.09194 0.58314,4.04968 1.59209,5.71584 4.08671,-1.62451 6.97472,-5.6094 6.97472,-10.27464 z"
         id="path184"
         style="stroke-width:0.264582" /><path
         class="cls-2"
         d="m 119.30572,177.44297 c 0,-0.33323 0.0185,-0.66647 0.0464,-0.99044 0.28233,-0.0231 0.56464,-0.0371 0.8516,-0.0371 6.10461,0 11.0568,4.95219 11.0568,11.05682 0,0.33323 -0.0185,0.66646 -0.0464,0.99044 -0.28231,0.0231 -0.56464,0.0371 -0.85158,0.0371 -6.10461,0 -11.05682,-4.95218 -11.05682,-11.05679 z"
         id="path186"
         style="stroke-width:0.264582" /><path
         class="cls-2"
         d="m 132.85252,172.88417 c 0,-2.09196 0.58315,-4.04968 1.59209,-5.71584 4.08674,1.62449 6.97474,5.6094 6.97474,10.27464 0,2.09194 -0.58316,4.04968 -1.59211,5.71584 -4.08671,-1.62451 -6.97472,-5.6094 -6.97472,-10.27464 z"
         id="path188"
         style="stroke-width:0.264582" /></g></g></svg>
