<?xml version="1.0" encoding="UTF-8" standalone="no"?>
<!-- Created with Inkscape (http://www.inkscape.org/) -->

<svg
   width="33.775887mm"
   height="26.458332mm"
   viewBox="0 0 33.775887 26.458332"
   version="1.1"
   id="svg5"
   xml:space="preserve"
   inkscape:version="1.2.1 (9c6d41e410, 2022-07-14)"
   sodipodi:docname="isotipo-sanRoque.svg"
   xmlns:inkscape="http://www.inkscape.org/namespaces/inkscape"
   xmlns:sodipodi="http://sodipodi.sourceforge.net/DTD/sodipodi-0.dtd"
   xmlns="http://www.w3.org/2000/svg"
   xmlns:svg="http://www.w3.org/2000/svg"><sodipodi:namedview
     id="namedview7"
     pagecolor="#ffffff"
     bordercolor="#000000"
     borderopacity="0.25"
     inkscape:showpageshadow="2"
     inkscape:pageopacity="0.0"
     inkscape:pagecheckerboard="0"
     inkscape:deskcolor="#d1d1d1"
     inkscape:document-units="mm"
     showgrid="false"
     inkscape:zoom="0.77415123"
     inkscape:cx="324.22605"
     inkscape:cy="114.31875"
     inkscape:window-width="1920"
     inkscape:window-height="1001"
     inkscape:window-x="2391"
     inkscape:window-y="-9"
     inkscape:window-maximized="1"
     inkscape:current-layer="layer1" /><defs
     id="defs2"><style
       id="style132">.cls-1{fill:#004e59;}.cls-2{fill:#ffad5f;}.cls-3{fill:#ff6b00;}.cls-4{fill:#00abc8;}.cls-5{fill:#00758d;}.cls-6{fill:#00bed6;}.cls-7{fill:#5fd0df;}.cls-8{fill:#ff5100;}.cls-9{fill:#ff9015;}.cls-10{fill:#673918;}</style></defs><g
     inkscape:label="Capa 1"
     inkscape:groupmode="layer"
     id="layer1"
     transform="translate(-7.2984748,-91.324175)"><g
       id="g221"
       transform="matrix(0.06177235,0,0,0.06177235,2.5660951,82.933019)"
       style="stroke-width:4.2832"><polygon
         class="cls-9"
         points="393.29,335.75 349.71,353.56 306.3,335.34 288.49,291.76 306.71,248.35 350.29,230.54 393.7,248.76 411.51,292.34 "
         id="polygon136"
         style="stroke-width:4.2832" /><polygon
         class="cls-10"
         points="256.32,317.97 193.79,292.05 350,448.26 324.08,385.73 306.31,335.34 "
         id="polygon138"
         style="stroke-width:4.2832" /><polygon
         class="cls-3"
         points="443.56,317.65 443.68,317.75 506.21,291.83 443.68,265.91 393.7,248.54 411.51,291.81 411.54,291.84 393.29,335.56 443.68,317.78 "
         id="polygon140"
         style="stroke-width:4.2832" /><polygon
         class="cls-3"
         points="375.92,385.77 393.29,335.78 350.04,353.58 350.02,353.56 306.31,335.34 324.08,385.73 350,448.26 375.91,385.76 "
         id="polygon142"
         style="stroke-width:4.2832" /><polygon
         class="cls-9"
         points="393.7,248.76 443.68,266.13 506.21,292.05 350,135.84 375.92,198.37 "
         id="polygon144"
         style="stroke-width:4.2832" /><polygon
         class="cls-9"
         points="443.68,317.97 443.63,318.02 393.29,335.78 375.94,385.72 375.92,385.73 350,448.26 506.21,292.05 "
         id="polygon146"
         style="stroke-width:4.2832" /><polygon
         class="cls-3"
         points="256.32,266.13 193.79,292.05 256.32,317.97 306.31,335.34 288.49,292.07 306.71,248.35 "
         id="polygon148"
         style="stroke-width:4.2832" /><polygon
         class="cls-2"
         points="350,135.84 324.08,198.37 306.71,248.35 349.98,230.54 393.7,248.76 375.92,198.37 "
         id="polygon150"
         style="stroke-width:4.2832" /><polygon
         class="cls-8"
         points="306.71,248.35 324.08,198.37 350,135.84 193.79,292.05 256.32,266.13 "
         id="polygon152"
         style="stroke-width:4.2832" /><polygon
         class="cls-6"
         points="555.85,496.86 529.79,507.52 503.83,496.62 493.17,470.56 504.07,444.6 530.13,433.94 556.1,444.84 566.75,470.9 "
         id="polygon154"
         style="stroke-width:4.2832" /><polygon
         class="cls-1"
         points="473.93,486.23 436.53,470.73 529.96,564.16 514.46,526.76 503.83,496.62 "
         id="polygon156"
         style="stroke-width:4.2832" /><polygon
         class="cls-4"
         points="585.92,486.04 585.99,486.1 623.39,470.6 585.99,455.1 556.1,444.71 566.75,470.59 566.77,470.6 555.85,496.75 585.99,486.12 "
         id="polygon158"
         style="stroke-width:4.2832" /><polygon
         class="cls-4"
         points="545.46,526.78 555.85,496.89 529.98,507.53 529.97,507.52 503.83,496.62 514.46,526.76 529.96,564.16 545.46,526.78 "
         id="polygon160"
         style="stroke-width:4.2832" /><polygon
         class="cls-6"
         points="556.1,444.84 585.99,455.23 623.39,470.73 529.96,377.3 545.46,414.7 "
         id="polygon162"
         style="stroke-width:4.2832" /><polygon
         class="cls-6"
         points="585.99,486.23 585.96,486.26 555.85,496.89 545.47,526.75 545.46,526.76 529.96,564.16 623.39,470.73 "
         id="polygon164"
         style="stroke-width:4.2832" /><polygon
         class="cls-4"
         points="473.93,455.23 436.53,470.73 473.93,486.23 503.83,496.62 493.17,470.74 504.07,444.6 "
         id="polygon166"
         style="stroke-width:4.2832" /><polygon
         class="cls-7"
         points="529.96,377.3 514.46,414.7 504.07,444.6 529.95,433.94 556.1,444.84 545.46,414.7 "
         id="polygon168"
         style="stroke-width:4.2832" /><polygon
         class="cls-5"
         points="504.07,444.6 514.46,414.7 529.96,377.3 436.53,470.73 473.93,455.23 "
         id="polygon170"
         style="stroke-width:4.2832" /><polygon
         class="cls-6"
         points="195.93,496.86 169.87,507.52 143.9,496.62 133.25,470.56 144.15,444.6 170.21,433.94 196.17,444.84 206.83,470.9 "
         id="polygon172"
         style="stroke-width:4.2832" /><polygon
         class="cls-1"
         points="114.01,486.23 76.61,470.73 170.04,564.16 154.54,526.76 143.91,496.62 "
         id="polygon174"
         style="stroke-width:4.2832" /><polygon
         class="cls-4"
         points="226,486.04 226.07,486.1 263.47,470.6 226.07,455.1 196.17,444.71 206.83,470.59 206.85,470.6 195.93,496.75 226.07,486.12 "
         id="polygon176"
         style="stroke-width:4.2832" /><polygon
         class="cls-4"
         points="185.54,526.78 195.93,496.89 170.06,507.53 170.05,507.52 143.91,496.62 154.54,526.76 170.04,564.16 185.54,526.78 "
         id="polygon178"
         style="stroke-width:4.2832" /><polygon
         class="cls-6"
         points="196.17,444.84 226.07,455.23 263.47,470.73 170.04,377.3 185.54,414.7 "
         id="polygon180"
         style="stroke-width:4.2832" /><polygon
         class="cls-6"
         points="226.07,486.23 226.04,486.26 195.93,496.89 185.55,526.75 185.54,526.76 170.04,564.16 263.47,470.73 "
         id="polygon182"
         style="stroke-width:4.2832" /><polygon
         class="cls-4"
         points="114.01,455.23 76.61,470.73 114.01,486.23 143.91,496.62 133.25,470.74 144.15,444.6 "
         id="polygon184"
         style="stroke-width:4.2832" /><polygon
         class="cls-7"
         points="170.04,377.3 154.54,414.7 144.15,444.6 170.03,433.94 196.17,444.84 185.54,414.7 "
         id="polygon186"
         style="stroke-width:4.2832" /><polygon
         class="cls-5"
         points="144.15,444.6 154.54,414.7 170.04,377.3 76.61,470.73 114.01,455.23 "
         id="polygon188"
         style="stroke-width:4.2832" /></g></g></svg>
