<?xml version="1.0" encoding="UTF-8" standalone="no"?>
<!-- Created with Inkscape (http://www.inkscape.org/) -->

<svg
   width="17.766903mm"
   height="26.458334mm"
   viewBox="0 0 17.766903 26.458334"
   version="1.1"
   id="svg5"
   xml:space="preserve"
   inkscape:version="1.2.1 (9c6d41e410, 2022-07-14)"
   sodipodi:docname="terracota.svg"
   xmlns:inkscape="http://www.inkscape.org/namespaces/inkscape"
   xmlns:sodipodi="http://sodipodi.sourceforge.net/DTD/sodipodi-0.dtd"
   xmlns="http://www.w3.org/2000/svg"
   xmlns:svg="http://www.w3.org/2000/svg"><sodipodi:namedview
     id="namedview7"
     pagecolor="#ffffff"
     bordercolor="#000000"
     borderopacity="0.25"
     inkscape:showpageshadow="2"
     inkscape:pageopacity="0.0"
     inkscape:pagecheckerboard="0"
     inkscape:deskcolor="#d1d1d1"
     inkscape:document-units="mm"
     showgrid="false"
     inkscape:zoom="6.1932099"
     inkscape:cx="39.23652"
     inkscape:cy="53.041962"
     inkscape:window-width="1920"
     inkscape:window-height="1001"
     inkscape:window-x="2391"
     inkscape:window-y="-9"
     inkscape:window-maximized="1"
     inkscape:current-layer="layer1" /><defs
     id="defs2"><style
       id="style132">.cls-1{fill:#728255;}.cls-2{fill:#97a87c;}.cls-3{fill:#616d38;}.cls-4{fill:#b4c89a;}.cls-5{fill:#29371c;}</style><style
       id="style324">.cls-1{fill:#7b6756;}.cls-2{fill:#993921;}.cls-3{clip-path:url(#clippath);}.cls-4{fill:#d35842;}.cls-5{fill:none;}.cls-6{fill:#d6a64b;}</style><clipPath
       id="clippath"><path
         class="cls-5"
         d="m 168.88,13.5 c -3.45,3.65 -12.3,13.55 -14.56,23.12 -3.21,13.62 3.03,29.24 3.03,29.24 0,0 9.28,-5.13 15.09,-18.03 4.36,-9.68 1.16,-25.89 1.49,-32.22 0.23,-4.34 0.79,-5.46 0.13,-5.97 -0.13,-0.1 -0.28,-0.15 -0.44,-0.15 -0.97,0 -2.53,1.65 -4.74,4"
         id="path326" /></clipPath></defs><g
     inkscape:label="Capa 1"
     inkscape:groupmode="layer"
     id="layer1"
     transform="translate(-111.97638,-72.170629)"><g
       id="g1187"><path
         class="cls-4"
         d="m 113.83141,98.624268 c 0,0 0.99516,-6.078908 4.37494,-10.092394 3.31875,-3.938381 7.82042,-4.726995 9.30378,-5.182325 0.9529,-0.291039 1.36599,-0.469415 1.76499,-0.596156 0.34267,-0.107958 0.61494,0.154903 0.38022,0.610238 -1.02801,2.009089 -2.41748,8.369643 -5.40765,11.176738 -3.6849,3.459577 -10.42098,4.083899 -10.42098,4.083899"
         id="path331"
         style="stroke-width:0.264583" /><path
         class="cls-6"
         d="m 113.83141,98.624268 c 0,0 -2.93384,-7.332242 -1.42233,-13.725655 1.06088,-4.492288 5.21519,-9.139484 6.83468,-10.852843 1.21578,-1.286193 2.00908,-2.126445 2.43156,-1.807243 0.3145,0.234707 0.047,0.765144 -0.061,2.8024 -0.15968,2.971387 1.34722,10.580584 -0.69943,15.124506 -2.7273,6.055437 -7.08345,8.463529 -7.08345,8.463529"
         id="path333"
         style="stroke-width:0.264583" /><g
         class="cls-3"
         clip-path="url(#clippath)"
         id="g337"
         transform="matrix(0.46941363,0,0,0.46941363,39.964481,67.708686)"
         style="stroke-width:0.563645"><path
           class="cls-2"
           d="m 157.36,65.86 c 0,0 2.12,-12.95 9.32,-21.5 7.07,-8.39 16.66,-10.07 19.82,-11.04 2.03,-0.62 2.91,-1 3.76,-1.27 0.73,-0.23 1.31,0.33 0.81,1.3 -2.19,4.28 -5.15,17.83 -11.52,23.81 -7.85,7.37 -22.2,8.7 -22.2,8.7"
           id="path335"
           style="stroke-width:0.563645" /></g></g></g></svg>
