<?xml version="1.0" encoding="UTF-8" standalone="no"?>
<!-- Created with Inkscape (http://www.inkscape.org/) -->

<svg
   width="20.438253mm"
   height="26.458332mm"
   viewBox="0 0 20.438253 26.458332"
   version="1.1"
   id="svg5"
   xml:space="preserve"
   inkscape:version="1.2.1 (9c6d41e410, 2022-07-14)"
   sodipodi:docname="isotipo-valterra.svg"
   xmlns:inkscape="http://www.inkscape.org/namespaces/inkscape"
   xmlns:sodipodi="http://sodipodi.sourceforge.net/DTD/sodipodi-0.dtd"
   xmlns="http://www.w3.org/2000/svg"
   xmlns:svg="http://www.w3.org/2000/svg"><sodipodi:namedview
     id="namedview7"
     pagecolor="#ffffff"
     bordercolor="#000000"
     borderopacity="0.25"
     inkscape:showpageshadow="2"
     inkscape:pageopacity="0.0"
     inkscape:pagecheckerboard="0"
     inkscape:deskcolor="#d1d1d1"
     inkscape:document-units="mm"
     showgrid="false"
     inkscape:zoom="0.77415123"
     inkscape:cx="218.3036"
     inkscape:cy="370.08273"
     inkscape:window-width="1920"
     inkscape:window-height="1001"
     inkscape:window-x="2391"
     inkscape:window-y="-9"
     inkscape:window-maximized="1"
     inkscape:current-layer="layer1" /><defs
     id="defs2"><style
       id="style132">.cls-1{fill:#c97d31;}.cls-2{fill:#238dc1;}.cls-3{fill:#6bcbb8;}.cls-4{fill:#009877;}</style></defs><g
     inkscape:label="Capa 1"
     inkscape:groupmode="layer"
     id="layer1"
     transform="translate(-47.174387,-50.527635)"><g
       id="g194"
       transform="matrix(0.0430021,0,0,0.0430021,42.343101,48.705636)"
       style="stroke-width:6.1528"><polygon
         class="cls-1"
         points="246.91,402.03 318.07,508.3 314.79,657.65 350.79,657.65 347.03,486.95 424.01,371.99 404.96,359.25 346.15,447.07 344.25,360.7 321.32,360.7 318.96,468.43 265.95,389.27 "
         id="polygon136"
         style="stroke-width:6.1528" /><path
         class="cls-3"
         d="m 218.76,439.92 v -0.2 c 0,0 -0.36,-0.02 -0.36,-0.02 -1.87,-1.13 -3.86,-2.14 -6.05,-2.97 -8.6,-3.27 -18.29,-3.11 -27.12,-1.6 h -0.37 l -0.02,0.07 c -13.43,2.37 -24.75,7.81 -27.07,8.98 l -0.32,-0.12 -0.26,0.69 0.31,0.12 c 1.24,3.1 8.96,21.5 22.55,33.51 l 0.19,0.35 0.12,-0.07 c 3.88,3.37 8.2,6.23 12.99,8.04 22.27,8.47 43.2,-8.38 45.96,-10.72 l 0.2,0.07 0.26,-0.69 -0.19,-0.07 c -0.45,-3.21 -4.08,-24.81 -20.82,-35.37"
         id="path138"
         style="stroke-width:6.1528" /><path
         class="cls-3"
         d="m 546.45,390.49 -0.3,-0.68 -0.3,0.13 c -3.07,-1.34 -21.49,-9 -39.59,-8.01 l -0.38,-0.1 -0.04,0.13 c -5.12,0.32 -10.21,1.33 -14.89,3.41 -21.8,9.62 -24.85,36.31 -25.18,39.92 l -0.17,0.08 0.28,0.68 0.19,-0.08 c 2.58,1.97 20.34,14.78 39.68,10.53 l 0.13,0.16 0.28,-0.25 c 2.12,-0.49 4.25,-1.18 6.38,-2.13 8.42,-3.71 15.21,-10.63 20.42,-17.91 l 0.27,-0.28 -0.05,-0.04 c 7.88,-11.12 12.13,-22.96 12.96,-25.41 l 0.31,-0.13 z"
         id="path140"
         style="stroke-width:6.1528" /><path
         class="cls-3"
         d="m 302.03,385.12 0.21,-0.27 -0.49,-0.38 c -1.44,-3.35 -3.22,-6.67 -5.41,-9.91 -8.65,-12.79 -22.1,-21.94 -35.67,-28.4 l -0.53,-0.37 -0.07,0.09 c -20.69,-9.73 -41.49,-13.22 -45.79,-13.86 l -0.33,-0.46 -1.03,0.69 0.31,0.47 c -1.3,5.44 -8.48,38.16 -1.47,67.75 l -0.06,0.67 h 0.23 c 2.06,8.38 5.24,16.48 10.06,23.6 22.36,33.12 67.35,30.25 73.4,29.71 l 0.18,0.27 1.04,-0.69 -0.18,-0.28 c 2.47,-4.84 18.37,-37.97 5.6,-68.64"
         id="path142"
         style="stroke-width:6.1528" /><path
         class="cls-4"
         d="m 196.07,423.39 0.19,0.2 0.75,-0.71 -0.2,-0.19 c 1.36,-4.28 9.73,-33.36 -4.85,-56.52 l 0.15,-0.26 -0.46,-0.23 c -1.63,-2.52 -3.53,-4.97 -5.74,-7.31 -8.78,-9.2 -20.95,-14.79 -32.87,-18.17 l -0.49,-0.24 -0.03,0.09 C 134.36,334.98 117,335 113.43,335.07 l -0.33,-0.33 -0.75,0.7 0.33,0.33 c -0.31,4.6 -1.67,32.16 8.07,55.23 l 0.04,0.55 0.19,-0.02 c 2.82,6.53 6.52,12.66 11.4,17.79 22.69,23.83 58.84,15.33 63.69,14.06"
         id="path144"
         style="stroke-width:6.1528" /><path
         class="cls-2"
         d="m 471.31,448.06 c -3.11,-2.17 -21.95,-14.84 -42.34,-17.78 l -0.39,-0.21 -0.09,0.14 c -5.79,-0.79 -11.68,-0.8 -17.36,0.47 -26.45,5.84 -35.81,34.92 -36.97,38.87 l -0.24,0.05 0.19,0.82 0.22,-0.05 c 2.43,2.77 19.36,21.03 41.87,20.61 l 0.12,0.2 0.36,-0.22 c 2.47,-0.08 4.99,-0.38 7.58,-0.94 10.23,-2.26 19.33,-8.46 26.77,-15.41 l 0.36,-0.24 -0.04,-0.07 c 11.29,-10.62 18.67,-22.87 20.13,-25.42 l 0.36,-0.08 -0.17,-0.83 -0.37,0.08 z"
         id="path146"
         style="stroke-width:6.1528" /><path
         class="cls-4"
         d="m 512.12,258.7 0.44,-0.53 -1.2,-1 -0.45,0.54 c -6.97,0.37 -48.61,3.32 -81.54,22.16 l -0.81,0.15 0.06,0.28 c -9.3,5.42 -17.84,12.08 -24.66,20.35 -31.72,38.43 -12.39,91.22 -9.61,98.27 l -0.27,0.32 1.19,0.99 0.27,-0.32 c 6.66,1.27 51.89,8.59 84.05,-17.52 l 0.42,0.17 0.28,-0.74 c 3.49,-2.9 6.83,-6.19 9.93,-9.96 12.25,-14.84 18.45,-34.16 21.37,-52.67 l 0.26,-0.77 -0.13,-0.06 c 4.33,-28.19 1.16,-54.3 0.41,-59.67"
         id="path148"
         style="stroke-width:6.1528" /><path
         class="cls-4"
         d="m 402.45,197.06 0.08,0.17 c -4.87,4.97 -9.07,10.58 -11.89,16.9 -13.2,29.39 7.87,58.98 10.83,62.9 l -0.12,0.25 0.9,0.42 0.11,-0.26 c 4.38,-0.35 33.83,-3.52 49.41,-25.3 l 0.29,0.04 0.03,-0.51 c 1.69,-2.41 3.21,-5.03 4.49,-7.91 5.11,-11.34 5.66,-24.45 4.32,-36.49 l 0.02,-0.52 -0.08,-0.02 c -2.13,-18.31 -8.58,-34.04 -9.96,-37.26 l 0.17,-0.41 -0.9,-0.42 -0.19,0.42 c -4.28,1.42 -29.74,10.39 -47.02,27.76 l -0.49,0.23 z"
         id="path150"
         style="stroke-width:6.1528" /><path
         class="cls-4"
         d="m 266.92,250 0.21,-0.24 -0.44,-0.39 c -1.2,-3.18 -2.7,-6.36 -4.61,-9.49 -7.48,-12.34 -19.65,-21.49 -32.03,-28.12 l -0.49,-0.37 -0.06,0.08 c -18.91,-10.01 -38.18,-14.21 -42.17,-15 l -0.27,-0.45 -1,0.6 0.27,0.46 c -1.46,5.02 -9.65,35.25 -4.43,63.21 l -0.09,0.63 0.22,0.02 c 1.54,7.92 4.16,15.62 8.33,22.49 19.4,31.94 61.55,31.27 67.23,31.04 l 0.17,0.27 1,-0.59 -0.17,-0.27 c 2.55,-4.42 18.89,-34.64 8.32,-63.86"
         id="path152"
         style="stroke-width:6.1528" /><path
         class="cls-3"
         d="m 468.96,187.37 0.63,0.21 0.05,-0.17 c 2.87,-0.51 22.03,-4.44 30.93,-19.73 h 0.19 c 0,0 0,-0.33 0,-0.33 0.96,-1.69 1.8,-3.51 2.45,-5.48 2.65,-7.79 2.19,-16.44 0.58,-24.27 v -0.35 h -0.08 c -2.54,-11.92 -7.77,-21.86 -8.88,-23.9 l 0.11,-0.27 -0.63,-0.21 -0.1,0.28 c -2.73,1.2 -18.92,8.69 -29.21,21.2 l -0.31,0.18 0.07,0.1 c -2.89,3.57 -5.3,7.53 -6.78,11.87 -6.85,20.15 8.87,38.3 11.04,40.7 z"
         id="path154"
         style="stroke-width:6.1528" /><path
         class="cls-3"
         d="m 183.21,281.86 0.13,-0.23 -0.41,-0.21 c -1.44,-2.24 -3.11,-4.43 -5.07,-6.52 -7.76,-8.24 -18.57,-13.27 -29.14,-16.34 l -0.43,-0.21 -0.05,0.08 c -16.11,-4.59 -31.58,-4.67 -34.76,-4.63 l -0.27,-0.29 -0.67,0.62 0.29,0.3 c -0.31,4.1 -1.66,28.61 6.91,49.18 l 0.03,0.49 0.15,-0.02 c 2.48,5.82 5.74,11.3 10.06,15.88 20.07,21.33 52.28,13.95 56.59,12.84 l 0.17,0.18 0.66,-0.62 -0.17,-0.18 c 1.23,-3.79 8.82,-29.63 -4.03,-50.3"
         id="path156"
         style="stroke-width:6.1528" /><path
         class="cls-4"
         d="m 328.96,138.45 v 0.22 h 0.81 c 0,0 0,-0.21 0,-0.21 3.13,-1.69 23.9,-13.64 28.32,-34.83 l 0.22,-0.06 -0.12,-0.4 c 0.44,-2.33 0.71,-4.76 0.74,-7.31 0.08,-10.07 -3.8,-19.94 -8.71,-28.41 l -0.15,-0.4 -0.07,0.02 C 342.45,54.22 332.56,44.66 330.5,42.73 v -0.36 h -0.83 c 0,0 0,0.35 0,0.35 -2.7,2.45 -18.62,17.39 -25.75,35.88 l -0.29,0.34 0.12,0.09 c -1.99,5.26 -3.27,10.78 -3.28,16.39 -0.21,26.05 25.04,41.09 28.5,43.03"
         id="path158"
         style="stroke-width:6.1528" /><path
         class="cls-2"
         d="m 389.36,313.1 -0.24,-0.75 c 0.82,-4.45 1.27,-9.1 1.26,-13.96 -0.07,-19.19 -7.66,-37.94 -17.21,-54 l -0.29,-0.75 -0.14,0.04 C 358.08,219.32 339.01,201.32 335.01,197.69 V 197 h -1.54 v 0.7 c -5.11,4.72 -35.16,33.55 -48.38,68.97 l -0.53,0.64 0.23,0.17 c -3.67,10.08 -5.98,20.64 -5.93,31.33 0.19,49.68 48.67,77.82 55.28,81.45 v 0.42 h 1.55 v -0.42 c 5.91,-3.28 45.24,-26.51 53.26,-67.03 z"
         id="path160"
         style="stroke-width:6.1528" /><path
         class="cls-3"
         d="m 229.88,177.85 c 8.61,38.41 50.9,51.93 56.66,53.61 l 0.06,0.32 1.2,-0.26 -0.07,-0.33 c 4.02,-3.55 30.48,-28.21 29.79,-60.93 l 0.3,-0.17 -0.33,-0.54 c -0.12,-3.58 -0.56,-7.26 -1.41,-11.01 -3.32,-14.85 -12.38,-28.06 -22.51,-38.85 l -0.35,-0.54 -0.1,0.06 C 277.62,102.86 259.8,92.19 256.09,90.05 l -0.13,-0.54 -1.19,0.26 0.12,0.54 c -3.14,4.53 -21.49,31.94 -25.69,61.61 l -0.3,0.58 0.22,0.1 c -1.13,8.43 -1.12,16.99 0.74,25.25"
         id="path162"
         style="stroke-width:6.1528" /><path
         class="cls-2"
         d="m 356.71,130.92 c -10.07,32.47 15.79,60.78 19.37,64.51 l -0.08,0.27 1.01,0.31 0.09,-0.27 c 4.54,-0.93 34.96,-8.02 48.5,-32.82 h 0.31 l -0.03,-0.54 c 1.46,-2.73 2.71,-5.68 3.7,-8.86 3.88,-12.54 2.79,-26.33 -0.15,-38.77 l -0.04,-0.55 h -0.1 C 424.73,95.29 415.97,79.63 414.11,76.44 l 0.14,-0.45 -1.02,-0.32 -0.13,0.46 c -4.31,2.04 -29.83,14.69 -45.73,35.1 l -0.47,0.31 0.11,0.17 c -4.46,5.82 -8.12,12.24 -10.29,19.22"
         id="path164"
         style="stroke-width:6.1528" /><path
         class="cls-2"
         d="m 587.11,281.81 0.24,-0.28 -0.62,-0.56 -0.26,0.28 c -3.79,0.08 -26.48,0.95 -44.68,10.59 l -0.45,0.07 0.03,0.16 c -5.14,2.78 -9.9,6.25 -13.76,10.62 -17.9,20.32 -8.33,49.34 -6.94,53.21 l -0.15,0.17 0.63,0.57 0.15,-0.17 c 3.59,0.8 28.04,5.58 45.96,-8.04 l 0.22,0.09 0.16,-0.39 c 1.95,-1.52 3.81,-3.25 5.57,-5.23 6.93,-7.84 10.62,-18.23 12.53,-28.23 l 0.15,-0.42 -0.08,-0.04 c 2.85,-15.23 1.59,-29.47 1.28,-32.4"
         id="path166"
         style="stroke-width:6.1528" /><path
         class="cls-3"
         d="m 498.41,179.87 0.02,0.16 c -5.13,2.77 -9.9,6.24 -13.74,10.61 -17.9,20.32 -8.35,49.32 -6.96,53.2 l -0.14,0.17 0.63,0.56 0.14,-0.17 c 3.6,0.81 28.04,5.58 45.98,-8.04 l 0.2,0.1 0.17,-0.4 c 1.96,-1.52 3.82,-3.24 5.58,-5.23 6.92,-7.84 10.62,-18.23 12.53,-28.23 l 0.14,-0.41 -0.06,-0.04 c 2.84,-15.23 1.58,-29.47 1.27,-32.39 l 0.25,-0.29 -0.62,-0.55 -0.27,0.28 c -3.79,0.08 -26.46,0.95 -44.67,10.6 z"
         id="path168"
         style="stroke-width:6.1528" /><path
         class="cls-2"
         d="m 172.54,155.98 -0.09,0.34 0.12,0.02 c 0.42,4.51 1.43,8.96 3.38,13.04 8.99,18.96 32.58,21 35.77,21.19 l 0.07,0.16 0.59,-0.28 -0.06,-0.16 c 1.66,-2.32 12.51,-18.27 8.29,-35.2 l 0.14,-0.13 -0.24,-0.24 c -0.48,-1.84 -1.14,-3.7 -2.03,-5.56 -3.48,-7.32 -9.75,-13.13 -16.28,-17.54 l -0.24,-0.24 -0.04,0.04 c -9.98,-6.68 -20.51,-10.13 -22.69,-10.8 l -0.13,-0.26 -0.59,0.27 0.12,0.27 c -1.1,2.73 -7.4,19.15 -6.08,35.06"
         id="path170"
         style="stroke-width:6.1528" /></g></g></svg>
