<?xml version="1.0" encoding="UTF-8"?>
<svg id="Capa_1" data-name="Capa 1" xmlns="http://www.w3.org/2000/svg" viewBox="0 0 3219.5 740.71">
  <defs>
    <style>
      .cls-1 {
        fill: #00a0df;
      }

      .cls-1, .cls-2, .cls-3 {
        stroke-width: 0px;
      }

      .cls-2 {
        fill: #555152;
      }

      .cls-3 {
        fill: #00ae42;
      }
    </style>
  </defs>
  <g>
    <path class="cls-1" d="m218.04,480.43c-1.24-1.32-3.25-1.51-4.71-.46-1.47,1.04-1.92,3.02-1.06,4.6,19.86,37,49.23,68.3,84.93,90.54.59.37,1.25.55,1.9.55h.07c1.93.11,3.65-1.58,3.65-3.59,0-1.26-.65-2.37-1.63-3.01l-83.16-88.64Z"/>
    <path class="cls-1" d="m782.11,306.83c-.96-1.65-3.03-2.25-4.73-1.4l-69.34,35.21-371.39,243.16-4.9,3.39c-1.08.74-1.66,2.02-1.53,3.32.14,1.3.97,2.42,2.16,2.93,29.16,12.43,60.58,18.72,93.39,18.72,127.69,0,233.51-99.07,241.71-225.88l113.5-74.66c1.59-1.05,2.09-3.15,1.13-4.8Z"/>
    <path class="cls-1" d="m667.6,358.91c-5.78-129.18-112.01-230.37-241.83-230.37-119.22,0-221.98,88.53-239.67,206.2l-103.83,67.99c-1.59,1.04-2.1,3.15-1.15,4.8.96,1.66,3.03,2.27,4.72,1.41l69.34-34.83,193.39-126.45c1.02-.66,1.63-1.79,1.63-3v-41.96h26.75v19.75c0,1.32.72,2.53,1.9,3.16,1.15.62,2.58.56,3.68-.17l78.51-51.78,113.97,122-111.49-71.72c-1.05-.69-2.4-.76-3.55-.19l-274.43,137.74c-1.21.61-1.98,1.85-1.98,3.21v5.64c0,28.45,5.01,56.72,14.92,84.02.26.75.78,1.39,1.45,1.81l121.76,76.77c.58.36,1.25.55,1.92.55.55,0,1.1-.13,1.61-.38l340.41-170.85c1.27-.63,2.04-1.95,1.98-3.37Zm-170.78-39.15v30.46h-30.14v-30.46h30.14Zm-30.14-14.71v-30.08h30.14v30.08h-30.14Zm-45.24,0v-30.08h30.13v30.08h-30.13Zm30.13,14.71v30.46h-30.13v-30.46h30.13Z"/>
  </g>
  <g>
    <g>
      <path class="cls-2" d="m982.86,497.94l-5.73,4.41c-3.16-4.13-6.97-7.25-11.4-9.38-4.44-2.13-9.31-3.19-14.62-3.19-5.81,0-11.18,1.4-16.13,4.19-4.94,2.78-8.78,6.51-11.5,11.21-2.72,4.7-4.08,9.98-4.08,15.87,0,8.86,3.04,16.25,9.13,22.19,6.08,5.93,13.75,8.91,23.01,8.91,10.2,0,18.72-3.99,25.58-11.97l5.73,4.36c-3.63,4.63-8.15,8.19-13.58,10.72-5.43,2.5-11.49,3.78-18.17,3.78-12.73,0-22.76-4.24-30.12-12.71-6.17-7.16-9.26-15.8-9.26-25.92,0-10.65,3.75-19.61,11.2-26.88,7.47-7.27,16.82-10.91,28.08-10.91,6.78,0,12.91,1.35,18.39,4.03,5.48,2.68,9.95,6.45,13.45,11.3Z"/>
      <path class="cls-2" d="m1032.72,482.61c11,0,20.23,3.67,27.67,11.03,7.41,7.35,11.12,16.4,11.12,27.15s-3.7,19.68-11.11,27.11c-7.41,7.41-16.44,11.12-27.1,11.12s-19.9-3.69-27.32-11.07c-7.42-7.4-11.14-16.32-11.14-26.82,0-6.99,1.69-13.47,5.08-19.44,3.38-5.95,8-10.63,13.84-14.02,5.84-3.37,12.15-5.06,18.96-5.06Zm.31,7.07c-5.38,0-10.48,1.4-15.31,4.2-4.81,2.82-8.58,6.59-11.29,11.34-2.7,4.77-4.06,10.05-4.06,15.9,0,8.65,2.99,15.94,8.99,21.9,5.99,5.95,13.22,8.92,21.67,8.92,5.65,0,10.88-1.35,15.68-4.09,4.82-2.76,8.56-6.49,11.25-11.24,2.69-4.76,4.04-10.04,4.04-15.85s-1.35-10.98-4.04-15.67c-2.69-4.66-6.48-8.4-11.36-11.22-4.9-2.79-10.09-4.2-15.57-4.2Z"/>
      <path class="cls-2" d="m1090.03,557.19v-72.75h1.58l48.41,55.77v-55.77h7.18v72.75h-1.63l-48.03-55.08v55.08h-7.52Z"/>
      <path class="cls-2" d="m1162.05,543.63l6.19-3.7c4.35,8.02,9.38,12.01,15.08,12.01,2.44,0,4.73-.57,6.88-1.7,2.13-1.13,3.76-2.64,4.89-4.58,1.12-1.91,1.69-3.94,1.69-6.07,0-2.44-.83-4.83-2.48-7.18-2.27-3.22-6.43-7.12-12.46-11.67-6.06-4.58-9.84-7.9-11.33-9.94-2.56-3.42-3.85-7.13-3.85-11.11,0-3.17.75-6.06,2.27-8.67,1.53-2.6,3.65-4.65,6.42-6.14,2.74-1.52,5.74-2.26,8.97-2.26,3.43,0,6.63.84,9.61,2.55,2.99,1.7,6.14,4.81,9.48,9.37l-5.94,4.5c-2.74-3.63-5.07-6.03-7-7.18-1.92-1.15-4.03-1.72-6.3-1.72-2.93,0-5.34.88-7.2,2.67-1.86,1.76-2.79,3.97-2.79,6.56,0,1.59.33,3.12.98,4.62.67,1.49,1.87,3.1,3.62,4.84.96.93,4.09,3.36,9.4,7.26,6.3,4.66,10.62,8.8,12.96,12.43,2.34,3.63,3.52,7.26,3.52,10.93,0,5.28-2.01,9.86-6.01,13.75-4.01,3.9-8.89,5.84-14.62,5.84-4.42,0-8.42-1.18-12.02-3.54-3.6-2.36-6.9-6.32-9.94-11.85Z"/>
      <path class="cls-2" d="m1216.57,491.56v-7.12h39.86v7.12h-16.22v65.63h-7.42v-65.63h-16.22Z"/>
      <path class="cls-2" d="m1270.8,484.44h14.49c8.08,0,13.55.32,16.43.99,4.32.98,7.83,3.11,10.53,6.36,2.71,3.25,4.06,7.25,4.06,12.01,0,3.96-.94,7.44-2.79,10.45-1.87,3.01-4.53,5.28-7.99,6.82-3.46,1.52-8.24,2.31-14.34,2.35l26.16,33.77h-8.98l-26.17-33.77h-4.1v33.77h-7.28v-72.75Zm7.28,7.12v24.74l12.53.09c4.86,0,8.44-.44,10.77-1.38,2.33-.93,4.14-2.41,5.46-4.42,1.29-2.03,1.94-4.3,1.94-6.8s-.66-4.66-1.97-6.65c-1.32-1.99-3.05-3.42-5.2-4.28-2.15-.86-5.71-1.29-10.7-1.29h-12.83Z"/>
      <path class="cls-2" d="m1334.52,484.44h7.28v43.91c0,5.22.1,8.47.29,9.74.37,2.88,1.2,5.28,2.52,7.21,1.32,1.93,3.35,3.55,6.09,4.85,2.73,1.29,5.48,1.95,8.25,1.95,2.41,0,4.72-.52,6.93-1.53,2.21-1.01,4.06-2.44,5.54-4.25,1.49-1.82,2.58-4.02,3.27-6.59.5-1.84.74-5.63.74-11.38v-43.91h7.26v43.91c0,6.5-.63,11.75-1.9,15.75-1.27,4.01-3.81,7.49-7.61,10.47-3.81,2.96-8.42,4.45-13.82,4.45-5.87,0-10.9-1.4-15.09-4.21-4.19-2.81-6.99-6.5-8.41-11.13-.89-2.82-1.34-7.95-1.34-15.33v-43.91Z"/>
      <path class="cls-2" d="m1471.83,497.94l-5.74,4.41c-3.17-4.13-6.97-7.25-11.4-9.38-4.44-2.13-9.31-3.19-14.63-3.19-5.8,0-11.17,1.4-16.11,4.19-4.95,2.78-8.78,6.51-11.5,11.21-2.73,4.7-4.09,9.98-4.09,15.87,0,8.86,3.04,16.25,9.13,22.19,6.09,5.93,13.77,8.91,23.02,8.91,10.19,0,18.72-3.99,25.58-11.97l5.74,4.36c-3.63,4.63-8.16,8.19-13.59,10.72-5.42,2.5-11.48,3.78-18.18,3.78-12.72,0-22.76-4.24-30.12-12.71-6.17-7.16-9.25-15.8-9.25-25.92,0-10.65,3.74-19.61,11.21-26.88,7.47-7.27,16.82-10.91,28.07-10.91,6.79,0,12.92,1.35,18.4,4.03,5.47,2.68,9.96,6.45,13.46,11.3Z"/>
      <path class="cls-2" d="m1554.85,497.94l-5.75,4.41c-3.16-4.13-6.96-7.25-11.4-9.38-4.43-2.13-9.31-3.19-14.62-3.19-5.79,0-11.17,1.4-16.12,4.19-4.95,2.78-8.78,6.51-11.51,11.21-2.71,4.7-4.08,9.98-4.08,15.87,0,8.86,3.04,16.25,9.14,22.19,6.08,5.93,13.76,8.91,23.02,8.91,10.18,0,18.7-3.99,25.56-11.97l5.75,4.36c-3.64,4.63-8.16,8.19-13.59,10.72-5.42,2.5-11.48,3.78-18.18,3.78-12.72,0-22.76-4.24-30.11-12.71-6.17-7.16-9.26-15.8-9.26-25.92,0-10.65,3.74-19.61,11.22-26.88,7.46-7.27,16.81-10.91,28.07-10.91,6.79,0,12.92,1.35,18.39,4.03,5.47,2.68,9.96,6.45,13.46,11.3Z"/>
      <path class="cls-2" d="m1571.34,484.44h7.27v72.75h-7.27v-72.75Z"/>
      <path class="cls-2" d="m1634.29,482.61c11.02,0,20.25,3.67,27.67,11.03,7.43,7.35,11.13,16.4,11.13,27.15s-3.7,19.68-11.12,27.11c-7.4,7.41-16.43,11.12-27.09,11.12s-19.89-3.69-27.31-11.07c-7.43-7.4-11.15-16.32-11.15-26.82,0-6.99,1.7-13.47,5.08-19.44,3.39-5.95,7.99-10.63,13.83-14.02,5.84-3.37,12.16-5.06,18.95-5.06Zm.34,7.07c-5.39,0-10.5,1.4-15.32,4.2-4.82,2.82-8.58,6.59-11.3,11.34-2.7,4.77-4.06,10.05-4.06,15.9,0,8.65,3,15.94,9,21.9,5.99,5.95,13.2,8.92,21.68,8.92,5.64,0,10.87-1.35,15.67-4.09,4.81-2.76,8.55-6.49,11.25-11.24,2.68-4.76,4.04-10.04,4.04-15.85s-1.35-10.98-4.04-15.67c-2.7-4.66-6.48-8.4-11.38-11.22-4.87-2.79-10.06-4.2-15.54-4.2Zm3.6-26.22h10.64l-14.61,15.24h-6.81l10.78-15.24Z"/>
      <path class="cls-2" d="m1691.61,557.19v-72.75h1.58l48.42,55.77v-55.77h7.18v72.75h-1.65l-48.02-55.08v55.08h-7.51Z"/>
      <path class="cls-2" d="m1794.87,484.44h8.36l18.63,30,18.31-30h8.42l-23.06,37.99v34.76h-7.17v-34.76l-23.49-37.99Z"/>
      <path class="cls-2" d="m1894.64,484.44h14.49c8.3,0,13.92.36,16.8,1.08,4.17,1.03,7.55,3.14,10.21,6.32,2.63,3.18,3.95,7.17,3.95,11.99s-1.29,8.85-3.88,12c-2.56,3.14-6.11,5.27-10.63,6.36-3.29.8-9.46,1.19-18.5,1.19h-5.19v33.82h-7.25v-72.75Zm7.25,7.12v24.69l12.32.13c4.96,0,8.61-.44,10.92-1.36,2.32-.89,4.12-2.36,5.45-4.39,1.31-2.01,1.99-4.28,1.99-6.78s-.68-4.68-1.99-6.7c-1.32-2.02-3.05-3.47-5.23-4.31-2.15-.86-5.69-1.29-10.61-1.29h-12.86Z"/>
      <path class="cls-2" d="m1956.49,484.44h14.49c8.09,0,13.55.32,16.43.99,4.31.98,7.83,3.11,10.52,6.36,2.7,3.25,4.06,7.25,4.06,12.01,0,3.96-.93,7.44-2.8,10.45-1.85,3.01-4.52,5.28-7.97,6.82-3.46,1.52-8.24,2.31-14.34,2.35l26.16,33.77h-8.99l-26.17-33.77h-4.11v33.77h-7.26v-72.75Zm7.26,7.12v24.74l12.54.09c4.85,0,8.45-.44,10.77-1.38,2.34-.93,4.14-2.41,5.45-4.42,1.31-2.03,1.96-4.3,1.96-6.8s-.67-4.66-1.98-6.65c-1.32-1.99-3.06-3.42-5.21-4.28-2.14-.86-5.71-1.29-10.69-1.29h-12.84Z"/>
      <path class="cls-2" d="m2054.08,482.61c11.01,0,20.24,3.67,27.67,11.03,7.42,7.35,11.12,16.4,11.12,27.15s-3.69,19.68-11.1,27.11c-7.41,7.41-16.44,11.12-27.1,11.12s-19.89-3.69-27.33-11.07c-7.41-7.4-11.13-16.32-11.13-26.82,0-6.99,1.69-13.47,5.08-19.44,3.37-5.95,7.98-10.63,13.83-14.02,5.84-3.37,12.16-5.06,18.96-5.06Zm.31,7.07c-5.37,0-10.48,1.4-15.29,4.2-4.83,2.82-8.58,6.59-11.3,11.34-2.7,4.77-4.06,10.05-4.06,15.9,0,8.65,3,15.94,9.01,21.9,5.98,5.95,13.21,8.92,21.65,8.92,5.67,0,10.89-1.35,15.69-4.09,4.8-2.76,8.55-6.49,11.25-11.24,2.68-4.76,4.02-10.04,4.02-15.85s-1.34-10.98-4.02-15.67c-2.7-4.66-6.49-8.4-11.37-11.22-4.88-2.79-10.08-4.2-15.57-4.2Z"/>
      <path class="cls-2" d="m2106.55,557.19l10.4-72.75h1.18l29.58,59.68,29.3-59.68h1.17l10.46,72.75h-7.12l-7.2-52.02-25.72,52.02h-1.86l-26.04-52.42-7.13,52.42h-7.02Z"/>
      <path class="cls-2" d="m2240.09,482.61c11.01,0,20.24,3.67,27.67,11.03,7.42,7.35,11.12,16.4,11.12,27.15s-3.7,19.68-11.11,27.11c-7.4,7.41-16.43,11.12-27.09,11.12s-19.88-3.69-27.32-11.07c-7.41-7.4-11.13-16.32-11.13-26.82,0-6.99,1.69-13.47,5.08-19.44,3.37-5.95,7.98-10.63,13.83-14.02,5.83-3.37,12.16-5.06,18.95-5.06Zm.31,7.07c-5.37,0-10.47,1.4-15.29,4.2-4.83,2.82-8.58,6.59-11.3,11.34-2.7,4.77-4.05,10.05-4.05,15.9,0,8.65,2.98,15.94,8.98,21.9,5.99,5.95,13.22,8.92,21.66,8.92,5.66,0,10.89-1.35,15.69-4.09,4.8-2.76,8.55-6.49,11.25-11.24,2.68-4.76,4.02-10.04,4.02-15.85s-1.35-10.98-4.02-15.67c-2.7-4.66-6.49-8.4-11.37-11.22-4.89-2.79-10.08-4.2-15.57-4.2Z"/>
      <path class="cls-2" d="m2364.56,497.94l-5.75,4.41c-3.16-4.13-6.97-7.25-11.41-9.38-4.42-2.13-9.31-3.19-14.6-3.19-5.8,0-11.19,1.4-16.12,4.19-4.95,2.78-8.79,6.51-11.51,11.21-2.71,4.7-4.08,9.98-4.08,15.87,0,8.86,3.05,16.25,9.12,22.19,6.1,5.93,13.77,8.91,23.04,8.91,10.19,0,18.71-3.99,25.56-11.97l5.75,4.36c-3.64,4.63-8.15,8.19-13.59,10.72-5.43,2.5-11.48,3.78-18.17,3.78-12.73,0-22.78-4.24-30.13-12.71-6.15-7.16-9.25-15.8-9.25-25.92,0-10.65,3.74-19.61,11.22-26.88,7.46-7.27,16.82-10.91,28.06-10.91,6.8,0,12.91,1.35,18.4,4.03,5.48,2.68,9.95,6.45,13.46,11.3Z"/>
      <path class="cls-2" d="m2381.04,484.44h7.28v72.75h-7.28v-72.75Z"/>
      <path class="cls-2" d="m2444,482.61c11.04,0,20.26,3.67,27.67,11.03,7.43,7.35,11.15,16.4,11.15,27.15s-3.73,19.68-11.12,27.11c-7.42,7.41-16.45,11.12-27.1,11.12s-19.9-3.69-27.32-11.07c-7.43-7.4-11.13-16.32-11.13-26.82,0-6.99,1.7-13.47,5.06-19.44,3.39-5.95,7.99-10.63,13.83-14.02,5.85-3.37,12.16-5.06,18.95-5.06Zm.33,7.07c-5.38,0-10.49,1.4-15.31,4.2-4.82,2.82-8.58,6.59-11.29,11.34-2.71,4.77-4.06,10.05-4.06,15.9,0,8.65,3,15.94,8.98,21.9,6.01,5.95,13.24,8.92,21.68,8.92,5.64,0,10.87-1.35,15.68-4.09,4.82-2.76,8.57-6.49,11.25-11.24,2.68-4.76,4.04-10.04,4.04-15.85s-1.36-10.98-4.04-15.67c-2.68-4.66-6.49-8.4-11.38-11.22-4.88-2.79-10.06-4.2-15.55-4.2Zm3.61-26.22h10.64l-14.6,15.24h-6.83l10.79-15.24Z"/>
      <path class="cls-2" d="m2501.33,557.19v-72.75h1.58l48.41,55.77v-55.77h7.18v72.75h-1.63l-48.01-55.08v55.08h-7.52Z"/>
      <path class="cls-2" d="m2610.33,557.19v-72.75h15.09c10.87,0,18.77.88,23.69,2.61,7.05,2.48,12.57,6.76,16.55,12.87,3.97,6.12,5.95,13.37,5.95,21.81,0,7.28-1.58,13.7-4.73,19.24-3.14,5.53-7.22,9.63-12.26,12.26-5.02,2.64-12.08,3.96-21.14,3.96h-23.13Zm6.96-6.87h8.4c10.07,0,17.04-.63,20.93-1.89,5.47-1.77,9.77-4.97,12.89-9.6,3.16-4.63,4.72-10.29,4.72-16.98,0-7.02-1.7-13-5.11-17.99-3.4-4.97-8.12-8.38-14.2-10.22-4.54-1.39-12.04-2.08-22.5-2.08h-5.14v58.76Z"/>
      <path class="cls-2" d="m2689.87,484.44h41.69v7.12h-34.42v22.8h34.13v7.11h-34.13v28.59h34.13v7.12h-41.4v-72.75Z"/>
      <path class="cls-2" d="m2846.01,497.94l-5.72,4.41c-3.17-4.13-6.96-7.25-11.41-9.38-4.44-2.13-9.31-3.19-14.63-3.19-5.79,0-11.15,1.4-16.13,4.19-4.93,2.78-8.76,6.51-11.48,11.21-2.72,4.7-4.07,9.98-4.07,15.87,0,8.86,3.02,16.25,9.11,22.19,6.09,5.93,13.76,8.91,23.01,8.91,10.21,0,18.72-3.99,25.59-11.97l5.72,4.36c-3.63,4.63-8.15,8.19-13.57,10.72-5.42,2.5-11.5,3.78-18.19,3.78-12.72,0-22.76-4.24-30.11-12.71-6.18-7.16-9.26-15.8-9.26-25.92,0-10.65,3.75-19.61,11.21-26.88,7.47-7.27,16.82-10.91,28.08-10.91,6.77,0,12.92,1.35,18.38,4.03,5.47,2.68,9.96,6.45,13.46,11.3Z"/>
      <path class="cls-2" d="m2892.6,484.44l33.92,72.75h-7.84l-11.46-23.92h-31.34l-11.32,23.92h-8.12l34.37-72.75h1.79Zm-.93,15.46l-12.46,26.32h24.88l-12.42-26.32Z"/>
      <path class="cls-2" d="m2934.61,543.63l6.19-3.7c4.36,8.02,9.37,12.01,15.09,12.01,2.43,0,4.73-.57,6.87-1.7,2.15-1.13,3.78-2.64,4.9-4.58,1.12-1.91,1.69-3.94,1.69-6.07,0-2.44-.83-4.83-2.48-7.18-2.27-3.22-6.44-7.12-12.47-11.67-6.06-4.58-9.83-7.9-11.32-9.94-2.57-3.42-3.85-7.13-3.85-11.11,0-3.17.76-6.06,2.27-8.67,1.51-2.6,3.64-4.65,6.39-6.14,2.75-1.52,5.75-2.26,8.99-2.26,3.41,0,6.64.84,9.6,2.55,3,1.7,6.15,4.81,9.49,9.37l-5.94,4.5c-2.73-3.63-5.07-6.03-7-7.18-1.93-1.15-4.03-1.72-6.3-1.72-2.94,0-5.34.88-7.21,2.67-1.85,1.76-2.79,3.97-2.79,6.56,0,1.59.34,3.12.98,4.62.67,1.49,1.87,3.1,3.61,4.84.97.93,4.09,3.36,9.39,7.26,6.31,4.66,10.64,8.8,12.97,12.43,2.34,3.63,3.51,7.26,3.51,10.93,0,5.28-2.01,9.86-6.01,13.75-4,3.9-8.88,5.84-14.61,5.84-4.43,0-8.43-1.18-12.02-3.54-3.6-2.36-6.9-6.32-9.94-11.85Z"/>
      <path class="cls-2" d="m3024.07,484.44l33.93,72.75h-7.86l-11.44-23.92h-31.34l-11.34,23.92h-8.11l34.37-72.75h1.78Zm-.92,15.46l-12.47,26.32h24.87l-12.4-26.32Z"/>
      <path class="cls-2" d="m3066.08,543.63l6.2-3.7c4.35,8.02,9.38,12.01,15.1,12.01,2.42,0,4.72-.57,6.85-1.7,2.16-1.13,3.79-2.64,4.9-4.58,1.13-1.91,1.7-3.94,1.7-6.07,0-2.44-.83-4.83-2.49-7.18-2.27-3.22-6.43-7.12-12.46-11.67-6.06-4.58-9.84-7.9-11.33-9.94-2.56-3.42-3.85-7.13-3.85-11.11,0-3.17.76-6.06,2.28-8.67,1.51-2.6,3.64-4.65,6.4-6.14,2.75-1.52,5.74-2.26,8.97-2.26,3.43,0,6.65.84,9.63,2.55,3,1.7,6.14,4.81,9.47,9.37l-5.93,4.5c-2.74-3.63-5.08-6.03-7-7.18-1.92-1.15-4.03-1.72-6.3-1.72-2.94,0-5.36.88-7.21,2.67-1.85,1.76-2.78,3.97-2.78,6.56,0,1.59.33,3.12.98,4.62.68,1.49,1.88,3.1,3.62,4.84.96.93,4.09,3.36,9.39,7.26,6.3,4.66,10.64,8.8,12.98,12.43,2.34,3.63,3.51,7.26,3.51,10.93,0,5.28-2.01,9.86-6.02,13.75-3.99,3.9-8.88,5.84-14.6,5.84-4.42,0-8.43-1.18-12.02-3.54-3.6-2.36-6.91-6.32-9.95-11.85Z"/>
    </g>
    <g>
      <g>
        <path class="cls-3" d="m1105.1,212.26l-31.64,30.16c-21.53-22.75-45.74-34.13-72.65-34.13-22.7,0-41.84,7.77-57.39,23.3-15.56,15.52-23.33,34.66-23.33,57.42,0,15.85,3.45,29.91,10.33,42.2,6.89,12.3,16.63,21.94,29.23,28.96,12.59,7,26.58,10.5,41.97,10.5,13.13,0,25.13-2.43,36.01-7.36,10.86-4.9,22.81-13.83,35.84-26.77l30.66,32.01c-17.55,17.14-34.14,29.01-49.76,35.65-15.62,6.62-33.45,9.93-53.48,9.93-36.95,0-67.2-11.71-90.74-35.14-23.54-23.43-35.3-53.46-35.3-90.08,0-23.7,5.36-44.77,16.07-63.18,10.72-18.42,26.07-33.23,46.05-44.43,19.99-11.21,41.5-16.81,64.55-16.81,19.61,0,38.49,4.15,56.63,12.42,18.16,8.28,33.8,20.05,46.95,35.34Z"/>
        <path class="cls-3" d="m1251.94,164.5c33.63,0,62.54,12.18,86.74,36.52,24.2,24.34,36.3,54.02,36.3,89.04s-11.93,64.03-35.81,88.05c-23.88,24.03-52.84,36.04-86.91,36.04s-65.32-12.33-88.93-37.01c-23.6-24.66-35.41-53.97-35.41-87.9,0-22.72,5.5-43.63,16.49-62.69,11-19.07,26.11-34.17,45.35-45.32,19.24-11.15,39.96-16.73,62.17-16.73Zm-.48,44.27c-22.01,0-40.5,7.65-55.48,22.95-14.99,15.29-22.48,34.74-22.48,58.33,0,26.28,9.44,47.06,28.3,62.36,14.67,11.96,31.49,17.94,50.47,17.94,21.46,0,39.73-7.75,54.83-23.26,15.1-15.51,22.65-34.63,22.65-57.37s-7.6-41.76-22.81-57.43c-15.21-15.68-33.7-23.53-55.47-23.53Z"/>
        <path class="cls-3" d="m1404.23,170.48h43.39l101.7,156.41v-156.41h45.25v237.68h-43.51l-101.58-155.93v155.93h-45.24v-237.68Z"/>
        <path class="cls-3" d="m1650.04,170.48h47.99c25.96,0,44.67,2.4,56.14,7.2,11.47,4.8,20.52,12.55,27.15,23.27,6.62,10.72,9.95,23.56,9.95,38.52,0,16.59-4.34,30.39-13.01,41.37-8.68,10.99-20.44,18.64-35.29,22.95-8.73,2.47-24.62,3.72-47.67,3.72v100.66h-45.25v-237.68Zm45.25,92.91h14.38c11.3,0,19.18-.81,23.59-2.42,4.43-1.62,7.89-4.29,10.43-8.03,2.52-3.73,3.8-8.25,3.8-13.54,0-9.19-3.56-15.89-10.66-20.1-5.18-3.13-14.76-4.7-28.77-4.7h-12.76v48.79Z"/>
        <path class="cls-3" d="m1820.4,170.48h47.93c26.25,0,44.96,2.35,56.09,7.04,11.13,4.68,20.09,12.46,26.87,23.33,6.77,10.88,10.17,23.76,10.17,38.61,0,15.62-3.74,28.7-11.23,39.2-7.48,10.5-18.77,18.43-33.85,23.82l56.31,105.68h-49.46l-53.46-100.66h-4.14v100.66h-45.25v-237.68Zm45.25,92.91h14.17c14.39,0,24.3-1.88,29.72-5.67,5.42-3.78,8.14-10.06,8.14-18.8,0-5.19-1.35-9.69-4.04-13.53-2.68-3.85-6.28-6.59-10.79-8.28-4.5-1.66-12.77-2.51-24.8-2.51h-12.4v48.79Z"/>
        <path class="cls-3" d="m2106.6,164.5c33.63,0,62.55,12.18,86.75,36.52,24.21,24.34,36.3,54.02,36.3,89.04s-11.94,64.03-35.81,88.05c-23.89,24.03-52.86,36.04-86.92,36.04s-65.32-12.33-88.93-37.01c-23.6-24.66-35.4-53.97-35.4-87.9,0-22.72,5.5-43.63,16.47-62.69,11-19.07,26.13-34.17,45.37-45.32,19.23-11.15,39.95-16.73,62.16-16.73Zm-.48,44.27c-22,0-40.49,7.65-55.48,22.95-14.99,15.29-22.48,34.74-22.48,58.33,0,26.28,9.42,47.06,28.3,62.36,14.67,11.96,31.49,17.94,50.47,17.94,21.45,0,39.73-7.75,54.83-23.26,15.1-15.51,22.66-34.63,22.66-57.37s-7.61-41.76-22.82-57.43c-15.19-15.68-33.7-23.53-55.47-23.53Z"/>
      </g>
      <g>
        <path class="cls-1" d="m2484.15,212.26l-31.63,30.16c-21.53-22.75-45.75-34.13-72.66-34.13-22.71,0-41.83,7.77-57.38,23.3-15.56,15.52-23.33,34.66-23.33,57.42,0,15.85,3.44,29.91,10.34,42.2,6.87,12.3,16.63,21.94,29.21,28.96,12.6,7,26.59,10.5,41.97,10.5,13.14,0,25.14-2.43,35.99-7.36,10.88-4.9,22.82-13.83,35.86-26.77l30.66,32.01c-17.56,17.14-34.15,29.01-49.77,35.65-15.62,6.62-33.44,9.93-53.48,9.93-36.95,0-67.19-11.71-90.72-35.14-23.54-23.43-35.32-53.46-35.32-90.08,0-23.7,5.36-44.77,16.08-63.18,10.71-18.42,26.07-33.23,46.05-44.43,19.98-11.21,41.49-16.81,64.54-16.81,19.62,0,38.5,4.15,56.66,12.42,18.14,8.28,33.79,20.05,46.92,35.34Z"/>
        <path class="cls-1" d="m2596.26,170.48h45.89l91.42,237.68h-47.02l-18.6-48.96h-96.99l-19.33,48.96h-47.03l91.66-237.68Zm23.23,63.02l-31.89,81.59h63.57l-31.68-81.59Z"/>
        <path class="cls-1" d="m2893.28,202.8l-33.5,29.57c-11.76-16.37-23.76-24.56-35.94-24.56-5.92,0-10.79,1.6-14.55,4.77-3.8,3.17-5.68,6.75-5.68,10.74s1.35,7.76,4.06,11.31c3.66,4.74,14.72,14.92,33.18,30.55,17.25,14.43,27.72,23.53,31.41,27.3,9.17,9.26,15.67,18.13,19.49,26.59,3.84,8.46,5.75,17.69,5.75,27.7,0,19.5-6.74,35.6-20.22,48.31-13.48,12.72-31.05,19.07-52.73,19.07-16.92,0-31.69-4.15-44.23-12.44-12.56-8.29-23.32-21.33-32.27-39.1l38.02-22.95c11.46,21.01,24.62,31.51,39.5,31.51,7.75,0,14.29-2.27,19.59-6.79,5.27-4.52,7.91-9.75,7.91-15.68,0-5.38-1.99-10.77-5.97-16.16-4-5.38-12.81-13.62-26.39-24.72-25.89-21.11-42.63-37.4-50.18-48.87-7.56-11.47-11.33-22.92-11.33-34.34,0-16.48,6.29-30.62,18.85-42.41,12.56-11.8,28.06-17.7,46.51-17.7,11.85,0,23.17,2.75,33.88,8.24,10.74,5.49,22.36,15.51,34.87,30.05Z"/>
        <path class="cls-1" d="m3001.55,170.48h45.9l91.41,237.68h-47.01l-18.6-48.96h-96.99l-19.33,48.96h-47.03l91.66-237.68Zm23.24,63.02l-31.89,81.59h63.57l-31.69-81.59Z"/>
      </g>
    </g>
  </g>
</svg>