<?xml version="1.0" encoding="UTF-8"?><svg id="Capa_1" xmlns="http://www.w3.org/2000/svg" viewBox="0 0 300 231"><defs><style>.cls-1{fill:#3c3c3b;}.cls-2{fill:#83a42a;}</style></defs><path class="cls-2" d="m183.43,13.52c-12.86.37-23.62,4.65-32.39,11.7-9.9,7.26-17.28,17.96-18.19,39.09-.83,19.46-4.76,30.25-11.44,36.1-2.79,2.28-5.99,4.06-9.43,5.23-5.36,1.65-10.53,1.52-13.86,1.13-13.6-2.25-23.98-14.03-23.98-28.26,0-15.84,12.84-28.67,28.68-28.67,4.35,0,8.45.99,12.15,2.73l5.79-9.02c-5.27-2.71-11.24-4.24-17.56-4.24-21.28,0-38.53,17.25-38.53,38.52s17.25,38.53,38.53,38.53c.22,0,.44-.03.66-.03,5.88-.03,13.31-1.37,20.4-6.27,7.81-5.13,13.66-12.99,16.13-22.25,2.49-7.53,2.84-14.81,3.39-21.59,0-.15,0-.29,0-.43,0-21.46,17.4-38.87,38.87-38.87s38.86,17.4,38.86,38.87c0,.13,0,.25,0,.38,0,.02,0,.05,0,.08,0,21.3-17.27,38.58-38.57,38.58-5.21,0-10.15-1.07-14.68-2.94-.52-.21-1.02-.42-1.52-.65-.16-.08-.33-.14-.48-.22-3-1.39-5.78-3.15-8.3-5.22l-9.66,7.6c9.24,8.53,21.58,13.76,35.15,13.76,28.62,0,51.82-23.2,51.82-51.82s-23.21-52.64-51.82-51.82"/><polygon class="cls-2" points="98.89 131.76 98.89 99.89 84.22 86.76 87.97 81.99 98.94 91.31 98.94 74.49 105.03 74.49 105.03 91.31 116.27 80.28 120.36 84.72 105.03 99.89 105.03 131.85 98.89 131.76"/><polygon class="cls-2" points="181.39 131.76 181.39 86.31 166.73 73.18 170.48 68.41 181.45 77.73 181.45 61.62 187.53 61.62 187.53 77.73 198.78 66.7 202.87 71.13 187.53 86.31 187.53 131.85 181.39 131.76"/><path class="cls-1" d="m42.66,167.15h6.04v17.16c-4.4,3.71-10.5,5.59-16.66,5.59-13.51,0-23.45-9.49-23.45-22.5s9.94-22.5,23.58-22.5c6.97,0,12.89,2.33,16.91,6.79l-3.9,3.9c-3.64-3.52-7.79-5.09-12.76-5.09-10.18,0-17.54,7.11-17.54,16.91s7.36,16.91,17.48,16.91c3.71,0,7.17-.82,10.31-2.83v-14.34Z"/><polygon class="cls-1" points="94.21 183.93 94.21 189.4 62.27 189.4 62.27 145.39 93.33 145.39 93.33 150.86 68.56 150.86 68.56 164.38 90.62 164.38 90.62 169.73 68.56 169.73 68.56 183.93 94.21 183.93"/><polygon class="cls-1" points="143.56 145.39 124.26 189.4 118.04 189.4 98.67 145.39 105.46 145.39 121.3 181.54 137.27 145.39 143.56 145.39"/><path class="cls-1" d="m146.7,167.4c0-12.89,9.93-22.5,23.45-22.5s23.33,9.55,23.33,22.5-9.93,22.5-23.33,22.5-23.45-9.62-23.45-22.5m40.48,0c0-9.74-7.29-16.91-17.04-16.91s-17.16,7.17-17.16,16.91,7.3,16.91,17.16,16.91,17.04-7.17,17.04-16.91"/><path class="cls-1" d="m234.08,189.4l-9.49-13.52c-.89.07-1.82.13-2.77.13h-10.88v13.39h-6.28v-44.01h17.16c11.44,0,18.35,5.78,18.35,15.34,0,6.79-3.52,11.69-9.68,13.89l10.44,14.77h-6.86Zm-.19-28.67c0-6.29-4.21-9.87-12.26-9.87h-10.69v19.8h10.69c8.05,0,12.26-3.64,12.26-9.93"/><path class="cls-1" d="m279.97,178.4h-23.39l-4.84,11.01h-6.48l19.93-44.01h6.23l19.99,44.01h-6.6l-4.84-11.01Zm-2.2-5.03l-9.49-21.56-9.5,21.56h18.99Z"/><path class="cls-1" d="m75.29,217.41l-2.99-4.19c-.39.06-.79.09-1.21.09h-3.58v4.09h-.91v-12.51h4.49c3.15,0,5.04,1.57,5.04,4.22,0,1.98-1.07,3.36-2.93,3.91l3.13,4.38h-1.03Zm-4.2-4.9c2.68,0,4.11-1.25,4.11-3.4s-1.43-3.4-4.11-3.4h-3.58v6.79h3.58Z"/><polygon class="cls-1" points="91.67 216.59 91.67 217.41 83.04 217.41 83.04 204.9 91.4 204.9 91.4 205.72 83.96 205.72 83.96 210.65 90.61 210.65 90.61 211.46 83.96 211.46 83.96 216.59 91.67 216.59"/><path class="cls-1" d="m97.3,215.8l.41-.68c.86.9,2.44,1.57,4.13,1.57,2.5,0,3.61-1.09,3.61-2.44,0-3.76-7.81-1.5-7.81-6.12,0-1.77,1.36-3.32,4.44-3.32,1.37,0,2.8.43,3.77,1.13l-.34.74c-1.04-.72-2.3-1.06-3.43-1.06-2.43,0-3.52,1.13-3.52,2.5,0,3.76,7.81,1.54,7.81,6.08,0,1.77-1.41,3.31-4.5,3.31-1.86,0-3.65-.69-4.56-1.7"/><rect class="cls-1" x="113.03" y="204.9" width=".91" height="12.51"/><path class="cls-1" d="m121.88,204.9h4.95c3.96,0,6.65,2.6,6.65,6.26s-2.69,6.26-6.65,6.26h-4.95v-12.51Zm4.88,11.69c3.54,0,5.81-2.25,5.81-5.43s-2.27-5.44-5.81-5.44h-3.97v10.87h3.97Z"/><polygon class="cls-1" points="148.85 216.59 148.85 217.41 140.21 217.41 140.21 204.9 148.57 204.9 148.57 205.72 141.13 205.72 141.13 210.65 147.79 210.65 147.79 211.46 141.13 211.46 141.13 216.59 148.85 216.59"/><polygon class="cls-1" points="165.93 204.9 165.93 217.41 165.18 217.41 156.65 206.55 156.65 217.41 155.74 217.41 155.74 204.9 156.51 204.9 165.02 215.76 165.02 204.9 165.93 204.9"/><path class="cls-1" d="m172.67,211.16c0-3.65,2.77-6.35,6.49-6.35,1.77,0,3.36.58,4.45,1.74l-.57.59c-1.07-1.06-2.38-1.48-3.84-1.48-3.2,0-5.62,2.36-5.62,5.51s2.42,5.51,5.62,5.51c1.46,0,2.77-.45,3.84-1.5l.57.59c-1.09,1.16-2.68,1.75-4.45,1.75-3.72,0-6.49-2.7-6.49-6.34"/><rect class="cls-1" x="190.24" y="204.9" width=".91" height="12.51"/><path class="cls-1" d="m206.82,213.89h-7.25l-1.59,3.52h-.98l5.75-12.51h.91l5.76,12.51h-.98l-1.61-3.52Zm-.34-.77l-3.29-7.22-3.27,7.22h6.56Z"/><polygon class="cls-1" points="215.26 204.9 216.17 204.9 216.17 216.59 223.37 216.59 223.37 217.41 215.26 217.41 215.26 204.9"/></svg>