<?xml version="1.0" encoding="UTF-8"?><svg id="Capa_1" xmlns="http://www.w3.org/2000/svg" viewBox="0 0 300 169"><defs><style>.cls-1{fill:#7eb1b6;}.cls-2{fill:#855fa0;}.cls-3{fill:#47959e;}.cls-4{fill:#25888f;}.cls-5{fill:#754b95;}.cls-6{fill:#a986b8;}.cls-7{fill:#007b87;}.cls-8{fill:#5a2b87;}</style></defs><path class="cls-7" d="m61.35,156.28l-3.63-4.87h-3.59v4.87h-1.41v-12.54h5.39c2.76,0,4.53,1.49,4.53,3.74,0,2.09-1.43,3.31-3.4,3.67l3.85,5.12h-1.74Zm-3.35-11.23h-3.87v5.09h3.86c1.88,0,3.22-.97,3.22-2.6s-1.18-2.49-3.2-2.49"/><polygon class="cls-7" points="81.89 145.04 74.25 145.04 74.25 149.31 81.09 149.31 81.09 150.61 74.25 150.61 74.25 155 81.98 155 81.98 156.28 72.83 156.28 72.83 143.75 81.89 143.75 81.89 145.04"/><path class="cls-7" d="m96.48,149.33c2.79.61,4.08,1.63,4.08,3.56,0,2.17-1.79,3.57-4.28,3.57-1.99,0-3.62-.67-5.12-2l.88-1.04c1.31,1.18,2.56,1.77,4.3,1.77s2.79-.88,2.79-2.15c0-1.18-.63-1.84-3.26-2.4-2.88-.62-4.21-1.55-4.21-3.63s1.74-3.44,4.12-3.44c1.83,0,3.13.52,4.4,1.54l-.82,1.09c-1.16-.95-2.33-1.36-3.62-1.36-1.63,0-2.67.89-2.67,2.04,0,1.2.65,1.86,3.4,2.46"/><rect class="cls-7" x="110.74" y="143.75" width="1.41" height="12.54"/><path class="cls-7" d="m127.34,156.28h-4.35v-12.54h4.35c3.94,0,6.66,2.7,6.66,6.25s-2.72,6.29-6.66,6.29m0-11.23h-2.94v9.93h2.94c3.17,0,5.19-2.15,5.19-4.94s-2.02-4.98-5.19-4.98"/><polygon class="cls-7" points="153.21 145.04 145.56 145.04 145.56 149.31 152.41 149.31 152.41 150.61 145.56 150.61 145.56 155 153.3 155 153.3 156.28 144.15 156.28 144.15 143.75 153.21 143.75 153.21 145.04"/><polygon class="cls-7" points="172.53 143.75 173.91 143.75 173.91 156.28 172.78 156.28 164.68 146 164.68 156.28 163.31 156.28 163.31 143.75 164.63 143.75 172.53 153.8 172.53 143.75"/><path class="cls-7" d="m190.35,156.5c-3.62,0-6.29-2.85-6.29-6.46s2.65-6.5,6.33-6.5c2.28,0,3.64.81,4.9,1.99l-.97,1.04c-1.06-1-2.24-1.71-3.94-1.71-2.78,0-4.85,2.24-4.85,5.16s2.09,5.19,4.85,5.19c1.72,0,2.85-.66,4.05-1.81l.93.91c-1.31,1.33-2.74,2.2-5.02,2.2"/><rect class="cls-7" x="205.12" y="143.75" width="1.42" height="12.54"/><path class="cls-7" d="m229.04,156.28h-1.52l-1.47-3.31h-6.82l-1.49,3.31h-1.45l5.72-12.63h1.32l5.72,12.63Zm-6.4-10.98l-2.87,6.39h5.72l-2.85-6.39Z"/><polygon class="cls-7" points="238.67 143.75 240.09 143.75 240.09 154.98 247.15 154.98 247.15 156.28 238.67 156.28 238.67 143.75"/><path class="cls-8" d="m27.91,78.11l-20.99,52.02,5.81,1.14,7-18.57h21.01l7.15,18.57,5.8-1.14-20.84-52.02h-4.93Zm10.84,29.54h-16.98l6.61-16.54c.59-1.47,1.11-2.84,1.54-4.06.12-.34.24-.68.36-1.04.1.31.2.62.3.93.38,1.22.93,2.71,1.62,4.4l6.54,16.32Z"/><path class="cls-8" d="m68.95,125.17c-1.22-.44-2.23-1.09-3.04-1.94-.47-.47-.87-1.03-1.19-1.66-.33-.63-.6-1.47-.81-2.49-.22-1.09-.39-2.46-.51-4.1-.12-1.64-.19-3.75-.19-6.26v-33.75h-5.65v36.43c0,3.17.19,6.07.57,8.62.4,2.7,1.53,5.06,3.35,6.98.77.82,1.67,1.52,2.68,2.06.97.53,1.95.94,2.91,1.24.93.28,1.8.49,2.59.62.82.14,1.46.2,1.95.2h.89l.6-5.27h-1.12c-.77,0-1.8-.23-3.05-.68"/><path class="cls-8" d="m94.11,97.48l1.25-4.9h-11.62v-8.26l-5.65,1.73v6.53h-6.34l-1.25,4.9h7.59v21.46c0,1.76.19,3.47.55,5.07.38,1.71,1.09,3.14,2.07,4.23,1.68,2.02,4.18,3.04,7.41,3.04,1.25,0,2.39-.1,3.38-.32.97-.21,1.81-.45,2.5-.72l.75-.29-.76-4.82-1.13.41c-.49.18-1.09.33-1.76.44-.68.11-1.56.17-2.59.17-1.82,0-3.01-.56-3.65-1.72-.73-1.34-1.1-3.03-1.1-5.04v-21.91h10.37Z"/><path class="cls-8" d="m128.81,124.84c-.31-1.36-.46-2.74-.46-4.11v-12.98c0-1.43-.14-3.08-.43-4.9-.29-1.88-.93-3.66-1.92-5.28-1-1.65-2.49-3.07-4.41-4.19-1.94-1.13-4.54-1.7-7.74-1.7-1.04,0-2.12.08-3.2.24l-1.02.15.18,1.01c.15.82.3,1.81.44,2.94l.13.98.98-.12c.38-.05.75-.09,1.1-.11.35-.02.72-.03,1.09-.03,2.18,0,3.89.38,5.07,1.12,1.2.75,2.1,1.65,2.69,2.67.6,1.05.99,2.14,1.15,3.23.15,1.06.23,1.89.25,2.48-8,0-14.03,1.22-17.91,3.63-4.2,2.59-6.33,6.16-6.33,10.58,0,1.48.35,3,1.02,4.51.69,1.55,1.82,2.9,3.35,3.99.76.54,1.6,1.01,2.52,1.38.92.38,1.95.65,3.07.81h.22c.35.06.7.1,1.04.12.37.03.77.04,1.19.04,1.72,0,3.35-.21,4.82-.63,1.47-.42,2.8-.98,3.96-1.67,1.15-.68,2.16-1.42,3.01-2.22.27-.26.53-.51.76-.77l1.15,5.34,5.26-1.17-.16-.93c-.25-1.46-.54-2.93-.87-4.37m-6.11-13.57v6.63c0,.52-.13,1.1-.36,1.69-.32.73-.78,1.5-1.38,2.31-.58.78-1.34,1.5-2.24,2.13-.91.64-2.01,1.19-3.26,1.63-1.23.43-2.68.65-4.3.65-1.88,0-3.47-.54-4.87-1.65-1.33-1.05-1.97-2.66-1.97-4.89,0-1.83.52-3.25,1.58-4.34,1.13-1.15,2.61-2.05,4.39-2.67,1.85-.64,3.97-1.06,6.28-1.25,1.9-.15,3.82-.24,5.71-.24.14,0,.28,0,.42,0"/><path class="cls-8" d="m196.72,127.72c-.3-.7-.66-1.65-1.05-2.83-.36-1.09-.55-2.06-.55-2.9v-12.61c0-3.85-.54-6.99-1.62-9.33-1.08-2.33-2.39-4.15-3.89-5.38-1.5-1.24-3.07-2.05-4.65-2.44-1.54-.37-2.73-.55-3.66-.55-2.36,0-4.36.32-5.96.97-1.6.64-3.09,1.58-4.45,2.78-.75.64-1.46,1.4-2.13,2.28-.32.42-.63.88-.93,1.36-.3-.58-.63-1.15-1-1.7-.75-1.09-1.63-2.07-2.64-2.92-1.03-.87-2.22-1.55-3.54-2.04-1.33-.49-2.76-.73-4.27-.73-3.48,0-6.36.82-8.54,2.44-1.36,1.01-2.58,2.2-3.64,3.55l-.22-5.09h-5.45l.07,1.06c.1,1.42.17,2.87.22,4.29.05,1.44.08,2.89.08,4.3v28.15h5.65v-22.78c0-.58.06-1.14.16-1.67.11-.53.26-1.03.44-1.47.36-.91.88-1.85,1.53-2.78.64-.91,1.41-1.74,2.28-2.45.86-.7,1.86-1.3,2.96-1.75,1.07-.44,2.22-.67,3.42-.67,2.74,0,4.85.94,6.43,2.88,1.6,1.97,2.42,4.63,2.42,7.91v22.78h5.64v-23.82c0-.61.07-1.17.19-1.65.14-.54.3-1.04.47-1.45.36-.82.86-1.64,1.48-2.44.61-.8,1.34-1.52,2.16-2.13.82-.61,1.74-1.12,2.75-1.51.97-.38,2.03-.56,3.15-.56,3.13,0,5.43,1.06,7.03,3.24.77,1.05,1.37,2.34,1.78,3.85.42,1.55.63,3.42.63,5.56v1.26c0,.85.01,1.92.04,3.19.02,1.26.04,2.61.04,4.05v4.03c0,1.73.2,3.35.59,4.81.39,1.47.76,2.55,1.1,3.3.33.71.52,1.12.57,1.22l.42.82,5.5-2.25-.48-.96c-.05-.1-.23-.51-.53-1.22"/><path class="cls-8" d="m231.22,126.57c.21.82.58,2.08,1.14,3.86l.27.87,5.5-1.2-.47-1.11c-.52-1.23-.94-2.59-1.25-4.03-.31-1.44-.46-2.86-.46-4.23v-28.15h-5.65v22.71c0,.71-.08,1.4-.24,2.04-.15.66-.35,1.24-.57,1.73-.86,1.91-2.31,3.59-4.29,4.97-1.96,1.36-4.22,2.06-6.74,2.06-1.83,0-3.37-.31-4.59-.94-1.21-.62-2.22-1.49-2.99-2.59-.79-1.13-1.36-2.51-1.71-4.11-.36-1.66-.54-3.53-.54-5.54v-20.32h-5.65v21.07c0,3.95.55,7.13,1.62,9.44,1.08,2.32,2.42,4.13,3.98,5.36,1.56,1.24,3.2,2.03,4.87,2.36,1.57.31,2.93.47,4.03.47,1.88,0,3.64-.25,5.22-.75,1.58-.5,3-1.17,4.21-1.99,1.21-.81,2.28-1.75,3.18-2.78.29-.33.56-.67.82-1,.1.64.19,1.23.3,1.82"/><path class="cls-8" d="m263.15,97.1c.25,0,.51.04.77.11l1.26.36v-5.44l-.73-.2c-.63-.17-1.29-.26-1.98-.26-2.92,0-5.43.9-7.47,2.67-1.08.93-2.02,2.02-2.79,3.25l-.1-5.03h-5.38l.06,1.04c.1,1.95.17,3.89.22,5.76.05,1.92.07,3.86.07,5.75v25.24h5.65v-20.39c0-1.13.12-2.24.36-3.32.56-2.93,1.67-5.3,3.29-7.04,1.59-1.7,3.46-2.52,5.73-2.52h1.05Z"/><path class="cls-8" d="m292.92,129.22c-.25-1.45-.54-2.92-.86-4.37-.31-1.36-.46-2.75-.46-4.11v-12.98c0-1.43-.14-3.08-.42-4.9-.29-1.88-.94-3.66-1.92-5.28-1-1.65-2.49-3.07-4.42-4.19-1.94-1.13-4.54-1.7-7.73-1.7-1.04,0-2.12.08-3.2.24l-1.02.15.18,1.01c.15.84.3,1.82.44,2.94l.13.98.98-.12c.38-.05.75-.09,1.1-.11.35-.02.71-.03,1.09-.03,2.19,0,3.89.38,5.06,1.12,1.2.75,2.11,1.65,2.69,2.67.6,1.05.99,2.14,1.15,3.23.15,1.06.23,1.89.25,2.47-8,0-14.03,1.22-17.92,3.63-4.2,2.59-6.33,6.16-6.33,10.58,0,1.49.35,3,1.02,4.51.69,1.55,1.82,2.9,3.36,3.99.75.54,1.6,1.01,2.51,1.38.92.38,1.96.65,3.07.81h.22c.35.06.69.1,1.04.12.37.03.76.04,1.19.04,1.72,0,3.35-.21,4.82-.63,1.47-.42,2.8-.98,3.97-1.67,1.15-.68,2.16-1.42,3.01-2.22.27-.26.53-.51.77-.77l1.15,5.33,5.26-1.17-.17-.93Zm-6.97-17.94v6.63c0,.52-.12,1.1-.36,1.69-.32.73-.78,1.5-1.38,2.31-.58.78-1.33,1.5-2.23,2.13-.91.64-2.01,1.19-3.26,1.63-1.23.43-2.67.65-4.29.65-1.87,0-3.46-.54-4.87-1.65-1.33-1.05-1.97-2.66-1.97-4.89,0-1.83.52-3.25,1.58-4.34,1.13-1.15,2.61-2.05,4.39-2.67,1.85-.64,3.97-1.06,6.28-1.25,1.9-.15,3.82-.24,5.71-.24.14,0,.28,0,.42,0"/><rect class="cls-3" x="135.66" y="56.6" width="14.34" height="14.33"/><rect class="cls-7" x="164.88" y="41.72" width="14.33" height="14.34"/><rect class="cls-8" x="120.79" y="27.38" width="14.34" height="14.34"/><rect class="cls-2" x="150" y="12.5" width="14.34" height="14.34"/><polygon class="cls-4" points="164.88 56.06 150 70.93 150 56.6 164.88 41.72 164.88 56.06"/><polygon class="cls-5" points="150 26.84 135.12 41.72 135.12 27.38 150 12.5 150 26.84"/><polygon class="cls-1" points="135.66 56.6 120.79 41.72 135.12 41.72 150 56.6 135.66 56.6"/><polygon class="cls-6" points="164.88 41.72 150 26.84 164.34 26.84 179.21 41.72 164.88 41.72"/></svg>