<?xml version="1.0" encoding="UTF-8"?><svg id="Capa_1" xmlns="http://www.w3.org/2000/svg" viewBox="0 0 300 210"><defs><style>.cls-1{fill:#434041;}.cls-2{fill:#6abf4b;}.cls-2,.cls-3{fill-rule:evenodd;}.cls-3{fill:#47763b;}</style></defs><polygon class="cls-1" points="30.89 170.43 7.4 107.87 16.3 107.87 33.16 152.72 50.05 107.87 58.99 107.87 35.42 170.43 30.89 170.43"/><path class="cls-1" d="m124.91,140.99v29.44h-8.41v-40.23h8.41v4.69c1.75-4.59,5.27-6.88,10.55-6.88,4.51,0,8.09,1.54,10.74,4.63,2.65,3.09,4.02,6.97,4.11,11.64v26.16h-8.37v-25.84c0-2.32-.88-4.31-2.64-5.96-1.75-1.66-3.84-2.48-6.27-2.48s-4.47.81-6.22,2.42c-.97.97-1.61,1.78-1.9,2.43"/><polygon class="cls-1" points="222.19 130.2 222.19 115.1 230.56 115.1 230.56 130.2 238.04 130.2 238.04 138.29 230.56 138.29 230.56 170.44 222.19 170.44 222.19 138.29 214.71 138.29 214.71 130.2 222.19 130.2"/><path class="cls-1" d="m269.59,126.91c6.36,0,11.79,2.17,16.27,6.53,4.49,4.35,6.73,9.6,6.73,15.76s-2.24,11.4-6.73,15.75c-4.49,4.36-9.91,6.53-16.27,6.53s-11.75-2.17-16.25-6.53c-4.5-4.35-6.76-9.6-6.76-15.75s2.25-11.41,6.76-15.76c4.5-4.36,9.91-6.53,16.25-6.53m-10.2,12.43c-2.82,2.74-4.23,6.02-4.23,9.86s1.41,7.14,4.23,9.85c2.81,2.71,6.22,4.07,10.2,4.07s7.4-1.35,10.21-4.07c2.82-2.71,4.23-5.99,4.23-9.85s-1.41-7.12-4.23-9.86c-2.81-2.74-6.22-4.1-10.21-4.1s-7.39,1.36-10.2,4.1"/><path class="cls-3" d="m129.53,54.64c-.1-5.84,1.1-11.78,4.04-16.82,4.34-7.44,11.94-12.26,19.27-16.79,5.41-3.34,10.82-6.68,16.23-10.03-.12,9.47-3.99,18.84-10.59,25.63-3.54,3.64-7.76,6.51-11.82,9.56-4.06,3.05-8.04,6.35-10.83,10.59-1.37,2.07-2.42,4.38-2.98,6.8-.5,2.1-.23,5.25-.4,6.83-1.83-4.9-2.81-10.53-2.9-15.76"/><path class="cls-2" d="m159.15,58.87c.1,5.84-1.1,11.79-4.03,16.83-4.34,7.44-11.95,12.25-19.27,16.78-5.41,3.35-10.82,6.69-16.22,10.04.12-9.47,4-18.84,10.59-25.63,3.54-3.64,7.77-6.51,11.82-9.57,4.07-3.04,8.04-6.35,10.83-10.58,1.36-2.07,2.41-4.38,2.97-6.8.49-2.1.22-5.25.4-6.83,1.83,4.91,2.82,10.53,2.9,15.76"/><path class="cls-3" d="m167.99,80.05c1.86-4.14,4.67-7.92,8.41-10.49,5.5-3.79,12.45-4.65,19.09-5.41l14.73-1.68c-3.22,6.62-9.05,11.91-15.93,14.5-3.69,1.39-7.62,2.01-11.48,2.8-3.85.8-7.75,1.8-11.11,3.85-1.64,1.01-3.14,2.28-4.34,3.79-1.05,1.31-1.9,3.61-2.55,4.67.34-4.07,1.51-8.33,3.18-12.04"/><path class="cls-2" d="m181.34,94.45c-1.86,4.14-4.67,7.92-8.41,10.49-5.51,3.79-12.45,4.65-19.09,5.42-4.91.55-9.82,1.12-14.72,1.68,3.22-6.62,9.04-11.91,15.93-14.5,3.69-1.39,7.62-2.01,11.48-2.81,3.86-.79,7.75-1.8,11.12-3.86,1.65-1,3.14-2.27,4.34-3.78,1.04-1.31,1.9-3.62,2.54-4.67-.33,4.06-1.51,8.33-3.18,12.04"/><path class="cls-1" d="m57.94,184.78h-5.91c-.51,0-.92.41-.92.92v12.13c0,.51.42.92.92.92h.57c.51,0,.93-.41.93-.92v-3.04h3.69l2.13,3.52c.16.28.46.45.78.45h.67c.51,0,.92-.41.92-.92,0-.22-.08-.42-.2-.58l-1.69-2.81c.72-.27,1.35-.71,1.91-1.29.89-.96,1.34-2.08,1.34-3.36,0-1.39-.51-2.57-1.52-3.54-1-.97-2.22-1.46-3.62-1.46m0,7.61h-4.42v-5.21h4.42c.76,0,1.4.25,1.94.77.53.51.78,1.11.78,1.83s-.26,1.32-.79,1.83c-.54.53-1.17.78-1.93.78"/><path class="cls-1" d="m81.16,184.78h-7.72c-.51,0-.92.42-.92.92v12.13c0,.5.41.92.92.92h7.72c.51,0,.92-.42.92-.92v-.56c0-.51-.41-.92-.92-.92h-6.22v-3.38h5.49c.51,0,.92-.42.92-.92v-.55c0-.51-.41-.92-.92-.92h-5.49v-3.39h6.22c.51,0,.92-.41.92-.92v-.55c0-.5-.41-.92-.92-.92"/><path class="cls-1" d="m98.68,191.76c-.65-.45-1.53-.79-2.72-1.03l-.29-.05c-2.22-.4-2.27-1.34-2.3-1.7-.03-.5.11-.9.45-1.26.35-.39.76-.58,1.34-.62.26-.02.59,0,.98.1.79.18,1.43.52,1.96,1.06.35.36.92.37,1.29.03l.41-.39c.19-.17.3-.4.3-.65,0-.25-.09-.49-.27-.67-.86-.87-1.93-1.46-3.16-1.72-.48-.11-.94-.16-1.34-.16-.14,0-.27,0-.37.02-1.16.07-2.16.54-2.93,1.39-.79.87-1.15,1.88-1.08,3.03.09,1.39.85,3.18,3.98,3.84l.3.07c1.23.22,1.81.52,2.08.73.31.23.46.51.48.93.05.81-.28,1.18-.53,1.39-.37.31-.85.47-1.5.51-.25.02-.57-.01-.96-.1-.77-.17-1.4-.51-1.93-1.05-.34-.36-.91-.37-1.28-.04l-.42.38c-.18.16-.29.4-.3.65-.01.25.08.49.25.67,1.23,1.25,2.75,1.89,4.49,1.89.13,0,.24,0,.3-.01,1.2-.07,2.2-.47,2.99-1.17.92-.81,1.37-1.95,1.28-3.28-.08-1.16-.61-2.12-1.54-2.78"/><path class="cls-1" d="m111.35,184.78h-.58c-.51,0-.92.42-.92.92v12.13c0,.5.4.92.92.92h.58c.5,0,.92-.42.92-.92v-12.13c0-.5-.41-.92-.92-.92"/><path class="cls-1" d="m127.29,184.78h-4.01c-.51,0-.92.41-.92.92v12.12c0,.51.41.92.92.92h4.01c1.96,0,3.67-.68,5.07-2.03,1.41-1.36,2.12-3.03,2.12-4.95s-.71-3.58-2.12-4.95c-1.39-1.35-3.1-2.04-5.06-2.04m0,11.57h-2.51v-9.17h2.51c1.33,0,2.44.45,3.38,1.35.93.91,1.38,1.96,1.38,3.24s-.45,2.33-1.38,3.23c-.95.91-2.05,1.35-3.38,1.35"/><path class="cls-1" d="m152.64,184.78h-7.72c-.51,0-.92.42-.92.92v12.13c0,.5.4.92.92.92h7.72c.51,0,.92-.42.92-.92v-.56c0-.51-.41-.92-.92-.92h-6.22v-3.38h5.49c.51,0,.92-.42.92-.92v-.55c0-.51-.41-.92-.92-.92h-5.49v-3.39h6.22c.51,0,.92-.41.92-.92v-.55c0-.5-.41-.92-.92-.92"/><path class="cls-1" d="m173.48,184.78h-.58c-.51,0-.92.42-.92.92v8.73l-6.65-9.26c-.17-.24-.45-.38-.75-.38h-1.03c-.51,0-.92.42-.92.92v12.13c0,.5.41.92.92.92h.58c.51,0,.91-.42.91-.92v-8.92l6.8,9.46c.17.24.45.38.74.38h.89c.51,0,.92-.42.92-.92v-12.13c0-.5-.41-.92-.92-.92"/><path class="cls-1" d="m191.25,187.12c1.27,0,2.35.4,3.3,1.23.36.31.89.3,1.24-.04l.41-.39c.18-.18.29-.43.28-.69,0-.25-.12-.5-.31-.67-1.4-1.23-3.05-1.84-4.92-1.84-2.01,0-3.76.7-5.18,2.08-1.44,1.39-2.17,3.08-2.17,5.05s.73,3.67,2.17,5.06c1.43,1.38,3.17,2.08,5.19,2.08,1.87,0,3.52-.62,4.92-1.84.19-.17.31-.41.31-.67,0-.25-.09-.5-.28-.68l-.41-.4c-.34-.33-.88-.34-1.24-.02-.95.83-2.03,1.22-3.3,1.22-1.38,0-2.53-.46-3.5-1.39-.97-.94-1.44-2.04-1.44-3.35s.47-2.4,1.44-3.33c.97-.94,2.12-1.41,3.5-1.41"/><path class="cls-1" d="m207.24,184.78h-.58c-.51,0-.92.42-.92.92v12.13c0,.5.41.92.92.92h.58c.5,0,.92-.42.92-.92v-12.13c0-.5-.42-.92-.92-.92"/><path class="cls-1" d="m225.2,185.34c-.15-.34-.48-.56-.85-.56h-1.03c-.37,0-.7.22-.85.56l-5.2,12.12c-.12.28-.09.61.08.87.17.25.46.41.77.41h.62c.37,0,.7-.22.84-.56l.92-2.15h6.64l.93,2.15c.14.34.47.56.85.56h.62c.52,0,.93-.41.93-.92,0-.17-.05-.34-.13-.47l-5.14-12.01Zm-3.65,8.29l2.3-5.35,2.29,5.35h-4.59Z"/><path class="cls-1" d="m247.98,196.34h-6.22v-10.64c0-.51-.42-.92-.92-.92h-.58c-.51,0-.92.41-.92.92v12.12c0,.51.41.92.92.92h7.72c.51,0,.92-.41.92-.92v-.55c0-.51-.41-.92-.92-.92"/><path class="cls-1" d="m107.09,153.06c.05-1.88.07-3,.06-3.38-.03-.9-.1-1.78-.2-2.64-.73-5.13-3.05-9.6-6.97-13.38-4.55-4.4-9.96-6.61-16.22-6.61s-11.53,2.21-15.81,6.63c-4.28,4.43-6.31,9.76-6.11,16.02.21,6.26,2.59,11.59,7.14,16,.89.85,1.81,1.63,2.76,2.32l-.02.02c.52.37,1.05.7,1.57,1.02.11.06.21.13.31.19.07.04.15.09.22.12,1.23.71,2.51,1.29,3.84,1.75.11.04.24.07.36.11.21.07.41.13.62.19.28.08.55.16.83.22.07.01.12.02.18.04.69.17,1.4.31,2.12.4h.06c.24.04.48.07.71.09.18.02.35.04.53.06.03,0,.05,0,.05,0,1.85.14,3.74.06,5.67-.24,1.14-.17,2.24-.42,3.31-.73,4.77-1.39,8.7-4.13,11.79-8.21.44-.58,1.02-1.49,1.73-2.72h-10.66c-1.92,1.69-4.21,2.79-6.87,3.29-1.57.14-2.61.22-3.1.24-3.92-.02-7.31-1.41-10.18-4.18-2.66-2.57-4.06-4.77-4.24-6.6h30.66s5.88-.02,5.88-.02Zm-36.44-8.21c.13-1.19,1.29-2.91,3.49-5.17,2.68-2.77,5.98-4.16,9.9-4.16s7.3,1.38,10.15,4.13c2.37,2.28,3.64,4.01,3.83,5.17l-27.36.02Z"/><path class="cls-1" d="m207.59,153.06c.06-1.88.07-3,.06-3.38-.03-.9-.1-1.78-.2-2.64-.73-5.13-3.05-9.6-6.96-13.38-4.55-4.4-9.96-6.61-16.22-6.61s-11.53,2.21-15.81,6.63c-4.28,4.43-6.32,9.76-6.11,16.02.21,6.26,2.59,11.59,7.14,16,.89.85,1.81,1.63,2.76,2.32l-.02.02c.52.37,1.05.7,1.58,1.02.1.06.2.13.31.19.07.04.14.09.22.12,1.23.71,2.5,1.29,3.83,1.75.12.04.24.07.36.11.21.07.41.13.62.19.27.08.55.16.82.22.07.01.12.02.18.04.7.17,1.41.31,2.12.4h.04c.25.04.49.07.73.09.18.02.35.04.53.06.03,0,.05,0,.05,0,1.85.14,3.73.06,5.67-.24,1.14-.17,2.24-.42,3.31-.73,4.76-1.39,8.7-4.13,11.79-8.21.44-.58,1.01-1.49,1.72-2.72h-10.66c-1.92,1.69-4.21,2.79-6.86,3.29-1.57.14-2.61.22-3.1.24-3.92-.02-7.32-1.41-10.18-4.18-2.66-2.57-4.07-4.77-4.24-6.6h30.65s5.87-.02,5.87-.02Zm-36.44-8.21c.13-1.19,1.29-2.91,3.49-5.17,2.68-2.77,5.98-4.16,9.9-4.16s7.3,1.38,10.15,4.13c2.36,2.28,3.63,4.01,3.83,5.17l-27.36.02Z"/></svg>