<?xml version="1.0" encoding="UTF-8"?><svg id="Capa_1" xmlns="http://www.w3.org/2000/svg" viewBox="0 0 300 213.5"><defs><style>.cls-1{fill:#fff;}.cls-2{fill:#5e5f5f;}.cls-3{fill:#e63a2b;}.cls-4{fill:#005156;}.cls-5{fill:#f9b54c;}</style></defs><path class="cls-2" d="m19.09,195.97c.67-.64,1.01-1.5,1.01-2.58,0-.53-.11-1.01-.34-1.44-.22-.42-.51-.76-.85-1.01-.33-.24-.71-.44-1.13-.6-.4-.15-.79-.26-1.14-.32-.34-.06-.68-.09-1-.09h-5.02v12.12h1.46v-4.72h3.32l3.66,4.72h1.85l-3.85-4.99c.81-.21,1.51-.58,2.05-1.1m-.45-2.58c0,.82-.26,1.44-.78,1.86-.54.43-1.43.66-2.65.67h-3.15v-4.56h3.77c.8,0,1.47.2,2.02.57.52.36.78.84.78,1.46"/><polygon class="cls-2" points="39.28 202.05 48.01 202.05 48.01 200.63 40.7 200.63 40.7 196.68 47.29 196.68 47.29 195.25 40.7 195.25 40.7 191.37 48.01 191.37 48.01 189.93 39.31 189.93 39.28 202.05"/><path class="cls-2" d="m72.32,196.51c-.27-.24-.6-.44-.96-.6-.45-.2-.79-.32-1.02-.38-1.1-.29-1.12-.28-1.12-.28-2.23-.53-2.84-1.12-2.96-1.53-.04-.13-.07-.31-.07-.54,0-.68.24-1.18.73-1.51.47-.34,1.07-.5,1.76-.5h.11c.6.02,1.2.16,1.78.39.57.23,1,.5,1.29.82l.24.27.92-1.17-.19-.2s-.05-.04-.11-.1l-.11-.09c-.13-.12-.25-.21-.34-.28-.08-.07-.23-.17-.41-.28-.2-.13-.4-.25-.6-.33-.2-.08-.42-.16-.67-.24-.27-.08-.57-.13-.9-.17-.33-.03-.66-.03-1,0-1.25.07-2.25.41-2.95,1.01-.72.62-1.08,1.42-1.08,2.38s.38,1.73,1.14,2.33c.71.57,1.81,1,3.27,1.27,1.32.24,2.18.7,2.55,1.34.35.61.18,1.29-.52,2.08-.2.22-.49.39-.87.5-.3.08-.6.12-.91.12-.11,0-.23,0-.37-.02h-.08c-1.28,0-2.46-.53-3.51-1.56l-.23-.23-1.07,1.14.3.2c.07.04.25.18.54.4.32.24.57.42.78.54.19.11.47.25.83.43.37.18.79.31,1.24.4.44.08.94.12,1.47.12s1.09-.09,1.59-.27c.51-.18.94-.44,1.29-.75.35-.31.64-.68.85-1.08.23-.42.35-.87.35-1.35s-.11-.94-.32-1.44c-.17-.31-.39-.59-.66-.83"/><rect class="cls-2" x="92.44" y="189.93" width="1.42" height="12.12"/><path class="cls-2" d="m116.99,189.93h-3.77v12.12h4.31c.55,0,1.11-.08,1.68-.23.56-.15,1.13-.39,1.68-.72.55-.34,1.06-.75,1.48-1.21.44-.48.79-1.08,1.05-1.78.26-.7.4-1.48.4-2.31,0-1.67-.65-3.08-1.94-4.2-1.27-1.11-2.92-1.68-4.89-1.68m5.39,6.24c0,.55-.13,1.09-.4,1.61-.27.54-.61,1.03-1.01,1.45-.39.42-.88.76-1.48,1.01-.58.25-1.24.38-1.95.38h-2.87v-9.27h2.65c.44,0,.87.04,1.3.14.42.09.86.25,1.31.49.43.23.83.53,1.15.88.33.35.64.82.91,1.39.26.56.4,1.21.4,1.91"/><polygon class="cls-2" points="142.99 202.05 151.72 202.05 151.72 200.63 144.41 200.63 144.41 196.68 150.99 196.68 150.99 195.25 144.41 195.25 144.41 191.37 151.72 191.37 151.72 189.93 143.02 189.93 142.99 202.05"/><polygon class="cls-2" points="179.68 199.23 172.24 189.93 170.98 189.93 170.98 202.05 172.41 202.05 172.41 192.36 180.1 202.05 181.1 202.05 181.1 189.93 179.68 189.93 179.68 199.23"/><path class="cls-2" d="m208.94,190.31l-.06-.02c-1.51-.69-3.51-.68-4.99-.01-.75.34-1.39.8-1.92,1.38-.53.57-.94,1.24-1.24,1.99-.29.74-.44,1.54-.44,2.39s.15,1.61.43,2.36c.29.74.7,1.41,1.23,1.98.53.57,1.17,1.03,1.91,1.36.74.34,1.58.52,2.49.52s1.74-.18,2.43-.5c.07-.01.13-.04.2-.07.66-.32,1.24-.74,1.72-1.25l.09-.09v-2.56l-.57.93c-.17.27-.36.53-.55.75-.3.31-.63.57-.98.77-.15.09-.31.17-.47.24-1.11.5-2.56.5-3.67,0-.56-.26-1.04-.61-1.45-1.04-.4-.44-.72-.95-.96-1.54-.22-.59-.34-1.22-.34-1.92s.12-1.3.34-1.89c.23-.58.54-1.09.94-1.53.4-.43.89-.78,1.44-1.02,1.11-.49,2.55-.5,3.67,0,.17.09.34.17.5.26.35.22.67.48.95.78.4.42.58.67.67.8l.57.91v-2.58l-.17-.17c-.48-.5-1.06-.91-1.77-1.24"/><rect class="cls-2" x="230.12" y="189.93" width="1.43" height="12.12"/><path class="cls-2" d="m255.9,189.93l-5.56,12.12h1.58l1.51-3.25h6.34l1.48,3.25h1.64l-5.77-12.12h-1.21Zm-1.84,7.5l2.46-5.54,2.62,5.54h-5.08Z"/><polygon class="cls-2" points="282.64 200.64 282.64 189.93 281.22 189.93 281.22 202.05 289.39 202.05 289.39 200.64 282.64 200.64"/><path class="cls-3" d="m33.23,131.48c6.6,0,12.74,2.4,16.95,6.74.6.67.67,1.74,0,2.41l-2.07,2.06c-.73.74-1.8.67-2.47,0-3.07-3.2-7.61-4.87-12.41-4.87-9.94,0-17.88,8.01-17.88,17.95s7.94,17.95,17.88,17.95c4.8,0,9.27-1.73,12.41-4.87.6-.67,1.74-.74,2.47,0l2.07,2.07c.67.67.6,1.8,0,2.4-4.34,4.27-10.34,6.74-16.95,6.74-13.41,0-24.29-10.81-24.29-24.29s10.88-24.28,24.29-24.28"/><path class="cls-3" d="m80.34,131.41c13.48,0,24.35,10.87,24.35,24.35s-10.87,24.29-24.35,24.29-24.29-10.81-24.29-24.29,10.88-24.35,24.29-24.35m0,42.3c10.01,0,18.02-8.01,18.02-17.95s-8.01-18.01-18.02-18.01-17.88,8.08-17.88,18.01,7.94,17.95,17.88,17.95"/><path class="cls-3" d="m119.04,166.11c-.73,0-1.34.74-1.34,1.54v10.07c0,.87-.73,1.67-1.67,1.67h-3c-.94,0-1.67-.8-1.67-1.67v-43.97c0-1.07.73-1.74,1.67-1.74h7.74c13.41,0,24.35,4.27,24.35,17.08,0,6.2-2.6,10.41-6.87,13.08-1.41,1.2-1.74,1.8-1.07,3.6l5.6,11.54c.47,1.07.47,2.07-1.07,2.07h-3.74c-1.14,0-1.6-.54-1.87-1l-5.87-12.21c-.2-.4-1.07-.67-2.07-.54-2.34.27-4.8.47-7.41.47h-1.74Zm.13-27.69c-.81,0-1.47.67-1.47,1.47v18.21c0,.94.54,1.67,1.4,1.67h1.67c9.94,0,17.95-2.8,17.95-10.67s-8.01-10.67-17.95-10.67h-1.6Z"/><path class="cls-3" d="m156.81,132.01c.94,0,1.67.67,1.67,1.73v43.97c0,.87-.74,1.67-1.67,1.67h-3c-.94,0-1.67-.8-1.67-1.67v-43.97c0-1.07.73-1.73,1.67-1.73h3Z"/><path class="cls-3" d="m200.51,132.01c.94,0,1.67.67,1.67,1.73v43.97c0,.87-.74,1.67-1.67,1.67h-2.67c-.87,0-1.41-.2-1.8-.8l-21.22-31.62c-.34-.47-1.67-.8-1.67,1.34v29.42c0,.87-.74,1.67-1.67,1.67h-3c-.94,0-1.67-.8-1.67-1.67v-43.97c0-1.07.74-1.73,1.67-1.73h3c.6,0,1.07.27,1.6,1l21.16,31.5c.47.66,1.6,1.06,1.6-1.21v-29.56c0-1.07.74-1.73,1.67-1.73h3Z"/><path class="cls-3" d="m207.52,133.75c0-1,.67-1.73,1.67-1.73h30.22c.87,0,1.67.74,1.67,1.73v2.94c0,.94-.8,1.74-1.67,1.74h-10.54c-.8,0-1.4.73-1.4,1.47v37.83c0,.87-.74,1.67-1.67,1.67h-3c-.94,0-1.67-.8-1.67-1.67v-37.63c0-.8-.6-1.67-1.34-1.67h-10.6c-1.01,0-1.67-.8-1.67-1.74v-2.94Z"/><path class="cls-3" d="m266.7,131.41c13.48,0,24.35,10.87,24.35,24.35s-10.87,24.29-24.35,24.29-24.28-10.81-24.28-24.29,10.87-24.35,24.28-24.35m0,42.3c10.01,0,18.02-8.01,18.02-17.95s-8.01-18.01-18.02-18.01-17.88,8.08-17.88,18.01,7.94,17.95,17.88,17.95"/><path class="cls-4" d="m149.97,98.68s17.44,16.47,41,6.46c26.14-11.1,40.16-40.95,40.16-40.95,0,0-34.71-10.36-59.21.05"/><path class="cls-4" d="m150.03,98.68s-17.44,16.47-41,6.46c-26.13-11.1-40.16-40.95-40.16-40.95,0,0,34.71-10.1,59.21.31"/><path class="cls-3" d="m133.01,40.69c-14.24-10.56-29.42-14.81-29.42-14.81,0,0-4.03,33.5,9.98,55.49,12.15,19.07,36.47,17.35,36.47,17.35"/><path class="cls-3" d="m167.24,40.47c14.16-10.4,29.11-14.59,29.11-14.59,0,0,4.04,33.51-9.98,55.49-12.15,19.07-36.46,17.35-36.46,17.35"/><path class="cls-5" d="m149.93,11.25s-21.85,26.63-21.85,53.24c0,23.08,21.87,34.95,21.87,34.95,0,0,21.97-9.62,21.97-35.21,0-28.39-22-52.99-22-52.99"/><path class="cls-1" d="m150.02,52.41s-9.2,11.2-9.2,22.41c0,9.72,9.21,14.71,9.21,14.71,0,0,9.25-4.05,9.25-14.82,0-11.95-9.25-22.3-9.25-22.3"/></svg>