<?xml version="1.0" encoding="UTF-8"?><svg id="Capa_1" xmlns="http://www.w3.org/2000/svg" viewBox="0 0 300 222.5"><defs><style>.cls-1{fill:#4a4848;}.cls-2{fill:#16b3b6;}</style></defs><path class="cls-1" d="m71.68,143.55c-2.17-3.89-5.59-7.06-10.48-9.72-3.7-1.96-8.31-3.53-14.1-4.79-.08-.02-.16-.03-.26-.03h-.07c-5.1-1.06-9.44-2.76-11.88-4.65-1.1-.85-1.95-1.75-2.39-2.54-.4-.71-.55-1.39-.55-2.54,0-2.21,1.13-4.26,3.36-6.1,2.7-2.23,6.51-3.52,10.43-3.52,5.65,0,10.3,3.13,15.38,6.9,1.06.79,2.28,1.2,3.54,1.2,2.18,0,4.17-1.22,5.28-3.2,1.9-3.04,1.14-7.3-1.71-9.51l-.26-.18c-5.23-3.78-12.41-8.96-22.23-8.96-6.7,0-13.1,2.2-18.04,6.19-5.36,4.42-8.43,10.68-8.43,17.19,0,3.5.85,6.86,2.45,9.72,2.13,3.78,5.42,6.86,9.78,9.17,3.5,1.86,7.82,3.31,13.2,4.46.08.02.16.03.25.03h.08c5.58,1.17,10.36,3,13.1,5,1.22.91,2.07,1.85,2.66,2.95.55,1.03.76,1.84.76,3,0,2.62-1.3,5.01-3.86,7.11-2.99,2.45-7.27,3.86-11.75,3.86h-.23c-6.62,0-13.85-4.46-18.03-8.28-1.14-1.04-2.6-1.62-4.1-1.62-1.95,0-3.76.94-4.98,2.6-2.06,2.97-1.63,7.32.99,9.71,5.85,5.16,15.18,11.33,26.36,11.45h0c7.2,0,14.03-2.35,19.24-6.62,5.75-4.62,9.04-11.25,9.04-18.21,0-3.55-.91-7.12-2.55-10.06"/><path class="cls-1" d="m98.3,107.68c0,3.34-2.83,6.13-6.66,6.13s-6.66-2.79-6.66-6.13v-2.34c0-3.34,2.96-6.02,6.66-6.02s6.66,2.67,6.66,6.02v2.34Zm0,20.18v43.48c0,3.34-2.83,6.02-6.66,6.02s-6.66-2.68-6.66-6.02v-43.48c0-3.56,2.96-6.13,6.66-6.13s6.66,2.57,6.66,6.13"/><path class="cls-1" d="m164.75,144.81v26.64c0,3.23-2.83,5.91-6.41,5.91s-6.53-2.68-6.53-5.91v-26.64c0-6.24-5.8-11.26-12.82-11.26s-12.33,5.02-12.33,11.26v26.64c0,.33,0,.67-.25,1.11-.61,2.68-3.33,4.8-6.53,4.8-3.7,0-6.53-2.68-6.53-5.91v-43.92c0-3.23,2.83-5.91,6.53-5.91,2.59,0,4.93,1.34,6.04,3.46,3.7-2.12,8.26-3.46,13.07-3.46,14.3,0,25.76,10.59,25.76,23.19"/><path class="cls-1" d="m234.32,149.6v21.85c0,3.23-2.96,5.91-6.53,5.91-3.2,0-5.67-2.12-6.41-4.8-4.68,3.02-10.23,4.8-16.39,4.8-8.38,0-15.65-3.12-20.95-8.14-5.3-5.13-8.38-12.04-8.38-19.62s3.08-14.6,8.38-19.62c5.3-5.13,12.57-8.36,20.95-8.36,6.16,0,11.71,1.9,16.39,4.9.74-2.78,3.21-4.9,6.41-4.9,3.57,0,6.53,2.68,6.53,6.02v21.96Zm-13.06,0c0-4.68-1.85-8.7-4.81-11.48-2.96-3.01-7.15-4.57-11.46-4.57s-8.63,1.56-11.46,4.57c-2.97,2.79-4.69,6.8-4.69,11.48s1.72,8.58,4.69,11.48c2.83,2.79,7.02,4.35,11.46,4.35s8.51-1.56,11.46-4.35c2.96-2.9,4.81-6.91,4.81-11.48"/><path class="cls-1" d="m261.77,127.86v43.48c0,3.34-2.84,6.02-6.66,6.02s-6.66-2.68-6.66-6.02v-43.48c0-3.56,2.96-6.13,6.66-6.13s6.66,2.57,6.66,6.13m-3.7-16.39c0-.78.49-1.79.99-2.45l7.03-9.81c1.36-2.01,3.33-3.24,5.92-3.24,3.94,0,8.87,2.23,8.87,4.35,0,1.22-.86,2.34-2.1,3.34l-8.26,7.14c-2.96,2.45-5.3,3.01-8.75,3.01-2.1,0-3.7-.9-3.7-2.34"/><path class="cls-2" d="m17.29,205.66h-2.79v5.36h-3.07v-17.47h7.54c.83,0,1.61.16,2.34.48.73.32,1.37.75,1.92,1.3.55.55.98,1.19,1.3,1.92.32.73.48,1.51.48,2.34,0,.65-.12,1.28-.34,1.88-.22.59-.54,1.15-.94,1.67-.4.51-.87.98-1.43,1.38-.55.41-1.16.74-1.82.99l4.02,5.52h-3.72l-3.5-5.36Zm-2.79-2.57h4.47c.45,0,.87-.1,1.26-.3.39-.2.74-.46,1.04-.79.3-.32.53-.7.7-1.12.16-.43.25-.86.25-1.29,0-.4-.07-.8-.22-1.19-.16-.4-.36-.76-.61-1.09-.26-.32-.56-.59-.91-.8-.35-.21-.73-.34-1.12-.39h-4.84v6.96Z"/><polygon class="cls-2" points="43.07 208.23 50.91 208.23 50.91 211.02 40 211.02 40 193.55 50.91 193.55 50.91 196.34 43.07 196.34 43.07 200.57 49.62 200.57 49.62 203.36 43.07 203.36 43.07 208.23"/><path class="cls-2" d="m71.65,211.75c-.75,0-1.46-.1-2.15-.28-.68-.18-1.31-.4-1.87-.66-.57-.26-1.05-.52-1.46-.79-.41-.27-.7-.48-.89-.65.18-.16.37-.35.56-.56.19-.2.38-.42.58-.63.19-.22.37-.42.53-.61.16-.19.28-.35.38-.48.52.3,1.02.56,1.52.79.43.2.88.38,1.35.55s.89.25,1.27.25c.32,0,.64-.05.99-.15.34-.1.64-.25.91-.44.27-.19.48-.42.66-.67.18-.26.26-.54.26-.86,0-.37-.09-.69-.27-.99-.18-.29-.43-.56-.75-.81-.31-.25-.69-.48-1.12-.69-.43-.21-.9-.42-1.4-.61-.53-.22-1.08-.49-1.65-.8-.57-.32-1.08-.7-1.54-1.15-.47-.45-.85-.96-1.15-1.54-.3-.57-.45-1.23-.45-1.96,0-.68.11-1.34.35-1.97.23-.63.58-1.18,1.05-1.66.46-.47,1.05-.85,1.74-1.13.7-.28,1.52-.42,2.45-.42.63,0,1.22.07,1.78.21.56.15,1.07.32,1.54.53.47.22.89.45,1.26.7.37.25.7.47.99.67l-1.82,2.49c-.19-.13-.42-.29-.7-.47-.29-.18-.6-.36-.94-.51-.34-.16-.71-.29-1.11-.4-.4-.11-.8-.16-1.22-.16-.62,0-1.15.18-1.61.53-.45.36-.68.8-.68,1.32,0,.61.26,1.16.8,1.63.53.47,1.37.95,2.51,1.43.49.18,1.02.42,1.6.73.58.3,1.13.67,1.64,1.11.51.44.93.96,1.27,1.57.34.6.51,1.31.51,2.11,0,.64-.13,1.27-.39,1.91-.26.64-.64,1.22-1.12,1.73-.49.52-1.09.94-1.8,1.28-.71.33-1.51.5-2.41.5"/><rect class="cls-2" x="92.97" y="193.55" width="3.07" height="17.47"/><path class="cls-2" d="m117.83,193.55c1.46,0,2.69.2,3.69.58,1,.39,1.82.89,2.47,1.49.65.6,1.15,1.26,1.5,1.96.35.71.61,1.39.77,2.03.17.65.27,1.22.29,1.71.02.49.04.81.04.96-.09,1.63-.45,3.08-1.1,4.36-.28.55-.63,1.09-1.05,1.61-.42.53-.93.99-1.55,1.39-.62.41-1.34.74-2.17.99-.83.25-1.8.37-2.89.37h-6.42v-17.47h6.42Zm-.28,14.68c.72,0,1.34-.09,1.87-.25.53-.17,1-.39,1.4-.66.4-.27.74-.59,1.01-.95.27-.36.5-.72.69-1.09.42-.87.66-1.86.73-2.98,0-.11,0-.35-.03-.7-.02-.35-.08-.75-.19-1.21-.11-.46-.27-.94-.5-1.44s-.55-.95-.97-1.38c-.42-.42-.96-.76-1.61-1.04-.64-.27-1.44-.41-2.39-.41h-3.07v12.1h3.07Z"/><polygon class="cls-2" points="144.58 208.23 152.42 208.23 152.42 211.02 141.51 211.02 141.51 193.55 152.42 193.55 152.42 196.34 144.58 196.34 144.58 200.57 151.13 200.57 151.13 203.36 144.58 203.36 144.58 208.23"/><polygon class="cls-2" points="182.19 211.08 171.04 200.89 171.04 211.02 167.97 211.02 167.97 193.5 179.12 203.89 179.12 193.55 182.19 193.55 182.19 211.08"/><path class="cls-2" d="m200.17,202.29c0,.88.16,1.71.48,2.48.33.78.77,1.45,1.35,2.02.58.58,1.25,1.03,2.02,1.36.77.33,1.61.5,2.51.5.78,0,1.53-.14,2.23-.41.7-.28,1.33-.65,1.88-1.11.43.41.81.79,1.12,1.12.32.33.67.69,1.05,1.07-.85.78-1.8,1.38-2.86,1.8-1.06.41-2.2.62-3.43.62-1.3,0-2.52-.25-3.67-.75-1.15-.5-2.15-1.18-3-2.03-.85-.86-1.53-1.86-2.02-3.01-.49-1.15-.74-2.38-.74-3.67s.25-2.52.74-3.67c.5-1.15,1.17-2.15,2.02-3.01.85-.85,1.85-1.54,3-2.03,1.15-.5,2.37-.74,3.67-.74s2.39.2,3.44.61c1.05.41,2,1.01,2.85,1.81l-2.2,2.19c-.56-.46-1.19-.83-1.88-1.11s-1.43-.42-2.21-.42c-.9,0-1.74.17-2.51.5-.77.33-1.45.79-2.02,1.36-.58.58-1.02,1.25-1.35,2.02-.32.77-.48,1.6-.48,2.49"/><rect class="cls-2" x="228.57" y="193.55" width="3.07" height="17.47"/><path class="cls-2" d="m254.95,192.88c1.42,3.06,2.77,6.1,4.07,9.11,1.3,3.01,2.65,6.02,4.07,9.03h-3.37l-1.2-3.02h-7.16l-1.17,3.02h-3.39l8.16-18.14Zm-2.42,12.33h4.79l-2.38-6.14-2.42,6.14Z"/><polygon class="cls-2" points="278.24 211.02 278.24 193.55 281.31 193.55 281.31 208.23 288.57 208.23 288.57 211.02 278.24 211.02"/><path class="cls-2" d="m143.94,54.47l9.53-5.5c1.05-.61,2.23-1.01,3.44-1.19-.46-1.14-.69-2.35-.69-3.57v-11c0-.22,0-.45.02-.68-.22.1-.43.2-.64.32l-9.53,5.5c-1.7.98-2.75,2.81-2.75,4.77v11c0,.25.02.48.05.72.19-.13.38-.25.57-.37"/><path class="cls-2" d="m156.91,69.26c-1.22-.18-2.38-.58-3.44-1.2l-9.53-5.5c-.19-.11-.38-.23-.57-.36-.03.24-.05.48-.05.72v11c0,1.96,1.06,3.78,2.75,4.76l9.53,5.5c.21.12.43.22.64.32-.01-.23-.02-.45-.02-.68v-11c0-1.22.23-2.43.69-3.57"/><path class="cls-2" d="m177.63,43.11v11c0,.21.02.43.05.65.2-.09.4-.18.58-.29l9.53-5.5c1.7-.98,2.75-2.81,2.75-4.77v-11c0-.21-.01-.43-.05-.64-.2.09-.39.18-.57.29l-9.53,5.5c-1.7.98-2.76,2.81-2.76,4.77"/><path class="cls-2" d="m170.63,58.88c.18-.11.36-.23.53-.36-.17-.13-.35-.25-.53-.36l-9.53-5.5c-1.66-.95-3.84-.95-5.5,0l-9.53,5.5c-.18.11-.36.23-.53.36.17.13.35.26.53.36l9.53,5.5c1.66.96,3.84.96,5.5,0l9.53-5.5Z"/><path class="cls-2" d="m163.23,48.97l9.53,5.5c.18.11.37.2.58.29.03-.22.05-.43.05-.65v-11c0-1.96-1.06-3.78-2.75-4.77l-9.53-5.5c-.19-.11-.38-.2-.58-.28-.03.21-.04.43-.04.64v11c0,1.96,1.06,3.79,2.75,4.77"/><path class="cls-2" d="m172.76,34.66c1.06.61,1.99,1.42,2.75,2.39.76-.96,1.7-1.77,2.75-2.39l9.53-5.5c.19-.11.39-.21.6-.32-.19-.15-.39-.28-.6-.4l-9.53-5.5c-1.66-.96-3.84-.96-5.5,0l-9.53,5.5c-.21.12-.41.26-.6.4.21.1.4.2.59.32l9.53,5.5Z"/><path class="cls-2" d="m173.38,73.92v-11c0-.21-.01-.43-.05-.65-.2.09-.39.18-.58.29l-9.53,5.5c-1.7.98-2.75,2.81-2.75,4.77v10.99c0,.21.01.43.04.65.2-.09.39-.18.57-.29l9.53-5.5c1.7-.98,2.75-2.8,2.75-4.76"/><path class="cls-2" d="m204.94,38.34l-9.52-5.5c-.21-.11-.42-.22-.65-.32.02.23.03.45.03.68v11c0,1.22-.23,2.44-.69,3.57,1.22.18,2.38.58,3.44,1.19l9.53,5.5c.19.11.38.23.57.36.03-.24.05-.48.05-.72v-11c0-1.96-1.06-3.78-2.76-4.77"/><path class="cls-2" d="m175.51,10.75c-26.39,0-47.78,21.39-47.78,47.78s21.39,47.78,47.78,47.78,47.78-21.39,47.78-47.78-21.39-47.78-47.78-47.78m36.44,52.17v11c0,3.48-1.87,6.71-4.88,8.45l-9.53,5.5c-1.32.76-2.82,1.21-4.35,1.29-.84,1.28-1.97,2.36-3.28,3.12l-9.53,5.5c-1.48.85-3.17,1.3-4.88,1.3s-3.4-.45-4.88-1.3l-9.53-5.5c-1.32-.76-2.45-1.84-3.29-3.12-1.55-.09-3.03-.53-4.34-1.28l-9.53-5.5c-3.01-1.74-4.88-4.98-4.88-8.45v-11c0-1.53.36-3.04,1.06-4.41-.69-1.37-1.06-2.88-1.06-4.4v-11c0-3.48,1.87-6.72,4.88-8.45l9.53-5.5c1.32-.76,2.81-1.2,4.35-1.28.84-1.28,1.96-2.36,3.29-3.12l9.53-5.5c2.96-1.71,6.8-1.71,9.76,0l9.53,5.5c1.32.76,2.44,1.84,3.28,3.13,1.57.09,3.04.53,4.35,1.28l9.53,5.5c3.01,1.74,4.88,4.98,4.88,8.45v11c0,1.53-.36,3.03-1.06,4.4.69,1.37,1.06,2.88,1.06,4.41"/><path class="cls-2" d="m207.07,62.56l-9.53,5.5c-1.06.61-2.23,1.01-3.44,1.2.46,1.14.69,2.34.69,3.57v10.99c0,.23,0,.45-.02.68.22-.1.44-.2.65-.32l9.52-5.5c1.7-.98,2.76-2.8,2.76-4.76v-11c0-.25-.02-.48-.05-.72-.19.13-.38.25-.57.36"/><path class="cls-2" d="m204.94,58.88c.19-.11.37-.23.54-.36-.17-.13-.35-.25-.54-.36l-9.52-5.5c-1.66-.95-3.84-.96-5.5,0l-9.53,5.5c-.18.11-.37.23-.53.36.17.13.35.26.53.36l9.53,5.5c1.66.96,3.83.96,5.5,0l9.52-5.5Z"/><path class="cls-2" d="m178.26,82.37c-1.06-.61-1.99-1.42-2.76-2.39-.76.96-1.69,1.77-2.75,2.39l-9.53,5.5c-.19.11-.39.22-.6.32.19.15.39.28.6.4l9.53,5.5c1.66.95,3.84.95,5.5,0l9.53-5.5c.21-.12.41-.25.6-.4-.21-.1-.41-.2-.6-.32l-9.53-5.5Z"/><path class="cls-2" d="m187.79,68.06l-9.53-5.5c-.18-.11-.38-.2-.58-.29-.03.22-.05.43-.05.65v11c0,1.96,1.06,3.78,2.76,4.76l9.53,5.5c.18.11.37.2.58.29.03-.22.05-.43.05-.65v-10.99c0-1.96-1.06-3.79-2.75-4.77"/></svg>