<?xml version="1.0" encoding="UTF-8"?><svg id="Capa_1" xmlns="http://www.w3.org/2000/svg" xmlns:xlink="http://www.w3.org/1999/xlink" viewBox="0 0 300 193"><defs><style>.cls-1{fill:url(#linear-gradient-2);}.cls-2{fill:#5d452b;}.cls-3{fill:url(#linear-gradient);}</style><linearGradient id="linear-gradient" x1="-3082.63" y1="-3246.33" x2="-3074.52" y2="-3212.54" gradientTransform="translate(-3077.56 -3007.23) rotate(-90) scale(1 -1)" gradientUnits="userSpaceOnUse"><stop offset=".18" stop-color="#4da32f"/><stop offset="1" stop-color="#457c1f"/></linearGradient><linearGradient id="linear-gradient-2" x1="170.6" y1="72.98" x2="124.52" y2="75.87" gradientUnits="userSpaceOnUse"><stop offset="0" stop-color="#56af31"/><stop offset="1" stop-color="#457c1f"/></linearGradient></defs><path class="cls-2" d="m75.36,167.03v-2.84c0-3.66-3.08-3.66-4.09-3.66h-3.99v19.18h2.23v-8.88h1.17l3.33,8.88h2.37l-3.41-9.13c2.4-.74,2.4-2.84,2.4-3.56Zm-2.3-2.5v2.81c0,.76-.21,1.46-1.74,1.46h-1.82v-6.22h1.89c1,0,1.66.14,1.66,1.95Z"/><polygon class="cls-2" points="84.16 179.72 91.54 179.72 91.54 177.62 86.36 177.62 86.36 170.76 90.64 170.76 90.64 168.69 86.38 168.69 86.38 162.63 91.57 162.63 91.57 160.53 84.16 160.53 84.16 179.72"/><path class="cls-2" d="m102.17,164.57c0-1.89.63-2.26,1.71-2.26,1.54,0,1.66.97,1.66,2.33v2.11h2.2v-1.8c0-1.64,0-4.69-3.89-4.69-2.6,0-3.91,1.52-3.91,4.51,0,2.75,1.25,4,3.32,6.07,2.04,2.01,2.52,2.68,2.52,4.56,0,2.08-.69,2.49-1.87,2.49-.55,0-1.3-.12-1.74-.67-.42-.54-.44-1.13-.44-2.52v-1.93h-2.23v3.04c0,2.61,1.61,4.17,4.3,4.17,4.2,0,4.2-3.5,4.2-4.82,0-2.68-.96-3.66-2.87-5.63-2.69-2.74-2.96-3.39-2.96-4.98Z"/><rect class="cls-2" x="116.8" y="160.53" width="2.28" height="19.18"/><path class="cls-2" d="m130.39,160.51h-2.03v19.21h2.88c3.48,0,4.62-2.29,4.94-3.27.25-.72.41-1.66.41-3.93v-4.05c0-5.4-.93-7.97-6.21-7.97Zm4.01,7.97v4.16c0,3.51-.78,4.09-1.24,4.44-.7.5-1.3.55-2.57.56v-14.96c1.55.01,2.85.17,3.42,1.84.27.83.39,2.06.39,3.98Z"/><polygon class="cls-2" points="145.76 179.72 153.14 179.72 153.14 177.62 147.96 177.62 147.96 170.76 152.24 170.76 152.24 168.69 147.98 168.69 147.98 162.63 153.17 162.63 153.17 160.53 145.76 160.53 145.76 179.72"/><path class="cls-2" d="m167.59,174.27l-3.43-13.74h-2.71v19.18h2.15s-.05-13.51-.05-13.54l3.35,13.54h2.79v-19.18h-2.2l.11,13.74Z"/><path class="cls-2" d="m184.78,175.78c0,1.41-.55,2.07-1.74,2.07-1.95,0-2.05-1.45-2.05-4.01v-8.88c0-2.21,1.08-2.49,2.02-2.49.6,0,1.09.28,1.33.75.25.48.26.94.26,3.68v.48h2.23v-3.04c0-1.61-.56-2.76-1.65-3.4-.63-.38-1.42-.59-2.29-.59s-2.05.12-2.99,1.17c-1.1,1.07-1.1,2.29-1.1,3.7v9.89c0,1.78.24,2.7.91,3.54.76.9,1.81,1.36,3.13,1.36,2.79,0,4.2-1.42,4.2-4.22v-3.29h-2.25v3.29Z"/><rect class="cls-2" x="195.82" y="160.53" width="2.28" height="19.18"/><path class="cls-2" d="m209.86,160.43l-3.5,19.29h2.32l.95-5.55h3.01l.93,5.55h2.32l-3.48-19.29h-2.56Zm.15,11.59l1.14-6.55,1.1,6.55h-2.24Z"/><polygon class="cls-2" points="226.44 177.62 226.44 160.53 224.21 160.53 224.21 179.72 231.18 179.72 231.18 177.62 226.44 177.62"/><path class="cls-2" d="m14.28,104.07l-7.15,39.38h5.01l1.94-11.25h5.85l1.88,11.25h5.01l-7.1-39.38h-5.43Zm.6,23.49l2.13-12.25,2.06,12.25h-4.19Z"/><polygon class="cls-2" points="48.15 104.28 43.34 104.28 43.34 143.45 57.77 143.45 57.77 138.9 48.15 138.9 48.15 104.28"/><path class="cls-2" d="m87.61,122.1c1.41-1.07,2.08-2.81,2.08-5.41v-5.28c0-7.19-5.45-7.19-7.5-7.19h-7.76v39.22h8.44c5.36,0,8.08-2.7,8.08-8.03v-6.28c0-3.35-.57-5.72-3.33-7.04Zm-2.73-5.98c0,1.99,0,4.06-4.32,4.06h-1.39v-11.46h2.12c3.05,0,3.59.44,3.59,2.96v4.45Zm-5.66,8.55h1.55c4.96,0,5.37,2.09,5.37,4.42v5.23c0,3.21-.15,4.63-3.69,4.63h-3.22v-14.29Z"/><path class="cls-2" d="m113.68,104.07l-7.16,39.38h5.01l1.94-11.25h5.85l1.88,11.25h5.01l-7.1-39.38h-5.43Zm.59,23.49l2.13-12.25,2.06,12.25h-4.19Z"/><polygon class="cls-2" points="140.07 108.82 146.5 108.82 146.5 143.45 151.31 143.45 151.31 108.82 157.9 108.82 157.9 104.22 140.07 104.22 140.07 108.82"/><polygon class="cls-2" points="173.75 143.45 189.02 143.45 189.02 138.9 178.51 138.9 178.51 125.3 187.19 125.3 187.19 120.81 178.56 120.81 178.56 108.82 189.07 108.82 189.07 104.28 173.75 104.28 173.75 143.45"/><path class="cls-2" d="m222.45,117.59v-5.75c0-5.01-2.84-7.55-8.44-7.55h-8.24v39.17h4.81v-17.99h2.13l6.75,17.99h5.11l-6.93-18.55c4.81-1.57,4.81-5.88,4.81-7.31Zm-4.96-5.07v5.7c0,2.02-.95,2.8-3.38,2.8h-3.53v-12.3h3.69c2,0,3.22.26,3.22,3.8Z"/><path class="cls-2" d="m256.66,117.59v-5.75c0-5.01-2.84-7.55-8.44-7.55h-8.23v39.17h4.8v-17.99h2.13l6.75,17.99h5.11l-6.93-18.55c4.81-1.57,4.81-5.88,4.81-7.31Zm-4.96-5.07v5.7c0,2.02-.95,2.8-3.38,2.8h-3.53v-12.3h3.69c2,0,3.22.26,3.22,3.8Z"/><path class="cls-2" d="m285.77,104.07h-5.43l-7.16,39.38h5.01l1.94-11.25h5.85l1.88,11.25h5.01l-7.1-39.38Zm-4.83,23.49l2.13-12.25,2.06,12.25h-4.2Z"/><polygon class="cls-2" points="144.38 13 112.56 89.84 123.94 89.84 149.77 27.46 175.61 89.84 186.99 89.84 155.16 13 144.38 13"/><path class="cls-3" d="m122.71,73.6c20.11,32.33,37.34-6.52,62.88-2.58-7.54-9.66-15.94-15.51-28.04-16.01-11.11-.46-17.72,4.64-25.14,12.51-2.85,3.02-5.37,5.64-9.7,6.08"/><path class="cls-1" d="m185.55,71.01c-2.87-2.21-5.03-5.24-8.68-6.68-7.48-2.95-17.86-3.4-25.43-.63-7.38,2.7-13.11,10.25-21.46,9.41-1.4-.14-2.96-.36-4.39-.2-.59.23-1.23.4-1.9.52-.27.13-.53.29-.78.49,20.01,31.72,37.21-6.79,62.64-2.91Z"/><polygon class="cls-2" points="123.94 89.84 154.63 15.74 144.38 13 112.56 89.84 123.94 89.84"/></svg>