<?xml version="1.0" encoding="UTF-8"?><svg id="Capa_1" xmlns="http://www.w3.org/2000/svg" viewBox="0 0 300 211.25"><defs><style>.cls-1{fill:#53284f;}.cls-2{fill:#b11cab;}.cls-3{fill:#00adbb;}</style></defs><path class="cls-2" d="m195.79,94.3l-8.77,1.47s5.23-34.7,41.2-41.5c0,0-25.9,10.56-32.44,40.03"/><path class="cls-3" d="m204.92,87.04l6.36-.99,1.97,5.88s13.26-9.61,13.44-31.46c0,0-18.24,8.65-21.78,26.57"/><path class="cls-3" d="m263.73,12.72l8.76-1.47s-5.23,34.7-41.2,41.5c0,0,25.9-10.56,32.44-40.03"/><path class="cls-1" d="m254.6,19.98l-6.36,1-1.97-5.89s-13.26,9.61-13.44,31.46c0,0,18.24-8.65,21.78-26.58"/><path class="cls-3" d="m269.79,87.13l1.47,8.76s-34.7-5.23-41.5-41.2c0,0,10.56,25.9,40.03,32.44"/><path class="cls-1" d="m262.31,78.1l-1-6.36,5.89-1.97s-9.61-13.26-31.46-13.44c0,0,8.65,18.24,26.58,21.78"/><path class="cls-1" d="m189.77,19.89l-1.47-8.76s34.69,5.23,41.5,41.2c0,0-10.56-25.9-40.03-32.44"/><path class="cls-2" d="m197.24,28.92l.99,6.36-5.88,1.97s9.61,13.26,31.46,13.44c0,0-8.65-18.24-26.57-21.78"/><polygon class="cls-1" points="24.58 108.3 24.58 126.28 47.8 126.28 47.8 136.18 24.58 136.18 24.58 157.58 48.59 157.58 48.59 167.48 12.86 167.48 12.86 98.4 48.59 98.4 48.59 108.3 24.58 108.3"/><polygon class="cls-1" points="79.44 150.98 90.48 122.53 102.77 122.53 82.06 168.4 75.45 168.4 54.85 122.53 67.03 122.53 79.44 150.98"/><path class="cls-1" d="m152.05,167.48h-10.81v-4.1c-3.19,3.72-7.93,5.58-14.23,5.58s-11.33-2.42-15.08-7.29c-3.76-4.85-5.63-10.54-5.63-17.07s1.92-12.08,5.75-16.68c3.83-4.59,8.74-6.89,14.74-6.89,6.38,0,11.19,1.9,14.45,5.69v-4.21h10.81v44.96Zm-9.56-22.53c0-4.17-1.18-7.61-3.53-10.3-2.35-2.69-5.37-4.04-9.05-4.04s-6.68,1.31-8.99,3.93c-2.32,2.62-3.47,6.09-3.47,10.41s1.18,7.82,3.53,10.47c2.35,2.65,5.39,3.99,9.11,3.99s6.71-1.29,8.99-3.87c2.28-2.58,3.41-6.11,3.41-10.58"/><path class="cls-1" d="m176.06,126.62c3.11-3.72,7.7-5.58,13.77-5.58,10.32,0,15.48,6.34,15.48,19.01v27.43h-10.92v-23.79c0-9.48-2.92-14.23-8.77-14.23-6.38,0-9.56,5.08-9.56,15.25v22.76h-11.04v-44.96h11.04v4.09Z"/><polygon class="cls-1" points="231.83 167.48 220.79 167.48 220.79 132.43 215.44 132.43 215.44 123.44 220.79 123.44 220.79 107.27 231.83 107.27 231.83 123.44 240.6 123.44 240.6 132.43 231.83 132.43 231.83 167.48"/><path class="cls-1" d="m255.73,146.09c0,4.32.95,7.89,2.85,10.7,1.9,2.81,4.51,4.21,7.85,4.21,5.23,0,8.58-2.58,10.02-7.74l10.47,1.71c-3.42,9.33-10.24,14-20.49,14-6.83,0-12.27-2.18-16.33-6.54-4.06-4.36-6.09-10.04-6.09-17.02,0-7.36,1.95-13.26,5.86-17.7,3.91-4.44,9.22-6.66,15.93-6.66s11.95,2.11,15.71,6.32c3.76,4.21,5.63,9.95,5.63,17.24v1.48h-31.41Zm21.17-6.15c0-3.11-.97-5.84-2.91-8.2-1.93-2.35-4.44-3.53-7.51-3.53s-5.58,1.24-7.52,3.7c-1.93,2.47-2.9,5.14-2.9,8.02h20.83Z"/><path class="cls-3" d="m17.88,194.92h-2.39v4.59h-2.62v-14.94h6.44c.71,0,1.38.13,2.01.41.62.27,1.17.64,1.64,1.11.47.47.84,1.02,1.11,1.65.27.62.4,1.29.4,2,0,.55-.09,1.09-.29,1.6-.19.51-.46.99-.8,1.43-.34.44-.75.84-1.21,1.18-.47.35-.99.63-1.56.85l3.44,4.71h-3.18l-2.99-4.59Zm-2.39-2.2h3.82c.39,0,.75-.09,1.08-.26.33-.17.63-.39.88-.67.26-.28.46-.6.6-.96.14-.36.21-.73.21-1.1,0-.34-.07-.69-.19-1.03-.13-.34-.3-.65-.52-.93-.22-.27-.48-.5-.78-.68-.3-.18-.62-.29-.96-.33h-4.14v5.95Z"/><polygon class="cls-3" points="43.12 197.12 49.82 197.12 49.82 199.51 40.49 199.51 40.49 184.56 49.82 184.56 49.82 186.95 43.12 186.95 43.12 190.56 48.71 190.56 48.71 192.95 43.12 192.95 43.12 197.12"/><path class="cls-3" d="m70.74,200.12c-.64,0-1.25-.08-1.83-.23-.59-.16-1.12-.35-1.6-.57-.48-.22-.9-.44-1.25-.67-.35-.23-.6-.42-.76-.56.16-.14.32-.3.48-.48.17-.18.33-.36.49-.54.16-.19.31-.36.45-.52.14-.16.25-.3.33-.42.44.26.88.48,1.31.68.37.17.75.33,1.15.47s.76.21,1.09.21c.27,0,.55-.04.84-.13.29-.08.55-.21.78-.37s.42-.36.57-.58c.15-.22.22-.46.22-.73,0-.32-.08-.59-.23-.85-.16-.25-.37-.48-.64-.69-.27-.21-.59-.41-.96-.59-.37-.18-.77-.35-1.2-.52-.46-.19-.93-.41-1.41-.68-.48-.27-.92-.6-1.32-.98-.39-.38-.73-.82-.98-1.31-.26-.49-.39-1.05-.39-1.68,0-.59.1-1.15.3-1.69.2-.54.5-1.01.89-1.42.4-.41.9-.73,1.5-.97.6-.24,1.3-.36,2.09-.36.54,0,1.05.06,1.53.18.47.12.92.27,1.31.46.4.18.76.38,1.08.6.32.21.6.4.84.57l-1.56,2.14c-.16-.12-.36-.25-.6-.41-.24-.16-.51-.3-.8-.44-.29-.13-.61-.25-.95-.34-.34-.09-.69-.14-1.05-.14-.53,0-.99.16-1.38.46-.39.31-.59.68-.59,1.12,0,.53.23,1,.69,1.4.46.4,1.18.82,2.16,1.23.41.16.86.36,1.36.62.5.26.97.57,1.4.95.44.38.8.82,1.09,1.34s.44,1.12.44,1.8c0,.54-.11,1.09-.33,1.64-.22.55-.54,1.04-.96,1.48-.42.44-.93.8-1.54,1.09-.61.29-1.29.42-2.06.42"/><rect class="cls-3" x="92.16" y="184.56" width="2.62" height="14.94"/><path class="cls-3" d="m116.61,184.56c1.25,0,2.3.17,3.16.51.85.33,1.56.76,2.12,1.27.55.51.98,1.07,1.27,1.67.3.61.52,1.18.67,1.74.14.56.22,1.05.24,1.47.02.42.03.69.03.82-.07,1.39-.39,2.64-.94,3.73-.24.47-.54.93-.89,1.38-.36.45-.8.85-1.32,1.19-.52.35-1.15.63-1.86.85-.71.21-1.54.32-2.47.32h-5.49v-14.95h5.49Zm-.24,12.56c.62,0,1.15-.07,1.6-.22.46-.14.85-.33,1.2-.57.34-.23.62-.5.86-.81.23-.3.43-.62.58-.93.36-.74.56-1.59.62-2.55,0-.1,0-.29-.02-.6-.02-.3-.07-.64-.16-1.04-.09-.39-.24-.8-.43-1.23s-.47-.82-.83-1.18c-.36-.36-.82-.65-1.37-.89-.55-.23-1.24-.35-2.05-.35h-2.62v10.36h2.62Z"/><polygon class="cls-3" points="142.67 197.12 149.38 197.12 149.38 199.51 140.05 199.51 140.05 184.56 149.38 184.56 149.38 186.95 142.67 186.95 142.67 190.56 148.27 190.56 148.27 192.95 142.67 192.95 142.67 197.12"/><polygon class="cls-3" points="178.03 199.55 168.49 190.84 168.49 199.51 165.86 199.51 165.86 184.52 175.4 193.4 175.4 184.56 178.03 184.56 178.03 199.55"/><path class="cls-3" d="m196.58,192.04c0,.75.13,1.46.42,2.13.28.66.66,1.24,1.15,1.73.49.49,1.07.88,1.73,1.16.66.29,1.37.42,2.14.42.67,0,1.31-.11,1.91-.35.61-.23,1.15-.55,1.61-.95.37.36.69.67.96.96.27.28.57.59.9.92-.73.66-1.54,1.18-2.45,1.53-.9.36-1.88.53-2.94.53-1.11,0-2.16-.21-3.14-.64-.98-.43-1.84-1.01-2.57-1.74-.73-.73-1.3-1.59-1.73-2.57-.42-.98-.63-2.03-.63-3.14s.21-2.16.63-3.14c.43-.98,1-1.84,1.73-2.57.73-.73,1.59-1.31,2.57-1.74.98-.43,2.03-.64,3.14-.64s2.05.17,2.95.52c.9.35,1.7.86,2.43,1.54l-1.88,1.88c-.49-.4-1.02-.72-1.62-.95-.59-.24-1.22-.36-1.89-.36-.77,0-1.48.14-2.14.43-.67.28-1.24.67-1.73,1.16-.49.49-.87,1.07-1.15,1.73-.28.66-.42,1.37-.42,2.13"/><rect class="cls-3" x="224.06" y="184.56" width="2.62" height="14.94"/><path class="cls-3" d="m249.81,183.98c1.21,2.62,2.37,5.22,3.48,7.79,1.11,2.58,2.27,5.16,3.48,7.73h-2.88l-1.02-2.58h-6.13l-1,2.58h-2.91l6.98-15.52Zm-2.07,10.55h4.1l-2.03-5.25-2.07,5.25Z"/><polygon class="cls-3" points="272.91 199.51 272.91 184.56 275.54 184.56 275.54 197.12 281.75 197.12 281.75 199.51 272.91 199.51"/></svg>