<?xml version="1.0" encoding="UTF-8"?><svg id="Capa_1" xmlns="http://www.w3.org/2000/svg" viewBox="0 0 300 107"><defs><style>.cls-1{fill:#93358d;}.cls-2{fill:#f88d2a;}.cls-3{fill-rule:evenodd;}.cls-3,.cls-4{fill:#d41367;}.cls-5{fill:#e0592a;}</style></defs><path class="cls-2" d="m68.04,22.54s3.7,3.47,3.59,10.2c0,0-11,2.2-15.63,8.45,0,0-.35-7.64-4.41-10.08,0,0,7.18-7.06,16.46-8.57m.92,8.11s-.26-3.91-1.85-5.12c0,0-9.5,3.61-11.81,6.17,0,0,1.93,1.52,2.31,4.4,0,0,4.45-4.1,11.35-5.45"/><path class="cls-2" d="m66.76,21.31s-8.22,1.63-16.21,8.69c0,0-7.99-7.77-16.21-8.69,0,0,6.49-7.06,16.33-11.81,0,0,11.81,6.72,16.09,11.81m-4.73-1.41s-9.16-6.31-11.36-7.35c0,0-8.11,4.35-11.35,7.37,0,0,9.21,4,11.3,6.78,0,0,4-3.95,11.41-6.8"/><path class="cls-2" d="m50.57,31.8c4.61,3.95,4.22,10.54,4.22,10.54-3.35,3.24-4.17,9.59-4.17,9.59-1.53-6.63-4.61-9.65-4.61-9.65.44-6.26,4.56-10.49,4.56-10.49m1.48,9.49c.38-2.58-1.48-4.93-1.48-4.93-1.81,2.03-1.65,5.16-1.65,5.16,0,0,1.65,2.2,1.65,2.31s1.48-2.53,1.48-2.53"/><path class="cls-2" d="m49.62,30.93c-4.04,2.42-4.4,10.07-4.4,10.07-4.63-6.25-15.63-8.45-15.63-8.45-.12-6.72,3.59-10.19,3.59-10.19,9.26,1.5,16.44,8.57,16.44,8.57m-6.02,4.97c.37-2.88,2.32-4.4,2.32-4.4-2.32-2.55-11.81-6.17-11.81-6.17-1.6,1.21-1.85,5.12-1.85,5.12,6.9,1.35,11.35,5.44,11.35,5.44"/><path class="cls-1" d="m71.7,74.46c.12,6.72-3.59,10.19-3.59,10.19-9.26-1.51-16.44-8.57-16.44-8.57,4.05-2.43,4.4-10.06,4.4-10.06,4.63,6.25,15.63,8.45,15.63,8.45m-4.52,7.2c1.6-1.2,1.85-5.13,1.85-5.13-6.9-1.35-11.34-5.44-11.34-5.44-.38,2.88-2.32,4.4-2.32,4.4,2.32,2.55,11.81,6.17,11.81,6.17"/><path class="cls-1" d="m66.95,85.69s-6.48,7.07-16.33,11.81c0,0-11.8-6.72-16.1-11.81,0,0,8.23-1.62,16.21-8.68,0,0,7.99,7.75,16.21,8.68m-4.98,1.39s-9.22-4.01-11.3-6.79c0,0-4,3.95-11.41,6.81,0,0,9.16,6.3,11.35,7.35,0,0,8.12-4.35,11.36-7.37"/><path class="cls-1" d="m50.67,55.05c1.54,6.64,4.61,9.66,4.61,9.66-.44,6.25-4.56,10.47-4.56,10.47-4.61-3.95-4.23-10.54-4.23-10.54,3.35-3.24,4.17-9.59,4.17-9.59m.06,15.58c1.81-2.03,1.65-5.16,1.65-5.16,0,0-1.65-2.19-1.65-2.3s-1.48,2.53-1.48,2.53c-.38,2.58,1.48,4.94,1.48,4.94"/><path class="cls-1" d="m45.3,65.81s.34,7.64,4.4,10.07c0,0-7.17,7.07-16.44,8.58,0,0-3.71-3.47-3.6-10.19,0,0,11.01-2.2,15.64-8.45m.69,9.5s-1.94-1.51-2.32-4.41c0,0-4.45,4.11-11.35,5.46,0,0,.26,3.91,1.85,5.12,0,0,9.5-3.61,11.81-6.16"/><path class="cls-4" d="m94.83,53.02s-6.72,11.81-11.81,16.1c0,0-1.63-8.22-8.69-16.22,0,0,7.76-7.99,8.69-16.2,0,0,7.06,6.49,11.81,16.33m-3.05.01s-4.36-8.12-7.37-11.37c0,0-4.01,9.22-6.79,11.3,0,0,3.96,4.01,6.8,11.42,0,0,6.32-9.16,7.35-11.35"/><path class="cls-4" d="m81.97,35.53c-1.5,9.27-8.57,16.44-8.57,16.44-2.43-4.05-10.08-4.4-10.08-4.4,6.25-4.63,8.46-15.63,8.46-15.63,6.72-.12,10.19,3.59,10.19,3.59m-9.15,12.74c2.55-2.32,6.17-11.81,6.17-11.81-1.21-1.59-5.13-1.84-5.13-1.84-1.35,6.89-5.44,11.34-5.44,11.34,2.88.37,4.39,2.32,4.39,2.32"/><path class="cls-4" d="m73.22,53.94s7.06,7.18,8.57,16.44c0,0-3.48,3.71-10.2,3.59,0,0-2.2-11-8.45-15.63,0,0,7.65-.35,10.07-4.4m5.58,15.52s-3.61-9.5-6.16-11.82c0,0-1.52,1.95-4.4,2.32,0,0,4.09,4.46,5.43,11.36,0,0,3.92-.26,5.12-1.85"/><path class="cls-4" d="m62.04,48.36c6.26.43,10.48,4.55,10.48,4.55-3.95,4.62-10.54,4.23-10.54,4.23-3.24-3.35-9.59-4.17-9.59-4.17,6.63-1.53,9.66-4.6,9.66-4.6m.98,6.03c2.57.39,4.94-1.48,4.94-1.48-2.03-1.81-5.15-1.64-5.15-1.64,0,0-2.2,1.64-2.31,1.64-.11,0,2.53,1.48,2.53,1.48"/><path class="cls-5" d="m39.58,48.92c3.24,3.34,9.6,4.17,9.6,4.17-6.63,1.53-9.66,4.6-9.66,4.6-6.26-.43-10.48-4.55-10.48-4.55,3.95-4.61,10.53-4.22,10.53-4.22m1.49,4.22c.1,0-2.53-1.48-2.53-1.48-2.57-.39-4.94,1.48-4.94,1.48,2.03,1.81,5.16,1.64,5.16,1.64,0,0,2.19-1.64,2.31-1.64"/><path class="cls-5" d="m38.42,47.71s-7.64.34-10.07,4.39c0,0-7.07-7.17-8.58-16.44,0,0,3.48-3.7,10.2-3.59,0,0,2.2,11,8.45,15.63m-5.09-1.62s-4.1-4.45-5.45-11.35c0,0-3.92.26-5.13,1.84,0,0,3.62,9.5,6.17,11.82,0,0,1.5-1.95,4.4-2.32"/><path class="cls-5" d="m28.16,54.08c2.43,4.05,10.08,4.4,10.08,4.4-6.25,4.63-8.45,15.63-8.45,15.63-6.72.12-10.2-3.59-10.2-3.59,1.51-9.27,8.57-16.44,8.57-16.44m-.46,17.37c1.35-6.9,5.44-11.35,5.44-11.35-2.88-.38-4.4-2.31-4.4-2.31-2.54,2.31-6.17,11.81-6.17,11.81,1.21,1.59,5.12,1.85,5.12,1.85"/><path class="cls-5" d="m27.23,53.15s-7.76,7.99-8.68,16.22c0,0-7.06-6.49-11.81-16.33,0,0,6.72-11.81,11.81-16.1,0,0,1.63,8.22,8.69,16.21m-3.29-.06s-3.96-4.01-6.81-11.42c0,0-6.31,9.16-7.35,11.36,0,0,4.36,8.11,7.36,11.35,0,0,4.01-9.22,6.79-11.3"/><path class="cls-3" d="m166.96,86.82c-.38-.21-.79-.4-1.15-.66-.38-.26-.51-.66-.5-1.14.06-1.91.09-3.82.13-5.72,0-.06,0-.12-.01-.29-.15.2-.25.33-.35.45-1.26,1.8-2.59,3.55-4.33,4.92-.62.5-1.34.91-2.08,1.2-1.12.43-2.18.03-2.9-.93-.81-1.09-1.15-2.36-1.43-3.65-.09-.39-.16-.78-.25-1.3-.15.26-.26.44-.37.63-.86,1.5-1.83,2.93-3.1,4.12-.76.71-1.61,1.29-2.65,1.54-1.86.44-3.65-.43-4.62-2.22-.82-1.5-1.1-3.13-1.1-4.82-.02-3.16.71-6.12,2.55-8.74,1.07-1.52,2.48-2.62,4.37-2.92,1.02-.16,2.04-.17,3,.29.91.43,1.38,1.18,1.45,2.17.12,1.61-.42,3.07-1.11,4.48-1.36,2.76-3.14,5.21-5.45,7.27-.23.22-.48.4-.77.63.48.41.99.53,1.58.39,1.09-.27,1.8-1.06,2.45-1.89,1.4-1.77,2.35-3.82,3.41-5.8.41-.76.87-1.5,1.33-2.24.19-.31.46-.56.89-.39.41.18.56.48.54.93-.1,2.32-.03,4.63.46,6.9.19.84.49,1.67.9,2.42.61,1.1,1.56,1.32,2.69.78,1.15-.57,2.01-1.47,2.8-2.44.62-.75,1.15-1.57,1.76-2.34.36-.47.45-.98.51-1.54.29-2.78.7-5.54,1.72-8.15.23-.61.58-1.19.94-1.73.33-.5.82-.86,1.48-.76.63.11.95.59,1.17,1.14.19.48.27.96.02,1.47-.63,1.29-1.17,2.63-1.86,3.88-.53.94-.81,1.93-.93,2.97-.13,1.15-.23,2.29-.29,3.46.18-.47.35-.94.54-1.4.75-1.78,1.72-3.44,3.01-4.88.41-.45.9-.84,1.39-1.2.48-.36,1.01-.25,1.48.04.48.31.85.7.81,1.35-.08,1.48-.19,2.97-.17,4.44.02,1.36.24,2.7.82,3.93.59,1.28,1.44,1.58,2.65.85.94-.58,1.81-1.28,2.72-1.93.22-.15.45-.3.7-.4.13-.06.35-.08.44,0,.1.07.14.29.12.44-.03.2-.13.4-.24.57-1.11,1.74-2.59,3.08-4.43,3.99-1.34.65-2.7.23-3.62-.98-.92-1.22-1.34-2.64-1.69-4.08-.21-.89-.37-1.79-.56-2.69-.01-.08-.06-.16-.15-.39-.37.42-.75.75-1.01,1.15-1.28,1.95-2.05,4.12-2.61,6.36-.16.61-.2,1.24-.31,1.86-.04.2-.16.39-.24.59h-.54Zm-21.15-5.27c.24-.17.49-.32.69-.51,2.51-2.24,4.44-4.91,5.75-8.01.35-.81.58-1.67.54-2.57-.03-.76-.49-1.41-1.17-1.58-.69-.18-1.4-.21-2.08.03-1.3.46-2.12,1.44-2.75,2.59-1.33,2.4-1.82,5-1.64,7.71.05.81.21,1.6.67,2.33"/><path class="cls-3" d="m140.8,56.58c.02.81-.36,1.42-1.03,1.83-.46.27-.97.47-1.45.71-2.48,1.21-4.37,2.97-5.11,5.71-.55,2.04.11,3.82,1.54,5.31.88.93,1.84,1.78,2.75,2.68,1.53,1.52,2.28,3.39,2.28,5.54,0,1.97-.96,3.51-2.41,4.74-2.55,2.15-5.52,3.32-8.84,3.58-.42.04-.78-.09-.95-.52-.16-.42-.03-.79.33-1.03.25-.17.55-.29.85-.39,2-.65,4-1.3,5.81-2.36.65-.4,1.29-.84,1.84-1.36,1.2-1.14,1.3-2.3.65-3.77-.44-1.01-1.21-1.78-1.99-2.54-1.26-1.25-2.6-2.42-3.58-3.92-2.48-3.78-2.36-8.44,1.31-11.78,1.65-1.5,3.49-2.7,5.7-3.17.47-.1.95-.15,1.43-.14.66.01.88.27.87.87"/><path class="cls-3" d="m240.43,70.82v-.86c.05-4.88.05-9.76.19-14.64.04-1.52.41-3.04.7-4.55.09-.43.34-.87.63-1.22.79-.99,2.1-.92,2.53.26.43,1.2.71,2.51.77,3.78.18,3.75-.26,7.48-.94,11.18-.49,2.64-1.23,5.23-1.61,7.88-.24,1.68-.09,3.43,0,5.14.08,1.43.25,2.88.54,4.28.24,1.18.85,1.4,1.75.6,1.01-.91,1.88-1.98,2.81-2.98.18-.2.33-.41.55-.68.6.63.56,1.34.26,1.93-.85,1.68-1.93,3.18-3.58,4.18-.28.17-.58.28-.88.37-1.18.37-2.12.06-2.51-1.09-.44-1.31-.63-2.7-.91-4.06-.06-.27-.05-.57-.2-.9-.12.22-.24.43-.35.64-.93,1.89-2.04,3.64-3.65,5.01-.59.5-1.35.87-2.1,1.09-1.03.31-2.17-.3-2.84-1.36-.22-.34-.39-.72-.55-1.03-1.44.57-2.84,1.2-4.28,1.68-.72.24-1.54.35-2.3.31-1.61-.08-2.69-1.09-3.27-2.49-.6-1.46-1.01-3-1.5-4.5-.15-.44-.33-.88-.49-1.32-.08,0-.17-.02-.25-.03-.54.72-1.12,1.42-1.63,2.15-.38.54-.68,1.13-1.06,1.67-1.04,1.48-1.41,3.16-1.42,4.92,0,.6-.23.71-.76.6-1.17-.22-1.72-.99-1.67-2.19.11-2.39.06-4.8.24-7.19.24-3.22.74-6.41,2.06-9.4.26-.59.68-1.14,1.14-1.59.62-.61,1.35-.49,1.78.25.28.48.46,1.03.55,1.57.04.26-.14.72-.36.85-1.33.8-2,1.99-2.2,3.46-.29,2.01-.52,4.02-.76,6.04-.04.3.03.61.18.95.57-.99,1.09-2,1.71-2.95.99-1.52,1.99-3.03,3.08-4.46.64-.86,1.49-.68,2.02.27.54.97.2,1.97.13,2.96-.2,2.67.51,5.13,1.79,7.43.68,1.22,1.93,1.21,3.07.96,1.3-.27,2.56-.74,3.86-1.14-.3-2.22-.13-4.28.47-6.29.55-1.85,1.35-3.56,2.78-4.92,1.64-1.57,3.96-1.89,5.96-.81.15.07.3.14.51.26m-7.75,10.53c2.33-1.45,4.46-3.04,6.17-5.12.57-.69,1.09-1.46,1.44-2.28.62-1.43-.12-2.61-1.62-2.79-1.13-.15-2.14.13-3.01.85-1.61,1.33-2.39,3.12-2.87,5.08-.34,1.38-.47,2.77-.11,4.26m10.04-13.21c.09-.38.18-.63.21-.89.49-3.13,1.06-6.26,1.42-9.4.2-1.77.07-3.56.02-5.35,0-.31-.36-.61-.56-.93-.18.29-.48.57-.53.89-.19,1.07-.38,2.16-.41,3.26-.11,4.08-.17,8.17-.24,12.26,0,0,.02.04.09.17m-9.62,14.25c.9.96,1.53,1.1,2.47.33.74-.62,1.43-1.35,1.97-2.16.89-1.32,1.63-2.75,2.43-4.12-.07-.05-.14-.09-.21-.14-1.83,2.44-4.17,4.32-6.66,6.08"/><path class="cls-3" d="m192.02,67.95c.75-2.67,1.47-5.25,2.21-7.82.34-1.16.71-2.34,1.19-3.46.31-.7.77-1.36,1.3-1.92.82-.85,2.25-.7,2.89.27.18.27.12.78,0,1.13-.11.32-.44.57-.61.78.79,1.79,1.6,3.51,2.32,5.26.72,1.72,1.36,3.49,2.11,5.39,2.17-.96,4.31-1.9,6.49-2.87.35.5.36,1.05-.1,1.47-.62.57-1.28,1.14-2.02,1.53-1.21.63-2.49,1.11-3.82,1.69.49,1.65,1.04,3.32,1.48,5,.74,2.81,1.41,5.63,2.07,8.46.14.56.09,1.17.13,1.76.04.71-.16,1.32-.87,1.63-.77.34-1.51.22-2.11-.35-.92-.87-1.23-2-.85-3.16.42-1.27.39-2.54.2-3.77-.44-2.95-1.05-5.86-1.6-8.79-.02-.1-.08-.17-.09-.19-2.64.28-5.25.57-7.98.88-.22,1.15-.49,2.44-.71,3.73-.63,3.68-1.24,7.37-1.86,11.06-.09.55-.15,1.12-.37,1.63-.38.88-1.26,1.16-2.31.83-.88-.28-1.32-.89-1.21-1.67,0-.07,0-.16.04-.21,1.14-2,1.06-4.29,1.55-6.44.63-2.78,1.15-5.6,1.72-8.4.04-.2.06-.41.09-.59-.65-.15-1.26-.24-1.83-.44-.74-.26-1.13-.97-1.06-1.73.08-.97.78-1.41,1.86-1.16.58.14,1.17.3,1.75.44m2.84.36c2.41.07,4.66.14,7.08-.49-.99-2.57-1.93-5.05-2.93-7.5-.25-.61-.71-1.13-1.14-1.81-1.58,3.18-2.25,6.44-3.01,9.8"/><path class="cls-3" d="m265.43,76.55c.02-2.54.39-5.02,1.69-7.25.46-.78,1.1-1.51,1.81-2.06.93-.72,2.05-.79,3.1-.19,1.03.6,1.58,1.5,1.55,2.72-.08,3.17-1.58,5.64-3.77,7.77-.18.17-.35.37-.55.48-.97.47-.96,1.24-.7,2.1.08.28.15.56.25.84,1.04,2.92,3.54,3.57,5.86,1.52,1.55-1.36,2.6-3.1,3.6-4.87.07-.13.12-.28.22-.39.24-.27.2-.94.81-.71.57.22.68.78.52,1.31-.17.57-.4,1.16-.73,1.65-.68,1-1.43,1.97-2.18,2.91-.91,1.14-2.01,2.07-3.35,2.68-2.52,1.16-5,.45-6.51-1.89-1.3-2-1.6-4.27-1.62-6.61m2.67.28c.06.05.12.11.18.15.51-.43,1.07-.8,1.51-1.29,1.27-1.39,1.94-3.04,1.84-4.93-.02-.29-.24-.68-.49-.81-.19-.11-.57.08-.85.2-.16.08-.3.25-.41.4-1.35,1.88-1.7,4.04-1.79,6.26"/><path class="cls-3" d="m254.26,74.84c.66-2.17,1.75-4.01,3.39-5.51,1.2-1.08,2.5-1.99,4.2-2.04,1.65-.05,3.01,1.28,3.02,2.95,0,.73-.51,1.28-1.22,1.3-.75.01-1.11-.36-1.14-1.19v-.39c-1.18-.08-2.07.44-2.85,1.17-1.52,1.44-2.29,3.32-2.88,5.28-.89,2.93-1.3,5.91-1.24,8.97,0,.38-.1,1.05-.29,1.1-.38.12-.92,0-1.3-.21-.7-.38-1.08-.99-1.01-1.87.13-1.69.22-3.38.28-5.07.02-.62-.05-1.27-.15-1.89-.15-.98-.59-1.8-1.5-2.32-.27-.16-.56-.32-.77-.55-.28-.32-.72-.71-.69-1.04.04-.52,1.05-.94,1.63-.8,1.17.27,2.03.92,2.51,2.11"/><path class="cls-3" d="m288.59,66.84c-.45.54-.82.94-1.15,1.39-.68.89-1.46,1.72-1.98,2.7-.74,1.39-.33,2.41,1.14,2.99,1.23.48,2.51.78,3.76,1.2.57.19,1.15.43,1.65.76,1.29.85,1.66,2.17.76,3.41-.78,1.1-1.73,2.16-2.81,2.96-1.69,1.27-3.54,2.32-5.35,3.44-.33.2-.73.38-1.1.38s-.97-.11-1.13-.38c-.18-.32-.18-1,.05-1.26.52-.6,1.19-1.08,1.86-1.52,1.52-1.02,3.12-1.93,4.59-3.02.63-.47,1.06-1.25,1.49-1.94.28-.47.08-.89-.47-1.09-1.33-.48-2.67-.95-3.99-1.43-.21-.08-.41-.17-.6-.26-3.24-1.58-3.65-5.86-.75-8.03,1.17-.89,2.48-.91,4.02-.3"/><path class="cls-3" d="m273.35,55.24c1.74-.02,2.62,1.29,1.98,2.6-.76,1.59-1.92,2.88-3.25,4.01-.22.19-.69.34-.9.23-.27-.14-.55-.55-.56-.85-.01-.43.14-.92.36-1.3.75-1.29,1.43-2.59,1.72-4.08.06-.29.52-.5.63-.61"/><path class="cls-3" d="m217.93,19.56c.45.23.57.67.58,1.1.02.97.02,1.96-.01,2.93-.06,1.17-.16,2.35-.24,3.51-.13,1.9-.25,3.8-.38,5.69-.09,1.35-.35,2.71-.25,4.04.21,2.76.59,5.5,1.57,8.11.18.47.46.92.75,1.33.32.46.79.54,1.32.36.82-.26,1.49-.78,2.14-1.32.41-.35.78-.75,1.18-1.11.15-.13.18-.26.14-.45-.34-1.75-.27-3.48.2-5.19.33-1.2.81-2.32,1.78-3.15,1.31-1.12,3.16-.65,3.65.94.17.57.07,1.1-.16,1.63-.56,1.28-1.41,2.37-2.29,3.43-.44.53-.9,1.03-1.34,1.54-.06.07-.13.19-.12.27.18,1,.52,1.94,1.34,2.6,1.08.87,2.48.76,3.55-.25.89-.83,1.48-1.88,2.04-2.94.15-.28.3-.58.46-.87.15-.29.33-.33.59-.1.3.27.25.63.19.95-.14.64-.48,1.16-.97,1.6-.14.13-.28.29-.36.45-.74,1.35-1.73,2.42-3.24,2.93-1.95.66-3.75-.14-4.71-2.06-.14-.29-.25-.58-.39-.91-.08.08-.17.15-.25.23-.95.85-1.88,1.72-2.86,2.53-.37.31-.85.52-1.31.64-.87.24-1.59-.15-2.15-.8-.6-.69-.95-1.52-1.23-2.38-.2-.65-.37-1.31-.56-1.97-.21.5-.4,1.03-.64,1.53-.5,1.07-1.09,2.08-1.97,2.89-1.66,1.53-3.88,1.15-4.95-.84-.53-.98-.73-2.04-.77-3.13-.06-1.82.26-3.56,1.09-5.19.36-.7.8-1.32,1.42-1.8,1.1-.83,2.27-.83,3.47-.22.46.23.88.57,1.32.86.11.07.2.16.36.28-.03-.43-.06-.8-.06-1.17-.02-1.91-.06-3.83-.04-5.75,0-1.28.06-2.57.16-3.85.14-1.83.17-3.68.66-5.48.05-.19.12-.37.19-.56.19-.45.47-.81.99-.92h.14Zm-8,22.43c.02.28.04.63.08.96.1.8.32,1.57.84,2.22.71.89,1.83.99,2.67.21.16-.15.31-.31.45-.48.97-1.22,1.55-2.61,1.97-4.08.1-.35.18-.71.18-1.06,0-.45-.06-.9-.13-1.34-.01-.14-.08-.31-.18-.39-.42-.33-.84-.69-1.3-.95-1.28-.71-2.53-.4-3.38.79-.88,1.21-1.13,2.61-1.2,4.13m16.45.31c.38-.48.78-.94,1.15-1.44.56-.76,1.14-1.54,1.44-2.45.11-.32.12-.64,0-.96-.12-.28-.3-.38-.6-.31-.55.13-.92.5-1.2.95-.77,1.3-.91,2.72-.78,4.2"/><path class="cls-3" d="m201.42,42.83c-.36,1.05-1.14,1.78-1.97,2.44-1.27,1.02-2.65,1.87-4.15,2.5-.24.1-.52.17-.77.17-.59.02-.92-.59-.59-1.09.17-.25.41-.48.67-.63.88-.53,1.8-1,2.67-1.55.64-.4,1.25-.88,1.84-1.35.19-.16.32-.43.41-.68.17-.38.09-.57-.3-.73-.45-.19-.92-.32-1.38-.49-.57-.2-1.14-.39-1.7-.61-.65-.26-1.25-.62-1.75-1.21-.21.29-.41.55-.61.83-1.35,1.82-2.76,3.6-4.45,5.11-.59.53-1.25.99-1.92,1.41-1.15.71-2.55.28-3.34-.48-.84-.81-1.26-1.83-1.48-2.94-.48-2.43-.3-4.82.69-7.12.38-.88.89-1.67,1.79-2.13,1.36-.7,2.99.3,3,1.83,0,1.75-.66,3.26-1.75,4.57-.51.61-1.16,1.11-1.73,1.68-.07.07-.15.19-.15.27.11,1.03.41,1.98,1.12,2.75.61.7,1.18.8,2.06.45.75-.31,1.38-.8,1.97-1.33,1.69-1.51,3.1-3.3,4.44-5.12.06-.09.06-.26.02-.37-.6-1.63.58-4.05,2.21-4.44.47-.11,1-.03,1.48.02.35.04.45.29.26.58-.41.62-.86,1.22-1.29,1.82-.27.37-.54.73-.8,1.11-.3.44-.25.86.22,1.13.49.29,1.03.5,1.56.69.64.24,1.31.41,1.96.65.84.31,1.52.8,1.76,1.72v.51Zm-17.19-1.54c.17-.1.3-.16.4-.23,1.35-.93,1.99-2.25,2.1-3.85.03-.34.03-.74-.36-.87-.38-.14-.66.15-.87.44-.95,1.32-1.17,2.87-1.27,4.51"/><path class="cls-3" d="m169.34,39.33c-.57.87-1.12,1.71-1.71,2.52-1.05,1.45-2.19,2.8-3.7,3.8-.41.26-.88.48-1.35.61-.97.29-1.74-.13-2.18-1.11-.41-.91-.53-1.88-.55-2.86-.03-1.2,0-2.38.07-3.57.05-.91.22-1.81.76-2.59.29-.43.7-.68,1.24-.66.54.02.81.27.86.81.05.62-.02,1.22-.31,1.77-.44.82-.61,1.7-.69,2.6-.08.86-.11,1.74-.06,2.6.02.48.18.96.37,1.4.2.47.58.61,1.08.52.98-.19,1.74-.77,2.44-1.43,1.52-1.42,2.68-3.12,3.69-4.93.12-.21.11-.49.12-.74.09-1.12.17-2.24.52-3.32.03-.11.08-.22.13-.32.25-.54.61-.75,1.13-.65.48.09.95.6.98,1.09.03.42-.04.84-.31,1.14-.69.78-.82,1.75-.89,2.72-.06.96-.01,1.93-.01,2.99.08-.18.14-.29.19-.39.66-1.39,1.33-2.78,2.3-3.98.27-.34.58-.66.93-.91.65-.48,1.14-.3,1.42.47.26.74.3,1.51.32,2.29.03,1.29.24,2.55.71,3.77.04.1.08.2.13.28.4.8.88.99,1.65.55.58-.33,1.09-.8,1.63-1.21.16-.13.3-.28.47-.39.09-.06.27-.09.33-.03.07.05.11.24.07.33-.2.38-.4.77-.67,1.1-.56.72-1.25,1.31-2.06,1.73-1.16.61-2.17.34-2.88-.77-.57-.9-.85-1.91-1.1-2.93-.14-.59-.25-1.21-.39-1.8-.02-.13-.07-.24-.13-.47-.26.21-.49.36-.66.56-.71.88-1.13,1.93-1.65,2.93-.52,1-.65,2.05-.7,3.13,0,.15-.01.29-.01.42,0,.24-.14.35-.37.32-.44-.06-.86-.23-1.12-.6-.13-.18-.22-.45-.21-.67.05-1.9.11-3.79.17-5.68,0-.14,0-.27,0-.44"/><path class="cls-3" d="m162.41,28.7c.46,0,.9.06,1.24.4.68.68.46,1.72-.44,2.02-.55.18-1.09.16-1.59-.18-.44-.3-.64-.97-.46-1.55.16-.51.51-.7,1.25-.7"/><path class="cls-3" d="m122.72,46.93c-1.5-.62-1.81-1.96-2.02-3.32-.25-1.78-.16-3.54.38-5.26.4-1.24.95-2.38,1.93-3.28.63-.57,1.35-.93,2.22-.99.92-.04,1.55.38,1.97,1.15.46.88.52,1.82.37,2.78-.29,1.88-1.17,3.53-2.09,5.15-.11.2-.23.4-.34.6.03.02.06.04.08.06.27-.34.56-.66.81-1,.86-1.22,1.49-2.56,2.1-3.91.21-.47.44-.93.65-1.41.09-.19.16-.35.44-.26.26.09.49.18.46.51-.02.29-.04.57-.05.87-.04,1.37-.14,2.75.12,4.1.06.33.18.64.34.92.19.34.51.46.85.29.47-.26.92-.57,1.32-.92.4-.35.73-.77,1.11-1.15.11-.11.35-.21.43-.17.13.08.21.3.24.47.02.11-.04.27-.12.37-.85,1.16-1.72,2.32-2.9,3.17-.26.19-.58.33-.89.43-.46.15-.87-.03-1.15-.43-.4-.54-.55-1.18-.64-1.83-.1-.71-.15-1.43-.23-2.2-.15.29-.26.53-.39.77-.72,1.36-1.49,2.7-2.66,3.73-.52.45-1.1.78-1.82.78m-.78-5.89c.03.39.05.78.08,1.16.02.18.02.36.08.52.17.49.29,1,.55,1.44.3.5,1,.44,1.3-.07.08-.13.16-.26.23-.4.98-1.76,1.9-3.54,2.07-5.6.07-.82-.02-1.62-.52-2.31-.26-.35-.61-.5-1.07-.42-.63.12-1.06.5-1.39.99-.96,1.42-1.24,3.02-1.32,4.69"/><path class="cls-3" d="m159.01,41.62c-.72,1.5-1.61,2.9-2.79,4.08-.19.19-.42.36-.66.5-.57.33-1.09.21-1.48-.32-.43-.59-.63-1.29-.78-1.99-.16-.73-.26-1.48-.4-2.26-.05.1-.11.19-.15.28-.73,1.4-1.55,2.74-2.73,3.81-.49.46-1.05.82-1.71.96-1.09.23-1.93-.21-2.56-1.08-.63-.88-.86-1.89-.83-2.95.04-1.93.57-3.72,1.64-5.35.25-.38.56-.72.86-1.12-2.23-.1-4.39-.05-6.22,1.43-.84.69-1.46,1.54-1.96,2.49-.05.1-.05.23-.05.35.06,1.75.13,3.49.17,5.24,0,.25-.08.53-.19.76-.22.46-.87.54-1.14.12-.21-.33-.39-.74-.42-1.13-.05-.69,0-1.39.02-2.08,0-.27-.01-.55-.04-.83-.08-1.2-.18-2.39-.27-3.58-.05-.78-.61-1.36-1.38-1.47-.37-.04-.75-.07-1.11-.16-.26-.06-.43-.26-.43-.56,0-.29.14-.5.4-.59.76-.29,2.65-.21,3.42.59.24.26.39.61.56.93.06.12.08.26.12.38.38-.55.72-1.12,1.15-1.62,1.01-1.18,2.3-1.61,3.81-1.32.95.18,1.9.41,2.85.59.61.11,1.19.11,1.77-.29.78-.53,1.7-.74,2.66-.6.57.08.92.55.81,1.11-.02.14-.23.32-.37.33-.46.05-.94.1-1.39.03-.6-.09-1.03.09-1.43.54-1.01,1.12-1.57,2.44-1.85,3.9-.17.91-.16,1.8.19,2.67.38.95,1.21,1.32,2.15.92.87-.36,1.53-.99,2.05-1.75.5-.69.92-1.45,1.36-2.18.08-.14.12-.34.11-.51-.23-4.27-.24-8.53-.12-12.8.05-1.67.18-3.34.33-5,.05-.61.29-1.19.44-1.79h.47c.09.03.18.06.28.09.8.23,1.22.87,1.11,1.68-.14,1.12-.28,2.24-.38,3.36-.16,1.81-.3,3.62-.42,5.43-.21,2.86-.25,5.73-.1,8.6.05,1.01.17,2.02.32,3.03.07.45.23.9.42,1.32.19.41.5.45.86.16.16-.13.32-.28.44-.45.57-.73,1.13-1.47,1.69-2.22.2-.26.4-.51.66-.85.11.25.18.43.25.61v.53Z"/><path class="cls-4" d="m115.12,46.72s2.19-1.86,3.12-4.82c.82-2.61.99-8.48,1.04-11.11.06-2.63-.16-6.25-.32-7.83-.17-1.59-.61-2.58-1.37-1.86-.76.71-.93,1.21-.71,3.55.22,2.36.6,6.62.6,8.05s.2,4.77-.27,7.5c-.19,1.12-1.04,3.67-1.64,4-.6.33-1.23.21-2.24.98-1.15.87-.67,2.36,0,2.35.88,0,1.81-.82,1.81-.82"/></svg>