<?xml version="1.0" encoding="UTF-8"?><svg id="Capa_1" xmlns="http://www.w3.org/2000/svg" viewBox="0 0 300 210"><defs><style>.cls-1{fill:#008093;}.cls-2{fill:#081f2d;}.cls-3{fill:#026b8a;}.cls-4{fill:#002e6d;}.cls-5{fill:#00bed6;}.cls-6{fill:#95d4e9;}</style></defs><polygon class="cls-5" points="134.17 38.23 126.6 20.25 132.65 14 138.71 20.25 134.17 38.23"/><polygon class="cls-6" points="146.09 35.01 134.17 38.23 138.71 20.25 146.09 35.01"/><polygon class="cls-5" points="147.42 47.31 134.17 38.23 146.09 35.01 147.42 47.31"/><polygon class="cls-1" points="141.74 68.51 134.17 38.23 147.41 47.31 141.74 68.51"/><polygon class="cls-2" points="132.65 79.49 134.17 38.23 141.73 68.51 132.65 79.49"/><polygon class="cls-4" points="123.57 68.51 134.17 38.23 132.65 79.49 123.57 68.51"/><polygon class="cls-3" points="117.89 47.31 134.17 38.23 123.57 68.51 117.89 47.31"/><polygon class="cls-4" points="119.21 35.01 134.17 38.23 117.89 47.31 119.21 35.01"/><polygon class="cls-1" points="126.6 20.25 134.17 38.23 119.21 35.01 126.6 20.25"/><polygon class="cls-5" points="164.87 64.4 174.83 55.91 173.09 50.34 167.57 52.25 164.87 64.4"/><polygon class="cls-6" points="158.7 58.87 164.87 64.4 167.58 52.25 158.7 58.87"/><polygon class="cls-5" points="154.19 65.84 164.87 64.4 158.7 58.87 154.19 65.84"/><polygon class="cls-1" points="151.19 80.25 164.86 64.4 154.19 65.84 151.19 80.25"/><polygon class="cls-2" points="153.32 89.57 164.87 64.39 151.19 80.25 153.32 89.57"/><polygon class="cls-4" points="162.08 85.74 164.86 64.4 153.32 89.57 162.08 85.74"/><polygon class="cls-3" points="171.88 74.75 164.87 64.4 162.08 85.74 171.88 74.75"/><polygon class="cls-4" points="174.8 66.98 164.86 64.4 171.88 74.75 174.8 66.98"/><polygon class="cls-1" points="174.83 55.91 164.87 64.4 174.8 66.98 174.83 55.91"/><polygon class="cls-5" points="100.09 64.4 90.13 55.91 91.87 50.34 97.39 52.25 100.09 64.4"/><polygon class="cls-6" points="106.26 58.87 100.1 64.4 97.38 52.25 106.26 58.87"/><polygon class="cls-5" points="110.77 65.84 100.09 64.4 106.27 58.87 110.77 65.84"/><polygon class="cls-1" points="113.77 80.25 100.1 64.4 110.77 65.84 113.77 80.25"/><polygon class="cls-2" points="111.64 89.57 100.1 64.39 113.77 80.25 111.64 89.57"/><polygon class="cls-4" points="102.89 85.74 100.09 64.4 111.64 89.57 102.89 85.74"/><polygon class="cls-3" points="93.09 74.75 100.09 64.4 102.89 85.74 93.09 74.75"/><polygon class="cls-4" points="90.17 66.98 100.09 64.4 93.09 74.75 90.17 66.98"/><polygon class="cls-1" points="90.13 55.91 100.1 64.4 90.17 66.98 90.13 55.91"/><path class="cls-2" d="m268.35,154.51c-.68.67-1.47,1.2-2.36,1.58-.89.38-1.83.56-2.82.56s-1.92-.18-2.81-.56c-.89-.38-1.68-.9-2.36-1.58-.7-.71-1.23-1.5-1.6-2.39-.36-.89-.55-1.83-.55-2.81s.18-1.9.55-2.79c.36-.9.9-1.69,1.6-2.39.68-.67,1.47-1.2,2.36-1.58.89-.37,1.83-.56,2.81-.56s1.92.19,2.82.56c.89.38,1.68.91,2.36,1.58.13.13.22.23.27.3v-7.17h1.87v12.05c0,.98-.18,1.92-.54,2.81-.36.9-.9,1.69-1.6,2.39m-5.18-10.65c-.75,0-1.45.14-2.12.43s-1.24.67-1.73,1.17c-.5.49-.88,1.07-1.17,1.73-.29.67-.43,1.37-.43,2.12s.14,1.46.43,2.14c.29.67.67,1.25,1.17,1.74.49.49,1.07.89,1.73,1.17.66.29,1.37.43,2.12.43s1.46-.14,2.12-.43c.66-.28,1.24-.67,1.73-1.17.49-.49.88-1.07,1.17-1.74.29-.67.44-1.38.44-2.14s-.15-1.45-.44-2.12c-.29-.66-.68-1.24-1.17-1.73-.49-.49-1.07-.88-1.73-1.17s-1.37-.43-2.12-.43"/><path class="cls-2" d="m277.48,149.38c0,.75.15,1.45.45,2.1.29.65.68,1.22,1.17,1.7.49.48,1.07.87,1.72,1.15.65.29,1.36.43,2.1.43,1.02,0,1.95-.25,2.79-.76.84-.51,1.49-1.18,1.96-2.03h2.09c-.38.95-.93,1.79-1.66,2.53-.7.67-1.49,1.2-2.38,1.58-.88.38-1.82.56-2.8.56s-1.92-.18-2.82-.56c-.89-.38-1.68-.9-2.36-1.58-.7-.71-1.23-1.49-1.6-2.38-.36-.88-.54-1.82-.54-2.8s.18-1.92.54-2.81c.37-.9.9-1.69,1.6-2.36.68-.7,1.47-1.23,2.36-1.61.89-.37,1.83-.56,2.82-.56s1.92.19,2.8.56c.88.38,1.68.91,2.38,1.61.7.68,1.23,1.47,1.6,2.39.36.91.54,1.86.54,2.85h-12.77Zm5.45-5.53c-.59,0-1.16.09-1.69.26-.54.18-1.03.44-1.48.76s-.83.7-1.18,1.15c-.34.45-.61.94-.8,1.48h10.27c-.39-1.08-1.05-1.95-1.97-2.63-.93-.68-1.97-1.02-3.15-1.02"/><path class="cls-2" d="m48.17,171.72c0,9.76-8.12,22.94-23.2,22.94-6.24,0-11.29-2.66-15.21-7.24l4.85-7.44c3.25,3.45,6.97,5.18,9.83,5.18,10.15,0,13.18-9.72,13.18-13.7v-52.65H14.01v-8.9h34.16v61.81Z"/><path class="cls-2" d="m108.68,133.15c0,13.41-10.75,23.7-24.97,23.7s-24.97-10.23-24.97-23.7,10.76-23.58,24.97-23.58,24.97,10.09,24.97,23.58m-39.18,0c0,8.16,6.58,14.54,14.34,14.54s14.08-6.38,14.08-14.54-6.31-14.41-14.08-14.41-14.34,6.24-14.34,14.41"/><polygon class="cls-2" points="137.86 156.39 127.37 156.39 127.37 141.65 110.17 109.9 120.73 109.9 132.61 130.76 144.24 109.9 154.79 109.9 137.86 141.38 137.86 156.39"/><path class="cls-2" d="m167.63,147.36l-3.65,9.03h-10.82l20.18-46.48h10.83l19.85,46.48h-11.22l-3.65-9.03h-21.52Zm10.83-26.5l-7.37,18.06h14.68l-7.31-18.06Z"/><path class="cls-2" d="m246.91,114.49l-4.05,8.7c-4.92-2.92-10.76-4.78-14.48-4.78-3.52,0-5.9,1.26-5.9,3.79,0,8.56,24.77,3.78,24.7,20.51,0,9.1-7.9,14.01-18.19,14.01-7.63,0-15.28-2.92-20.52-7.37l4.18-8.57c4.79,4.25,11.55,6.97,16.47,6.97,4.32,0,6.91-1.59,6.91-4.44,0-8.77-24.78-3.66-24.78-20.12,0-8.43,7.25-13.74,18-13.74,6.5,0,13.02,1.99,17.66,5.05"/><polygon class="cls-1" points="84.67 179.99 70.95 179.99 70.95 164.66 67.66 164.66 67.66 195.01 70.95 195.01 70.95 183.28 84.67 183.28 84.67 195.01 87.96 195.01 87.96 164.66 84.67 164.66 84.67 179.99"/><path class="cls-1" d="m112.82,186.24c0,.89-.18,1.73-.53,2.52-.34.78-.82,1.47-1.41,2.07-.59.58-1.27,1.05-2.06,1.38-.78.33-1.63.5-2.52.5s-1.74-.17-2.53-.5c-.78-.33-1.47-.8-2.05-1.38-.59-.59-1.07-1.29-1.41-2.07-.35-.78-.53-1.62-.53-2.52v-12.98h-3.29v12.98c0,1.3.24,2.56.74,3.75.49,1.19,1.21,2.26,2.13,3.18.93.93,2.01,1.64,3.19,2.11,1.19.48,2.45.72,3.75.72s2.56-.24,3.75-.72c1.18-.47,2.25-1.19,3.18-2.12.92-.92,1.65-1.99,2.14-3.18s.74-2.45.74-3.75v-12.98h-3.29v12.98Z"/><path class="cls-1" d="m125.86,165.39c-.56,0-1.02.19-1.39.58-.37.38-.55.85-.55,1.41s.18,1.02.56,1.39c.36.37.83.56,1.39.56s1.03-.18,1.41-.55c.39-.37.58-.85.58-1.39s-.19-1.03-.58-1.41c-.38-.39-.85-.58-1.41-.58"/><rect class="cls-1" x="124.21" y="173.25" width="3.29" height="21.77"/><path class="cls-1" d="m155.31,174.96c-.93-.92-2-1.64-3.18-2.12-1.2-.47-2.45-.72-3.75-.72s-2.5.27-3.63.79c-1.06.49-2.04,1.2-2.92,2.12l-.48-1.79h-2.74v21.76h3.29v-13.11c0-.9.17-1.75.5-2.53.34-.78.81-1.47,1.39-2.06.59-.59,1.28-1.05,2.06-1.39.78-.33,1.63-.5,2.52-.5s1.74.17,2.52.5c.78.34,1.47.8,2.05,1.39.59.58,1.07,1.28,1.41,2.06.35.78.53,1.63.53,2.52v13.11h3.29v-13.11c0-1.31-.25-2.57-.74-3.75-.49-1.18-1.21-2.25-2.13-3.18"/><path class="cls-1" d="m186.55,175.69c-1.09-1.1-2.38-1.96-3.82-2.57-1.44-.61-2.98-.91-4.57-.91s-3.13.3-4.57.91c-1.45.61-2.74,1.47-3.83,2.57-1.12,1.12-2,2.43-2.59,3.87-.59,1.44-.89,2.97-.89,4.56s.3,3.08.89,4.52c.59,1.44,1.46,2.75,2.59,3.88,1.09,1.09,2.37,1.96,3.83,2.56,1.45.61,2.98.91,4.57.91.74,0,1.53-.07,2.34-.22.8-.14,1.6-.38,2.37-.72.78-.34,1.52-.78,2.2-1.3.59-.46,1.15-1.03,1.66-1.69v2.94h3.29v-10.88c0-1.59-.3-3.12-.89-4.56-.59-1.45-1.46-2.75-2.59-3.87m.19,8.43c0,1.18-.23,2.3-.67,3.34-.45,1.04-1.07,1.96-1.84,2.72-.77.77-1.68,1.39-2.73,1.84-1.03.45-2.16.67-3.33.67s-2.3-.22-3.34-.67c-1.04-.45-1.96-1.07-2.72-1.84-.78-.77-1.4-1.69-1.84-2.72-.45-1.04-.67-2.16-.67-3.34s.23-2.31.67-3.36c.45-1.05,1.07-1.97,1.84-2.75.77-.77,1.69-1.39,2.72-1.83,1.04-.45,2.16-.68,3.34-.68s2.3.23,3.33.68c1.04.45,1.96,1.06,2.73,1.83.77.77,1.39,1.7,1.84,2.75.45,1.05.67,2.18.67,3.36"/><rect class="cls-1" x="199.41" y="164.65" width="3.29" height="30.36"/><polygon class="cls-1" points="234.76 161.22 229.74 169.88 229.61 170.1 233.12 170.1 238.14 161.44 238.27 161.22 234.76 161.22"/><path class="cls-1" d="m231.07,175.69c-1.1-1.1-2.39-1.96-3.83-2.57-1.44-.61-2.98-.91-4.57-.91s-3.13.3-4.57.91c-1.45.61-2.73,1.47-3.83,2.57-1.12,1.12-2,2.43-2.59,3.87-.6,1.44-.89,2.98-.89,4.56s.3,3.08.89,4.52c.59,1.44,1.46,2.75,2.59,3.88,1.09,1.1,2.38,1.96,3.83,2.56,1.45.61,2.98.91,4.57.91.74,0,1.54-.07,2.34-.22.8-.14,1.6-.38,2.37-.72.77-.33,1.51-.77,2.2-1.3.6-.46,1.15-1.03,1.66-1.69v2.94h3.29v-10.88c0-1.58-.3-3.12-.89-4.56-.6-1.44-1.47-2.75-2.59-3.87m.18,8.43c0,1.18-.23,2.3-.67,3.34-.45,1.03-1.07,1.96-1.84,2.72-.77.77-1.69,1.39-2.72,1.84-1.04.45-2.16.67-3.34.67s-2.3-.22-3.34-.67c-1.04-.45-1.96-1.07-2.73-1.84-.77-.77-1.39-1.69-1.83-2.72-.45-1.04-.68-2.16-.68-3.34s.23-2.32.68-3.36c.45-1.05,1.06-1.98,1.83-2.75.77-.77,1.69-1.39,2.73-1.83,1.03-.45,2.16-.68,3.34-.68s2.3.23,3.34.68c1.03.44,1.95,1.06,2.72,1.83.77.78,1.39,1.7,1.84,2.75.45,1.05.67,2.18.67,3.36"/></svg>