<?xml version="1.0" encoding="UTF-8"?><svg id="Capa_1" xmlns="http://www.w3.org/2000/svg" viewBox="0 0 300 160"><defs><style>.cls-1{fill:#ef7f11;}.cls-2{fill:#42bbcb;}.cls-3{fill:#0c3148;}.cls-4{fill:#ea5a62;}</style></defs><path class="cls-1" d="m35.66,146.78v-12.48h5.3c1.33,0,2.3.11,2.91.34.6.22,1.09.62,1.45,1.2.36.57.54,1.23.54,1.97,0,.94-.28,1.71-.83,2.32-.55.61-1.37.99-2.47,1.15.54.32.99.67,1.35,1.05s.83,1.06,1.43,2.03l1.52,2.44h-3.01l-1.82-2.72c-.65-.97-1.09-1.58-1.33-1.83-.24-.25-.49-.43-.76-.52s-.69-.14-1.27-.14h-.51v5.21h-2.52Zm2.52-7.2h1.86c1.21,0,1.96-.05,2.27-.15.3-.1.54-.28.71-.53.17-.25.26-.56.26-.94,0-.42-.11-.76-.34-1.02-.23-.26-.54-.42-.95-.49-.2-.03-.82-.04-1.84-.04h-1.97v3.17Z"/><path class="cls-1" d="m59.53,146.78v-12.48h9.26v2.11h-6.74v2.77h6.27v2.1h-6.27v3.4h6.97v2.1h-9.49Z"/><path class="cls-1" d="m81.54,142.72l2.45-.24c.15.82.45,1.43.9,1.81.45.39,1.06.58,1.83.58.81,0,1.42-.17,1.83-.51.41-.34.62-.75.62-1.21,0-.3-.09-.55-.26-.75-.17-.21-.48-.39-.91-.54-.3-.1-.97-.28-2.02-.55-1.35-.33-2.3-.75-2.84-1.23-.77-.69-1.15-1.52-1.15-2.51,0-.64.18-1.23.54-1.78.36-.55.88-.97,1.56-1.26s1.5-.43,2.46-.43c1.57,0,2.75.34,3.54,1.03.79.69,1.21,1.6,1.25,2.75l-2.52.11c-.11-.64-.34-1.1-.69-1.38-.35-.28-.89-.42-1.6-.42s-1.31.15-1.72.45c-.27.19-.4.45-.4.78,0,.3.12.55.37.76.32.27,1.09.55,2.32.83,1.23.29,2.13.59,2.72.9.59.31,1.05.73,1.38,1.27s.5,1.2.5,1.99c0,.72-.2,1.39-.6,2.01s-.96,1.09-1.69,1.39c-.73.3-1.63.46-2.72.46-1.58,0-2.79-.36-3.64-1.09-.85-.73-1.35-1.79-1.52-3.19Z"/><path class="cls-1" d="m104.97,146.78v-12.48h2.52v12.48h-2.52Z"/><path class="cls-1" d="m121.24,134.3h4.61c1.04,0,1.83.08,2.38.24.73.22,1.36.6,1.88,1.15.52.55.92,1.22,1.19,2.02s.41,1.78.41,2.95c0,1.03-.13,1.91-.38,2.66-.31.91-.76,1.64-1.34,2.21-.44.43-1.03.76-1.77,1-.56.18-1.3.26-2.23.26h-4.74v-12.48Zm2.52,2.11v8.27h1.88c.7,0,1.21-.04,1.52-.12.41-.1.75-.28,1.02-.52.27-.24.49-.65.66-1.2s.26-1.32.26-2.29-.08-1.71-.26-2.22c-.17-.52-.41-.92-.72-1.21s-.7-.49-1.17-.59c-.35-.08-1.04-.12-2.07-.12h-1.13Z"/><path class="cls-1" d="m145.08,146.78v-12.48h9.26v2.11h-6.74v2.77h6.27v2.1h-6.27v3.4h6.97v2.1h-9.49Z"/><path class="cls-1" d="m167.95,146.78v-12.48h2.45l5.11,8.34v-8.34h2.34v12.48h-2.53l-5.03-8.14v8.14h-2.34Z"/><path class="cls-1" d="m199.67,142.19l2.44.77c-.37,1.36-1,2.37-1.87,3.04-.87.66-1.98.99-3.32.99-1.66,0-3.02-.57-4.09-1.7-1.07-1.13-1.6-2.68-1.6-4.64,0-2.08.54-3.69,1.61-4.84,1.07-1.15,2.48-1.72,4.23-1.72,1.53,0,2.77.45,3.72,1.35.57.53.99,1.3,1.28,2.3l-2.5.6c-.15-.65-.46-1.16-.92-1.53-.47-.37-1.04-.56-1.71-.56-.93,0-1.68.33-2.25,1-.58.66-.86,1.74-.86,3.23,0,1.58.28,2.7.85,3.37.57.67,1.31,1,2.21,1,.67,0,1.25-.21,1.73-.64.48-.43.83-1.1,1.04-2.01Z"/><path class="cls-1" d="m215.31,146.78v-12.48h2.52v12.48h-2.52Z"/><path class="cls-1" d="m242.88,146.78h-2.74l-1.09-2.84h-4.99l-1.03,2.84h-2.67l4.86-12.48h2.67l5,12.48Zm-4.64-4.94l-1.72-4.63-1.69,4.63h3.41Z"/><path class="cls-1" d="m255.55,146.78v-12.38h2.52v10.28h6.27v2.1h-8.79Z"/><path class="cls-3" d="m19.13,84.02v27.4h15.88v8.93H9.06v-36.33h10.07Z"/><path class="cls-3" d="m48.87,121.03c-1.66,0-3.32-.31-4.98-.93-4.84-2.44-7.27-6.85-7.27-13.24v-.31c0-2.58.59-4.9,1.76-6.95,2.54-3.88,5.87-5.81,9.97-5.81h1.35c2.2,0,4.29.83,6.28,2.49v-2.39h10.38l-.03,26.47h-10.41v-1.82h-.1c-1.99,1.66-4.31,2.49-6.96,2.49Zm-1.25-13.44c0,1.57.17,2.8.52,3.69.62,1.45,1.87,2.18,3.74,2.18.36-.07.71-.1,1.04-.1,2.21-.43,3.32-2.42,3.32-5.97-.07-2.61-.31-4.1-.73-4.46,0-.88-1.11-1.44-3.32-1.66h-.62c-.5,0-1.13.1-1.87.31-1.38.92-2.08,2.65-2.08,5.19v.83Z"/><path class="cls-3" d="m93.45,115.17l-1.92,5.19h-11l14.53-36.33h9.34l14.53,36.33h-11l-1.84-5.19h-12.64Zm9.89-7.79l-3.43-9.65-3.58,9.65h7.01Z"/><path class="cls-3" d="m137.4,120.36v-13.81c0-2.58-.9-4.17-2.7-4.78-.38-.07-.69-.1-.93-.1h-.62c-.97,0-1.75,1.07-2.34,3.22-.07.26-.1.57-.1.93v14.53h-9.86v-26.47h9.86v3.32c1.49-2.84,3.72-4.26,6.7-4.26h.73c3.24,0,5.93,1.54,8.1,4.62.73-1.25,2.09-2.49,4.1-3.74,1.04-.59,2.23-.88,3.58-.88h.73c4.27,0,7.15,2.15,8.62,6.44.28,1.3.42,2.47.42,3.53v17.44h-9.76v-13.81c0-2.58-.9-4.17-2.7-4.78-.38-.07-.69-.1-.93-.1h-.62c-.97,0-1.75,1.07-2.34,3.22-.07.26-.1.57-.1.93v14.53h-9.81Z"/><path class="cls-3" d="m167.18,91.29v-7.27h10.38v7.27h-10.38Zm10.38,2.6v26.47h-10.38v-26.47h10.38Z"/><path class="cls-3" d="m192.03,92.69h1.22c3.74,0,7.53,1.04,11.39,3.11,0,.17-1.13,2.25-3.4,6.23l-3.55-.99c-1.7-.48-3.12-.73-4.28-.73h-.65c-1.06,0-1.68.45-1.87,1.35,0,.57,1.38,1.16,4.15,1.76,3.94,1.07,6.56,2.2,7.84,3.37,1.61,1.4,2.41,3.27,2.41,5.61,0,4.83-2.85,7.84-8.54,9.03-1.26.14-2.28.21-3.06.21h-.78c-4.9,0-9.39-1.35-13.47-4.05v-.1c2.46-3.86,3.74-5.8,3.84-5.81h.1c2.92,1.56,5.86,2.34,8.82,2.34h.65c1.54,0,2.31-.35,2.31-1.04,0-.97-1.83-1.8-5.48-2.49-4.01-1.07-6.63-2.58-7.84-4.52-.73-1.28-1.09-2.63-1.09-4.05,0-4.69,2.85-7.7,8.54-9.03,1.09-.14,2-.21,2.72-.21Z"/><path class="cls-3" d="m209.52,93.89v-9.6h10.38v9.6h7.76v7.32h-7.76v7.11c0,1.19.38,2.32,1.14,3.37.59.83,2.79,1.34,6.62,1.53v7.14h-4.2c-2.42,0-4.84-.41-7.27-1.25-4.45-2.16-6.67-6.45-6.67-12.87v-5.03h-2.62v-7.32h2.62Z"/><path class="cls-3" d="m241.35,121.03c-1.66,0-3.32-.31-4.98-.93-4.84-2.44-7.27-6.85-7.27-13.24v-.31c0-2.58.59-4.9,1.76-6.95,2.54-3.88,5.87-5.81,9.97-5.81h1.35c2.2,0,4.29.83,6.28,2.49v-2.39h10.38l-.03,26.47h-10.41v-1.82h-.1c-1.99,1.66-4.31,2.49-6.95,2.49Zm-1.25-13.44c0,1.57.17,2.8.52,3.69.62,1.45,1.87,2.18,3.74,2.18.36-.07.71-.1,1.04-.1,2.21-.43,3.32-2.42,3.32-5.97-.07-2.61-.31-4.1-.73-4.46,0-.88-1.11-1.44-3.32-1.66h-.62c-.5,0-1.13.1-1.87.31-1.38.92-2.08,2.65-2.08,5.19v.83Z"/><path class="cls-3" d="m273.45,121.03c-1.66,0-3.32-.31-4.98-.93-4.84-2.44-7.27-6.85-7.27-13.24v-.31c0-2.58.59-4.9,1.76-6.95,2.54-3.88,5.87-5.81,9.97-5.81h1.35c2.2,0,4.29.83,6.28,2.49v-12.25h10.38l-.03,36.33h-10.41v-1.82h-.1c-1.99,1.66-4.31,2.49-6.95,2.49Zm-1.25-13.44c0,1.57.17,2.8.52,3.69.62,1.45,1.87,2.18,3.74,2.18.36-.07.71-.1,1.04-.1,2.21-.43,3.32-2.42,3.32-5.97-.07-2.61-.31-4.1-.73-4.46,0-.88-1.11-1.44-3.32-1.66h-.62c-.5,0-1.12.1-1.87.31-1.38.92-2.08,2.65-2.08,5.19v.83Z"/><path class="cls-1" d="m155.91,16.31c-1.96-3.19-6.05-4.24-9.31-2.41l-.06.03c-.06.03-.12.06-.18.1-.03.02-.06.04-.08.05-3.19,2.02-4.18,6.28-2.2,9.49.97,1.58,2.5,2.68,4.3,3.11.54.13,1.09.19,1.63.19,1.27,0,2.51-.35,3.61-1.03,1.58-.97,2.68-2.5,3.11-4.3.43-1.8.13-3.67-.83-5.24Z"/><path class="cls-1" d="m183.42,40.79c1.13.69,2.38,1.03,3.62,1.03,2.33,0,4.61-1.17,5.92-3.3,1.98-3.22.99-7.47-2.19-9.48-.03-.02-.05-.04-.09-.06-.06-.03-.11-.07-.17-.1l-.06-.03c-3.26-1.84-7.35-.78-9.31,2.41-2,3.26-.98,7.54,2.28,9.54Z"/><path class="cls-1" d="m118.86,31.24c-1.96-3.19-6.05-4.24-9.31-2.41l-.06.03c-.06.03-.12.06-.17.1-.03.02-.06.04-.09.06-3.18,2.01-4.17,6.27-2.19,9.48,1.31,2.13,3.59,3.3,5.92,3.3,1.24,0,2.49-.33,3.62-1.03,3.26-2,4.28-6.28,2.28-9.54Z"/><path class="cls-4" d="m204.15,46.28c0-.72-.04-1.44-.1-2.14-.61-.05-1.22-.08-1.84-.08-13.19,0-23.89,10.7-23.89,23.89,0,.72.04,1.44.1,2.14.61.05,1.22.08,1.84.08,13.19,0,23.89-10.7,23.89-23.89Z"/><path class="cls-4" d="m174.88,36.43c0-4.52-1.26-8.75-3.44-12.35-8.83,3.51-15.07,12.12-15.07,22.2,0,4.52,1.26,8.75,3.44,12.35,8.83-3.51,15.07-12.12,15.07-22.2Z"/><path class="cls-2" d="m95.85,46.28c0-.72.04-1.44.1-2.14.61-.05,1.22-.08,1.84-.08,13.19,0,23.89,10.7,23.89,23.89,0,.72-.04,1.44-.1,2.14-.61.05-1.22.08-1.84.08-13.19,0-23.89-10.7-23.89-23.89Z"/><path class="cls-2" d="m125.12,36.43c0-4.52,1.26-8.75,3.44-12.35,8.83,3.51,15.07,12.12,15.07,22.2,0,4.52-1.26,8.75-3.44,12.35-8.83-3.51-15.07-12.12-15.07-22.2Z"/></svg>