<?xml version="1.0" encoding="UTF-8"?><svg xmlns="http://www.w3.org/2000/svg" xmlns:xlink="http://www.w3.org/1999/xlink" viewBox="0 0 300 77"><defs><style>.cls-1{isolation:isolate;}.cls-2{fill:#53883e;}.cls-3{clip-path:url(#clippath-1);}.cls-4{fill:url(#Degradado_sin_nombre_3);}.cls-5{fill:#9b8a73;}.cls-6{mix-blend-mode:multiply;opacity:.31;}.cls-7{clip-path:url(#clippath);}.cls-8{fill:#7fb960;}.cls-9{fill:none;}.cls-10{fill:#4d4015;}.cls-11{fill:#cae0b6;}</style><clipPath id="clippath"><path class="cls-9" d="m205.6,24.57c-2.15,4.67-7.6,8.8-4.25,13.98,1.48.88,4.36,1.47,6.46.93,5.7-1.45,7.69-6.51,7.52-11.88-.24-7.47-4.2-12.89-9.67-17.6,2.14,4.73,2.12,9.81-.07,14.57"/></clipPath><radialGradient id="Degradado_sin_nombre_3" cx="-6065.2" cy="1547.25" fx="-6065.2" fy="1547.25" r="3.12" gradientTransform="translate(-46823.26 -11974.75) rotate(180) scale(7.76 -7.76)" gradientUnits="userSpaceOnUse"><stop offset="0" stop-color="#b3d39b"/><stop offset=".09" stop-color="#a0c986"/><stop offset=".24" stop-color="#85bc68"/><stop offset=".4" stop-color="#70b150"/><stop offset=".57" stop-color="#60a940"/><stop offset=".76" stop-color="#57a536"/><stop offset="1" stop-color="#55a433"/></radialGradient><clipPath id="clippath-1"><rect class="cls-9" x="202.99" y="12.51" width="7.74" height="25.73"/></clipPath></defs><g class="cls-1"><g id="Capa_1"><path class="cls-5" d="m73.16,56.21h2.77c1.66,0,2.43.2,2.98.54.86.52,1.45,1.65,1.45,2.85.02.72-.19,1.48-.63,2.08-.63.86-1.39,1.06-2.37,1.16l2.63,3.97h-1.29l-2.99-4.63h.35c.74,0,1.77-.01,2.35-.54.56-.55.8-1.19.8-1.95s-.39-1.62-1.05-2.05c-.53-.34-1.19-.39-2.15-.39h-1.66v9.56h-1.19v-10.6Z"/><polygon class="cls-5" points="88.66 56.21 94.54 56.21 94.54 57.26 89.84 57.26 89.84 60.94 94.51 60.94 94.51 61.99 89.84 61.99 89.84 65.77 94.54 65.77 94.54 66.81 88.66 66.81 88.66 56.21"/><path class="cls-5" d="m104.08,63.86c.17,1.76,1.46,2.14,2.12,2.14,1.1,0,2.12-.85,2.12-2.02,0-1.49-1.27-1.82-2.5-2.22-.86-.26-2.71-.81-2.71-2.81-.03-1.88,1.53-2.92,3.15-2.92,1.32,0,2.84.73,3.01,2.73h-1.17c-.13-.69-.47-1.73-1.88-1.73-1.06,0-1.94.71-1.94,1.82-.01,1.29,1.03,1.6,2.64,2.15,1,.39,2.58.95,2.58,2.9,0,1.73-1.3,3.11-3.28,3.11-1.78,0-3.25-1.12-3.32-3.14h1.19Z"/><rect class="cls-5" x="118.08" y="56.21" width="1.18" height="10.6"/><path class="cls-5" d="m128.38,56.21h3.17c1.5,0,3.11.33,4.17,1.59.86.95,1.28,2.19,1.28,3.7,0,3.19-1.82,5.31-5.39,5.31h-3.22v-10.6Zm1.18,9.56h2.11c2.72,0,4.14-1.68,4.14-4.23,0-1.23-.33-2.32-1.03-3.09-.67-.71-1.66-1.19-3.11-1.19h-2.11v8.51Z"/><polygon class="cls-5" points="145.06 56.21 150.94 56.21 150.94 57.26 146.24 57.26 146.24 60.94 150.91 60.94 150.91 61.99 146.24 61.99 146.24 65.77 150.94 65.77 150.94 66.81 145.06 66.81 145.06 56.21"/><polygon class="cls-5" points="167.23 65.07 167.21 56.21 168.36 56.21 168.36 66.81 167.21 66.81 160.92 57.89 160.95 66.81 159.81 66.81 159.81 56.21 161.01 56.21 167.23 65.07"/><path class="cls-5" d="m186.28,63.96c-.69,1.63-2.53,3.04-4.87,3.04-3.13,0-5.53-2.42-5.53-5.49s2.34-5.48,5.52-5.48c2.62,0,4.27,1.75,4.88,3.09h-1.27c-.36-.63-1.56-2.05-3.61-2.05-2.48,0-4.34,1.96-4.34,4.43s1.88,4.45,4.34,4.45c2.22,0,3.35-1.59,3.61-1.99h1.27Z"/><rect class="cls-5" x="194.83" y="56.21" width="1.17" height="10.6"/><path class="cls-5" d="m204.75,66.81h-1.27l4.43-10.6h1.15l4.39,10.6h-1.29l-1.23-2.98h-4.94l-1.22,2.98Zm3.68-9.27l-2.11,5.31h4.23l-2.12-5.31Z"/><polygon class="cls-5" points="221.61 56.21 222.8 56.21 222.8 65.77 226.84 65.77 226.84 66.81 221.61 66.81 221.61 56.21"/><polygon class="cls-10" points="6.41 16.37 10.56 16.37 10.56 38.74 19.74 38.74 19.74 42.4 6.41 42.4 6.41 16.37"/><path class="cls-10" d="m23.6,29.53c0-8.19,6.29-13.65,13.61-13.65,7.77,0,13.64,6.02,13.64,13.5s-5.87,13.5-13.68,13.5-13.57-6.15-13.57-13.33v-.03Zm4.11-.14c0,5.41,4.01,9.85,9.56,9.85s9.42-4.75,9.42-9.81-3.76-9.88-9.46-9.88-9.53,4.57-9.53,9.81v.04Z"/><path class="cls-10" d="m60.46,34.7c.28,3.9,3.02,4.68,4.4,4.68,2.32,0,4.33-1.83,4.33-4.15,0-2.88-2.46-3.55-5.8-4.78-2.04-.67-6.58-2.18-6.58-7.07-.03-4.85,4.11-7.49,8.19-7.49,3.34,0,7.53,1.83,7.84,7.17h-4.08c-.28-1.41-.91-3.66-3.9-3.66-2.11,0-3.94,1.44-3.94,3.66,0,2.53,1.94,3.17,6.12,4.71,3.24,1.37,6.26,3.02,6.26,7.25s-2.85,7.88-8.4,7.88c-5.17,0-8.48-3.17-8.54-8.19h4.11Z"/><path class="cls-10" d="m94.18,16.37h7.35c4.08,0,6.19.56,7.56,1.51,2.15,1.41,3.45,4.11,3.45,7.03,0,1.83-.53,3.59-1.48,4.96-1.34,1.87-3.02,2.5-5.03,2.85l6.12,9.67h-4.4l-7.14-11.75h.91c1.8,0,3.98-.07,5.2-1.12,1.2-1.06,1.8-2.57,1.8-4.25s-.85-3.48-2.22-4.4c-1.13-.7-2.57-.84-4.43-.84h-3.55v22.37h-4.15v-26.02Z"/><rect class="cls-10" x="119.26" y="16.37" width="4.15" height="26.02"/><polygon class="cls-10" points="149.91 36.17 149.84 16.37 153.85 16.37 153.85 42.4 150.05 42.4 136.44 22.56 136.51 42.4 132.51 42.4 132.51 16.37 136.41 16.37 149.91 36.17"/><path class="cls-10" d="m186.11,34.48c-1.62,4.75-6.44,8.4-12.34,8.4-7.84,0-13.61-6.15-13.61-13.54s5.52-13.47,13.57-13.47c7,.04,11.15,4.96,12.42,8.54h-4.4c-.84-1.69-3.48-4.85-8.05-4.89-5.52,0-9.39,4.54-9.39,9.81s3.94,9.88,9.42,9.88c5.03,0,7.46-3.8,8.02-4.75h4.36Z"/><path class="cls-10" d="m192.16,29.53c0-8.19,6.29-13.65,13.61-13.65,7.77,0,13.64,6.02,13.64,13.5s-5.88,13.5-13.68,13.5-13.57-6.15-13.57-13.33v-.03Zm4.11-.14c0,5.41,4.01,9.85,9.56,9.85s9.43-4.75,9.43-9.81-3.76-9.88-9.46-9.88-9.53,4.57-9.53,9.81v.04Z"/><polygon class="cls-10" points="243.06 36.17 242.99 16.37 247 16.37 247 42.4 243.2 42.4 229.59 22.56 229.66 42.4 225.65 42.4 225.65 16.37 229.56 16.37 243.06 36.17"/><polygon class="cls-10" points="255.54 16.37 270.1 16.37 270.1 20.03 259.69 20.03 259.69 27.42 269.96 27.42 269.96 31.04 259.69 31.04 259.69 38.74 270.1 38.74 270.1 42.4 255.54 42.4 255.54 16.37"/><path class="cls-10" d="m280.76,34.7c.28,3.9,3.02,4.68,4.4,4.68,2.32,0,4.33-1.83,4.33-4.15,0-2.88-2.46-3.55-5.8-4.78-2.04-.67-6.58-2.18-6.58-7.07-.03-4.85,4.11-7.49,8.19-7.49,3.34,0,7.53,1.83,7.84,7.17h-4.08c-.28-1.41-.91-3.66-3.9-3.66-2.11,0-3.94,1.44-3.94,3.66,0,2.53,1.94,3.17,6.12,4.71,3.24,1.37,6.26,3.02,6.26,7.25s-2.85,7.88-8.4,7.88c-5.17,0-8.48-3.17-8.54-8.19h4.11Z"/><g class="cls-7"><rect class="cls-4" x="189.57" y="11.32" width="34.36" height="27.38" transform="translate(106.88 207.75) rotate(-68.24)"/></g><g class="cls-6"><g class="cls-3"><path class="cls-2" d="m207.19,12.52s10.28,14.89-4.22,25.72c0,0,13.36-9.7,4.22-25.72"/></g></g><path class="cls-11" d="m214.44,31.39s2.98-10.25-7.04-19.25c0,0,8.31,7.65,7.04,19.25"/><path class="cls-8" d="m206.88,12.52s9.45,14.16-4.98,25.91c0,0-3.28-3.34,1.07-8.75,0,0,6.83-7.44,3.91-17.16"/></g></g></svg>