<?xml version="1.0" encoding="UTF-8"?><svg id="Capa_1" xmlns="http://www.w3.org/2000/svg" xmlns:xlink="http://www.w3.org/1999/xlink" viewBox="0 0 300 300"><defs><style>.cls-1{fill:#fff;}.cls-2{clip-path:url(#clippath);}.cls-3{fill:#007c8b;}.cls-4{fill:none;}.cls-5{fill:#dc5d20;}</style><clipPath id="clippath"><path class="cls-4" d="m107.88,68.19c0-28.52,18.36-49.84,42.12-49.84,23.76,0,42.12,21.32,42.12,49.84v27.63c0,28.52-18.36,49.83-42.12,49.83s-42.12-21.32-42.12-49.83v-27.63Z"/></clipPath></defs><path class="cls-3" d="m16.63,190.52h7.54c4.13,0,7.07.37,8.82,1.1,1.75.74,3.16,1.96,4.23,3.67,1.07,1.71,1.6,3.74,1.6,6.07,0,2.46-.59,4.51-1.77,6.16-1.18,1.65-2.95,2.9-5.33,3.75l8.86,16.63h-7.78l-8.41-15.84h-.65v15.84h-7.12v-37.39Zm7.12,14.62h2.23c2.26,0,3.82-.3,4.68-.89.85-.6,1.28-1.58,1.28-2.96,0-.82-.21-1.53-.63-2.13-.42-.6-.99-1.04-1.7-1.3-.71-.26-2.01-.4-3.9-.4h-1.95v7.68Z"/><path class="cls-3" d="m45.57,190.52h7.07v37.39h-7.07v-37.39Z"/><path class="cls-3" d="m57.03,190.52h7.32l9.41,26.56,9.55-26.56h7.31l-13.47,37.39h-6.86l-13.24-37.39Z"/><path class="cls-3" d="m96.07,190.52h20.41v6.97h-13.35v6.76h13.35v6.84h-13.35v9.84h13.35v6.99h-20.41v-37.39Z"/><path class="cls-3" d="m122.86,190.52h7.54c4.13,0,7.07.37,8.82,1.1,1.75.74,3.16,1.96,4.23,3.67,1.07,1.71,1.6,3.74,1.6,6.07,0,2.46-.59,4.51-1.77,6.16-1.18,1.65-2.95,2.9-5.33,3.75l8.86,16.63h-7.78l-8.41-15.84h-.65v15.84h-7.12v-37.39Zm7.12,14.62h2.23c2.26,0,3.82-.3,4.68-.89.85-.6,1.28-1.58,1.28-2.96,0-.82-.21-1.53-.63-2.13-.42-.6-.99-1.04-1.7-1.3-.71-.26-2.01-.4-3.9-.4h-1.95v7.68Z"/><path class="cls-3" d="m165.55,190.52h7.22l14.38,37.39h-7.4l-2.93-7.7h-15.26l-3.04,7.7h-7.4l14.42-37.39Zm3.65,9.91l-5.02,12.84h10l-4.99-12.84Z"/><path class="cls-3" d="m211.76,195.6l-5.27,4.65c-1.85-2.57-3.74-3.86-5.65-3.86-.93,0-1.7.25-2.29.75-.59.5-.89,1.06-.89,1.69s.21,1.22.64,1.78c.58.75,2.32,2.35,5.22,4.81,2.72,2.27,4.36,3.7,4.94,4.3,1.44,1.46,2.47,2.85,3.07,4.18.6,1.33.9,2.78.9,4.36,0,3.07-1.06,5.6-3.18,7.6-2.12,2-4.89,3-8.3,3-2.66,0-4.98-.65-6.96-1.96-1.98-1.3-3.67-3.35-5.08-6.15l5.98-3.61c1.8,3.31,3.87,4.96,6.21,4.96,1.22,0,2.25-.36,3.08-1.07.83-.71,1.25-1.53,1.25-2.47,0-.85-.31-1.69-.94-2.54-.63-.85-2.01-2.14-4.15-3.89-4.07-3.32-6.71-5.89-7.89-7.69-1.19-1.8-1.78-3.61-1.78-5.4,0-2.59.99-4.82,2.96-6.67,1.98-1.86,4.42-2.78,7.32-2.78,1.87,0,3.64.43,5.33,1.3,1.69.86,3.52,2.44,5.48,4.73Z"/><path class="cls-3" d="m228.9,190.52h8.43c5.44,0,9.47.67,12.11,2.02,2.64,1.35,4.82,3.54,6.53,6.57,1.71,3.03,2.57,6.58,2.57,10.63,0,2.88-.48,5.53-1.43,7.94-.96,2.42-2.28,4.42-3.96,6.01-1.69,1.59-3.51,2.69-5.47,3.3-1.96.61-5.37.92-10.21.92h-8.56v-37.39Zm7.07,6.86v23.59h3.3c3.25,0,5.61-.37,7.08-1.12,1.46-.75,2.66-2,3.6-3.77.93-1.77,1.4-3.94,1.4-6.52,0-3.97-1.11-7.05-3.33-9.24-2-1.97-5.21-2.95-9.64-2.95h-2.41Z"/><path class="cls-3" d="m262.96,190.52h20.41v6.97h-13.35v6.76h13.35v6.84h-13.35v9.84h13.35v6.99h-20.41v-37.39Z"/><path class="cls-3" d="m68.11,249.67h7.12v30.61h10.37v6.79h-17.49v-37.39Z"/><path class="cls-3" d="m105.97,248.72c5.29,0,9.84,1.92,13.65,5.74,3.81,3.83,5.71,8.5,5.71,14.01s-1.88,10.07-5.63,13.85c-3.76,3.78-8.31,5.67-13.67,5.67s-10.28-1.94-13.99-5.82c-3.71-3.88-5.57-8.49-5.57-13.83,0-3.58.86-6.86,2.59-9.86,1.73-3,4.11-5.38,7.14-7.13,3.03-1.75,6.29-2.63,9.78-2.63Zm-.08,6.97c-3.46,0-6.37,1.2-8.73,3.61-2.36,2.41-3.54,5.47-3.54,9.18,0,4.13,1.48,7.41,4.45,9.81,2.31,1.88,4.95,2.82,7.94,2.82,3.38,0,6.25-1.22,8.63-3.66,2.37-2.44,3.56-5.45,3.56-9.02s-1.2-6.57-3.59-9.04c-2.39-2.47-5.3-3.7-8.73-3.7Z"/><path class="cls-3" d="m129.76,249.67h7.54c4.13,0,7.07.37,8.82,1.1,1.75.74,3.16,1.96,4.23,3.67s1.6,3.74,1.6,6.07c0,2.46-.59,4.51-1.77,6.16-1.18,1.65-2.95,2.9-5.33,3.75l8.86,16.63h-7.78l-8.41-15.84h-.65v15.84h-7.12v-37.39Zm7.12,14.62h2.23c2.26,0,3.82-.3,4.68-.89s1.28-1.58,1.28-2.96c0-.82-.21-1.53-.63-2.13-.42-.6-.99-1.04-1.7-1.3-.71-.26-2.01-.4-3.9-.4h-1.95v7.68Z"/><path class="cls-3" d="m157.94,249.67h20.41v6.97h-13.35v6.76h13.35v6.84h-13.35v9.84h13.35v6.99h-20.41v-37.39Z"/><path class="cls-3" d="m183.8,249.67h20.67v7.02h-6.81v30.38h-7.22v-30.38h-6.63v-7.02Z"/><path class="cls-3" d="m226.64,248.72c5.29,0,9.84,1.92,13.65,5.74,3.81,3.83,5.71,8.5,5.71,14.01s-1.88,10.07-5.64,13.85-8.31,5.67-13.67,5.67-10.28-1.94-13.99-5.82c-3.71-3.88-5.57-8.49-5.57-13.83,0-3.58.87-6.86,2.6-9.86,1.73-3,4.11-5.38,7.13-7.13,3.03-1.75,6.29-2.63,9.78-2.63Zm-.08,6.97c-3.46,0-6.37,1.2-8.73,3.61-2.36,2.41-3.54,5.47-3.54,9.18,0,4.13,1.48,7.41,4.45,9.81,2.31,1.88,4.95,2.82,7.94,2.82,3.38,0,6.25-1.22,8.63-3.66,2.38-2.44,3.56-5.45,3.56-9.02s-1.2-6.57-3.59-9.04c-2.39-2.47-5.3-3.7-8.73-3.7Z"/><path class="cls-3" d="m150,152.01c-13.05,0-25.17-5.53-34.13-15.57-9.07-10.17-14.07-24.14-14.07-39.34v-30.19c0-15.2,5-29.17,14.07-39.34,8.96-10.04,21.08-15.57,34.13-15.57s25.17,5.53,34.13,15.57c9.07,10.17,14.07,24.14,14.07,39.34v30.19c0,15.2-5,29.17-14.07,39.34-8.96,10.04-21.08,15.57-34.13,15.57Zm0-137.64c-26.12,0-45.83,22.59-45.83,52.54v30.19c0,29.95,19.7,52.54,45.83,52.54s45.83-22.59,45.83-52.54v-30.19c0-29.95-19.7-52.54-45.83-52.54Z"/><g class="cls-2"><path class="cls-3" d="m96.55,118.58v-30.5s10.72-6.82,29.23.45c18.51,7.27,25.01,9.67,44.69,4.27s31.17-7.62,31.17-7.62v33.4"/><path class="cls-1" d="m201.65,119.47c-.5,0-.9-.4-.9-.9v-32.3c-3.29.68-13.98,2.99-30.04,7.39-20.2,5.54-27.02,2.86-45.26-4.3-15.88-6.24-25.89-1.86-28-.76v29.97c0,.5-.4.9-.9.9s-.9-.4-.9-.9v-30.5c0-.31.16-.59.42-.76.45-.29,11.32-6.98,30.04.37,18.33,7.2,24.5,9.62,44.13,4.24,19.49-5.34,31.13-7.62,31.24-7.64.26-.05.54.02.74.19.21.17.33.43.33.69v33.4c0,.5-.4.9-.9.9Z"/><path class="cls-3" d="m96.55,125.03v-30.5s10.72-6.82,29.23.45c18.51,7.27,25.01,9.67,44.69,4.27,19.68-5.4,31.17-7.62,31.17-7.62v33.4"/><path class="cls-1" d="m201.65,125.93c-.5,0-.9-.4-.9-.9v-32.3c-3.29.68-13.98,2.99-30.04,7.39-20.2,5.54-27.02,2.86-45.26-4.3-15.88-6.24-25.89-1.86-28-.76v29.97c0,.5-.4.9-.9.9s-.9-.4-.9-.9v-30.5c0-.31.16-.59.42-.76.45-.29,11.32-6.98,30.04.37,18.33,7.2,24.5,9.62,44.13,4.24,19.49-5.34,31.13-7.62,31.24-7.64.26-.05.54.02.74.19.21.17.33.43.33.69v33.4c0,.5-.4.9-.9.9Z"/><path class="cls-3" d="m96.58,131.6v-30.5s10.72-6.82,29.23.45c18.51,7.27,25.01,9.67,44.69,4.27,19.68-5.4,31.17-7.62,31.17-7.62v33.4"/><path class="cls-1" d="m201.68,132.5c-.5,0-.9-.4-.9-.9v-32.3c-3.29.68-13.98,2.99-30.04,7.39-20.2,5.54-27.02,2.86-45.26-4.3-15.89-6.24-25.89-1.86-28-.76v29.97c0,.5-.4.9-.9.9s-.9-.4-.9-.9v-30.5c0-.31.16-.59.42-.76.45-.29,11.32-6.98,30.04.37,18.33,7.2,24.5,9.62,44.13,4.24,19.49-5.34,31.13-7.62,31.24-7.64.26-.05.54.02.74.19.21.17.33.43.33.69v33.4c0,.5-.4.9-.9.9Z"/><path class="cls-5" d="m158.78,119.18v-24.29h0v-5.65h-7.96v-21.35h-4.27s-.19-23.05-22.13-23.05h.8c-21.94,0-22.13,23.05-22.13,23.05h-4.27v21.35h-7.96v5.65h0v24.29"/><path class="cls-1" d="m158.78,120.2c-.56,0-1.02-.46-1.02-1.02v-28.92h-6.94c-.56,0-1.02-.46-1.02-1.02v-20.33h-3.25c-.56,0-1.01-.45-1.02-1.01,0-.89-.46-21.77-20.71-22.04-20.29.27-20.7,21.14-20.71,22.04,0,.56-.46,1.01-1.02,1.01h-3.25v20.33c0,.56-.46,1.02-1.02,1.02h-6.94v28.92c0,.56-.46,1.02-1.02,1.02s-1.02-.46-1.02-1.02v-29.94c0-.56.46-1.02,1.02-1.02h6.94v-20.33c0-.56.46-1.02,1.02-1.02h3.31c.37-4.49,3.02-22.44,22.12-23.04.06,0,.12-.01.17-.01h.8c.06,0,.12,0,.18.01,19.09.59,21.75,18.54,22.12,23.04h3.31c.56,0,1.02.46,1.02,1.02v20.33h6.94c.56,0,1.02.46,1.02,1.02v29.94c0,.56-.45,1.02-1.02,1.02Z"/><path class="cls-1" d="m110.67,119.22h-6.59c-.54-.01-.98-.45-.98-.99,0,0,0-16.58,0-18.25,0-4.8,2.69-5.52,4.3-5.52,1.6,0,2.75.56,3.45,1.66.56.89.81,2.08.81,3.87,0,2.47,0,18.25,0,18.25,0,.26-.1.51-.29.69s-.43.29-.69.29Zm-5.6-1.97h4.62c0-3.48,0-15.16,0-17.26,0-1.35-.16-2.28-.5-2.82-.22-.35-.62-.75-1.78-.75-.7,0-2.33,0-2.34,3.56,0,1.43,0,13.69,0,17.27Z"/><path class="cls-1" d="m128.11,119.22h-6.59c-.54-.01-.98-.45-.98-.99,0,0,0-16.58,0-18.25,0-4.8,2.69-5.52,4.29-5.52,1.6,0,2.75.56,3.45,1.66.56.89.81,2.08.8,3.87,0,2.47,0,18.25,0,18.25,0,.26-.1.51-.29.69-.18.18-.43.29-.69.29Zm-5.6-1.97h4.62c0-3.48,0-15.16,0-17.26,0-1.35-.16-2.28-.5-2.82-.22-.35-.62-.75-1.78-.75-.7,0-2.33,0-2.34,3.56,0,1.43,0,13.69,0,17.27Z"/><path class="cls-1" d="m145.54,119.22h-6.59c-.54-.01-.98-.45-.98-.99,0,0,0-16.58,0-18.25,0-4.8,2.69-5.52,4.29-5.52,1.6,0,2.75.56,3.45,1.66.56.89.81,2.08.81,3.87,0,2.47,0,18.25,0,18.25,0,.26-.1.51-.29.69s-.43.29-.69.29Zm-5.6-1.97h4.62c0-3.48,0-15.16,0-17.26,0-1.35-.16-2.28-.5-2.82-.22-.35-.62-.75-1.78-.75-.7,0-2.33,0-2.34,3.56,0,1.43,0,13.69,0,17.27Z"/><path class="cls-1" d="m119.39,86.2h-6.59c-.54,0-.98-.45-.98-.99,0,0,0-4.88,0-6.56,0-4.8,2.69-5.52,4.29-5.52,1.6,0,2.75.56,3.45,1.66.56.89.81,2.08.8,3.87,0,2.47,0,6.55,0,6.55,0,.26-.1.51-.29.69-.18.18-.43.29-.69.29Zm-5.6-1.97h4.62c0-3.48,0-3.47,0-5.57,0-1.35-.16-2.28-.5-2.82-.22-.35-.62-.75-1.78-.75-.7,0-2.33,0-2.34,3.56,0,1.43,0,1.99,0,5.57Z"/><path class="cls-1" d="m136.83,86.2h-6.59c-.54,0-.98-.45-.98-.99,0,0,0-4.88,0-6.56,0-4.8,2.69-5.52,4.3-5.52,1.6,0,2.75.56,3.45,1.66.56.89.81,2.08.81,3.87,0,2.47,0,6.55,0,6.55,0,.26-.1.51-.29.69-.18.18-.43.29-.69.29Zm-5.6-1.97h4.62c0-3.48,0-3.47,0-5.57,0-1.35-.16-2.28-.5-2.82-.22-.35-.62-.75-1.78-.75-.7,0-2.33,0-2.34,3.56,0,1.43,0,1.99,0,5.57Z"/><path class="cls-1" d="m126.97,57.17c0,1.18-.96,2.14-2.14,2.14s-2.14-.96-2.14-2.14.96-2.14,2.14-2.14,2.14.96,2.14,2.14Z"/><path class="cls-5" d="m96.55,147.94v-40.31s10.72-6.82,29.23.45c18.51,7.27,25.01,9.67,44.69,4.27,19.68-5.4,31.17-7.63,31.17-7.63v43.22h-105.1Z"/><path class="cls-1" d="m201.65,148.84h-105.1c-.5,0-.9-.4-.9-.9v-40.31c0-.31.16-.59.42-.76.19-.12,4.88-3.04,13.35-3.04,5.3,0,10.92,1.15,16.69,3.41,11.35,4.46,18.2,7.15,26.57,7.15,4.81,0,10.23-.9,17.55-2.9,19.49-5.34,31.13-7.62,31.24-7.64.26-.05.54.02.74.19.21.17.33.43.33.69v43.22c0,.5-.4.9-.9.9Zm-104.2-1.8h103.3v-41.22c-3.29.68-13.98,2.99-30.04,7.39-7.49,2.05-13.05,2.97-18.03,2.97-8.71,0-16.08-2.89-27.23-7.27-5.56-2.18-10.95-3.29-16.03-3.29-6.53,0-10.69,1.87-11.97,2.53v38.89Z"/></g></svg>