<?xml version="1.0" encoding="UTF-8"?><svg id="Capa_1" xmlns="http://www.w3.org/2000/svg" xmlns:xlink="http://www.w3.org/1999/xlink" viewBox="0 0 300 140"><defs><style>.cls-1{fill:#7b6756;}.cls-2{fill:#993921;}.cls-3{clip-path:url(#clippath);}.cls-4{fill:#d35842;}.cls-5{fill:none;}.cls-6{fill:#d6a64b;}</style><clipPath id="clippath"><path class="cls-5" d="m168.88,13.5c-3.45,3.65-12.3,13.55-14.56,23.12-3.21,13.62,3.03,29.24,3.03,29.24,0,0,9.28-5.13,15.09-18.03,4.36-9.68,1.16-25.89,1.49-32.22.23-4.34.79-5.46.13-5.97-.13-.1-.28-.15-.44-.15-.97,0-2.53,1.65-4.74,4"/></clipPath></defs><path class="cls-4" d="m157.36,65.86s2.12-12.95,9.32-21.5c7.07-8.39,16.66-10.07,19.82-11.04,2.03-.62,2.91-1,3.76-1.27.73-.23,1.31.33.81,1.3-2.19,4.28-5.15,17.83-11.52,23.81-7.85,7.37-22.2,8.7-22.2,8.7"/><path class="cls-6" d="m157.36,65.86s-6.25-15.62-3.03-29.24c2.26-9.57,11.11-19.47,14.56-23.12,2.59-2.74,4.28-4.53,5.18-3.85.67.5.1,1.63-.13,5.97-.34,6.33,2.87,22.54-1.49,32.22-5.81,12.9-15.09,18.03-15.09,18.03"/><g class="cls-3"><path class="cls-2" d="m157.36,65.86s2.12-12.95,9.32-21.5c7.07-8.39,16.66-10.07,19.82-11.04,2.03-.62,2.91-1,3.76-1.27.73-.23,1.31.33.81,1.3-2.19,4.28-5.15,17.83-11.52,23.81-7.85,7.37-22.2,8.7-22.2,8.7"/></g><path class="cls-1" d="m234.87,124.96c-1.56-.4-1.94-.59-1.94-1.18v-.02c0-.44.4-.79,1.16-.79s1.54.33,2.34.89l1.03-1.49c-.91-.73-2.03-1.14-3.34-1.14-1.84,0-3.15,1.08-3.15,2.71v.03c0,1.79,1.17,2.29,2.98,2.75,1.5.39,1.81.64,1.81,1.14v.02c0,.53-.49.85-1.3.85-1.03,0-1.88-.42-2.69-1.09l-1.17,1.4c1.08.96,2.45,1.44,3.82,1.44,1.94,0,3.3-1,3.3-2.79v-.02c0-1.57-1.03-2.22-2.85-2.7Z"/><polygon class="cls-1" points="192.45 126.7 196.69 126.7 196.69 124.94 192.45 124.94 192.45 123.11 197.27 123.11 197.27 121.35 190.49 121.35 190.49 130.35 197.34 130.35 197.34 128.59 192.45 128.59 192.45 126.7"/><polygon class="cls-1" points="151.71 125.16 149.34 121.35 147.21 121.35 147.21 130.35 149.15 130.35 149.15 124.51 151.66 128.32 151.71 128.32 154.24 124.48 154.24 130.35 156.21 130.35 156.21 121.35 154.07 121.35 151.71 125.16"/><path class="cls-1" d="m108.56,121.2c-2.78,0-4.79,2.09-4.79,4.65v.02c0,2.56,1.99,4.63,4.77,4.63s4.79-2.09,4.79-4.65v-.03c0-2.56-1.99-4.63-4.77-4.63Zm2.7,4.68c0,1.54-1.11,2.8-2.7,2.8s-2.73-1.29-2.73-2.83v-.03c0-1.54,1.11-2.8,2.7-2.8s2.73,1.29,2.73,2.83v.02Z"/><polygon class="cls-1" points="67.9 124.91 64.25 124.91 64.25 121.35 62.28 121.35 62.28 130.35 64.25 130.35 64.25 126.74 67.9 126.74 67.9 130.35 69.88 130.35 69.88 121.35 67.9 121.35 67.9 124.91"/><path class="cls-1" d="m86.74,78.72l-.36-4.58h-6.69v30.57h7.57v-20.57c2.51-3.66,5.57-4.69,8.12-4.69h1.45v-6.09h-.34c-4,.06-7.28,2.16-9.76,5.36Z"/><path class="cls-1" d="m180.81,99.42c-5.6,0-9.43-3.76-9.43-9.99s3.7-9.99,9.43-9.99c2.49,0,4.57.71,5.74,1.98l4.23-4.67c-2.31-2.01-5.95-3.35-10.49-3.35-10.67,0-16.48,7.3-16.48,16.03s5.95,16.02,16.48,16.02c4.16,0,8.04-1.25,10.63-3.4l-4.22-4.67c-1.44,1.4-3.75,2.05-5.88,2.05Z"/><path class="cls-1" d="m244.18,92.14v-12.34h7.4v-5.66h-7.4v-4.69c-.07-1.99-1.7-3.59-3.71-3.59h-3.86v8.28h-5.06v5.66h5.06v12.34c0,4.75,1.67,8.04,4.45,10.11,2.74,2.07,6.56,2.95,10.97,2.88v-5.71c-2.45-.14-4.45-.75-5.82-1.98-1.3-1.17-2.02-2.9-2.02-5.3Z"/><path class="cls-1" d="m26.03,92.14v-12.34h7.4v-5.66h-7.4v-4.69c-.07-1.99-1.7-3.59-3.71-3.59h-3.86v8.28h-5.06v5.66h5.06v12.34c0,4.75,1.67,8.04,4.45,10.11,2.74,2.07,6.56,2.95,10.97,2.88v-5.71c-2.45-.14-4.45-.75-5.82-1.98-1.3-1.17-2.02-2.9-2.02-5.3Z"/><path class="cls-1" d="m111.26,78.72l-.36-4.58h-6.69v30.57h7.57v-20.57c2.51-3.66,5.57-4.69,8.12-4.69h1.45v-6.09h-.34c-4,.06-7.28,2.16-9.76,5.36Z"/><path class="cls-1" d="m142.02,73.4c-4.5,0-9.24,1.31-13,3.36l1.81,4.56c2.44-1.34,6.29-2.57,9.78-2.57,4.13,0,8.04,1.92,8.13,6.13v1.86c-2.46-1.22-5.6-1.91-8.68-1.91-6.62,0-13.1,3.14-13.1,10.33,0,6.71,5.76,10.36,11.72,10.36,4.02,0,7.86-1.54,10.63-4.78l.08,1.02c.22,1.63,1.65,2.92,3.3,2.94h3.63v-19.66c0-8.02-6.92-11.66-14.3-11.65Zm6.74,22.94c-2.16,2.58-5.02,3.52-7.98,3.52-3.58,0-6.74-1.75-6.74-5.14,0-3.65,3.49-5.19,7.39-5.19,2.66,0,5.39.69,7.33,1.9v4.92Z"/><path class="cls-1" d="m272.31,73.4c-4.5,0-9.24,1.31-13,3.36l1.81,4.56c2.44-1.34,6.29-2.57,9.78-2.57,4.13,0,8.04,1.92,8.13,6.13v1.86c-2.46-1.22-5.6-1.91-8.68-1.91-6.62,0-13.1,3.14-13.1,10.33,0,6.71,5.76,10.36,11.72,10.36,4.02,0,7.86-1.54,10.63-4.78l.08,1.02c.22,1.63,1.65,2.92,3.3,2.94h3.63v-19.66c0-8.02-6.92-11.66-14.3-11.65Zm6.74,22.94c-2.16,2.58-5.02,3.52-7.98,3.52-3.58,0-6.74-1.75-6.74-5.14,0-3.65,3.49-5.19,7.39-5.19,2.66,0,5.39.69,7.33,1.9v4.92Z"/><path class="cls-1" d="m210.81,73.39c-10.97,0-16.89,7.21-16.89,16.03s5.92,16.02,16.89,16.02,16.89-7.04,16.89-16.02-6.1-16.03-16.89-16.03Zm0,26.02c-5.69,0-9.31-3.8-9.31-9.99s3.63-9.99,9.31-9.99,9.31,3.6,9.31,9.99-3.51,9.99-9.31,9.99Z"/><path class="cls-1" d="m56.15,73.37c-10.61,0-16.2,7.23-16.2,16.01s5.78,16,16.39,16c5.41,0,9.8-1.61,12.9-4.41l-3.21-3.78c-2.97,1.76-6.52,2.67-9.69,2.49-4.83-.15-8.13-3-8.87-7.77h23.85c.22-1.2.31-2.5.31-3.56,0-9-5.37-14.98-15.47-14.98Zm8.46,14.22h-17.11l.02-.42c.32-4.57,3.27-8.1,8.84-8.1,4.84,0,7.84,1.93,8.22,6.45.04.33.07.74.07,1.17,0,.29-.01.59-.03.89Z"/></svg>