<?xml version="1.0" encoding="UTF-8"?><svg id="Capa_1" xmlns="http://www.w3.org/2000/svg" viewBox="0 0 1200 700"><defs><style>.cls-1{fill:#575756;}.cls-2{fill:#c97d31;}.cls-3{fill:#238dc1;}.cls-4{fill:#6bcbb8;}.cls-5{fill:#009877;}</style></defs><path class="cls-1" d="m254.37,445.06c-.3.73-6.77,14.67-19.39,41.81-12.61,27.14-24.67,53.3-36.15,78.49h-12.2c-12.65-28.24-24.75-54.92-36.3-80.05-11.54-25.12-17.6-38.3-18.15-39.52l14.29-7.1c.42,1.22,5.94,13.95,16.54,38.18,10.61,24.23,20.83,47.04,30.67,68.43h.18c10-21.94,20.4-45.04,31.17-69.3,10.77-24.26,16.34-36.75,16.71-37.49l12.62,6.55Z"/><path class="cls-1" d="m379.3,558.62l-14.26,7.38c-.25-.67-2.21-5.23-5.87-13.66-3.67-8.44-8.51-19.28-14.51-32.54h-54.27c-6.45,14.24-11.42,25.27-14.92,33.09-3.5,7.83-5.43,12.19-5.8,13.11l-12.27-6.65c1.59-3.18,8.14-17.18,19.66-42.01,11.52-24.83,23.48-50.93,35.88-78.29h11.91c12.22,27.37,24.23,53.88,36.03,79.53,11.79,25.65,17.93,39,18.42,40.04Zm-39.83-50.55c-3.24-7.46-6.65-15.26-10.25-23.39-3.6-8.13-7.38-16.63-11.34-25.51l-.37.08c-3.07,6.71-6.77,14.97-11.12,24.77-4.34,9.8-7.92,17.81-10.76,24.04l-.04.09h43.91l-.04-.09Z"/><path class="cls-1" d="m476.93,563.35c-.73,0-4.6-.03-11.6-.09-7-.06-15.93-.1-26.81-.1-7.16,0-13.94.04-20.39.1-6.45.06-11.91.09-16.36.09.12-10.51.23-21.16.32-31.95.09-10.78.14-21.37.14-31.76,0-17.36-.06-30.59-.18-39.69-.12-9.1-.21-15.49-.28-19.16h15.13c-.13,7.88-.22,16.98-.27,27.29-.07,10.32-.09,18.77-.09,25.37,0,16.06.02,29.46.09,40.2.05,10.75.09,16.43.09,17.04,2.5,0,5.53.01,9.07.04,3.54.04,6.75.04,9.63.04,10.93,0,20.45-.04,28.55-.14,8.1-.09,12.42-.14,12.97-.14v12.83Z"/><path class="cls-1" d="m587.65,453.72c-.98,0-5.08-.03-12.29-.09-7.21-.06-18.12-.1-32.72-.1-.13,12.54-.22,22.05-.28,28.53-.06,6.48-.09,15.32-.09,26.51s.04,21.7.13,32.8c.1,11.1.17,18.48.24,22.15h-15.12c.12-3.67.23-11.16.32-22.47.09-11.31.14-22.38.14-33.21v-25.37c0-6.27-.09-15.91-.28-28.95-13.02-.05-23.58-.04-31.67.05-8.1.09-12.55.14-13.34.14v-12.65c6.3,0,13.95.03,22.96.09,9.01.06,18.62.09,28.82.09,14.79,0,27.14-.03,37.08-.09,9.94-.06,15.29-.09,16.09-.09v12.65Z"/><path class="cls-1" d="m687.93,563.35c-.56,0-4.61-.03-12.19-.09-7.58-.06-16.96-.1-28.14-.1-7.76,0-14.86.04-21.31.1-6.45.06-11.91.09-16.36.09.12-3.55.22-11.21.31-23.01.09-11.79.14-23.98.14-36.57,0-6.91-.03-16.04-.08-27.41-.07-11.37-.19-23.13-.37-35.29,4.33,0,9.76.03,16.27.09,6.51.06,13.21.09,20.12.09,11.67,0,21.17-.03,28.5-.09,7.34-.06,11.31-.09,11.92-.09v12.74c-.61,0-4.44-.04-11.5-.13-7.06-.09-15.84-.14-26.35-.14-4.58,0-9.08.02-13.48.05-4.39.03-7.88.05-10.45.05,0,6.91-.06,13.79-.18,20.67-.13,6.87-.19,13.37-.19,19.48,2.74,0,6,.01,9.76.04,3.76.03,7.11.05,10.04.05,10.76,0,20.36-.05,28.83-.14,8.46-.1,12.97-.14,13.52-.14v12.65c-.49,0-5.53-.04-15.12-.14-9.59-.09-18.37-.14-26.3-.14-2.94,0-6.44.02-10.5.05-4.06.03-7.48.04-10.22.04,0,11.55.03,20.72.09,27.5.06,6.78.13,12.47.19,17.05,3.59.06,7.97.11,13.11.14,5.12.04,10.65.04,16.59.04,9.1,0,16.75-.03,22.96-.09,6.2-.06,9.67-.09,10.41-.09v12.74Z"/><path class="cls-1" d="m817.96,556.19l-11.47,9.44c-1.34-1.41-6.11-6.71-14.29-15.92-8.18-9.2-20.79-23.56-37.82-43.07l.09-.83c2.32-.61,5.4-1.94,9.26-3.99,3.85-2.05,7.09-4.27,9.72-6.65,2.26-2.08,4.24-4.65,5.92-7.71,1.68-3.06,2.52-7.16,2.52-12.29,0-4.71-1.24-8.76-3.71-12.16-2.47-3.39-5.88-5.89-10.22-7.47-3.54-1.35-7.28-2.16-11.18-2.43-3.91-.28-7.51-.41-10.82-.41-2.2,0-3.88.02-5.04.05-1.16.03-2.01.04-2.56.04-.13,11.62-.19,21.86-.23,30.73-.03,8.87-.04,15.14-.04,18.81,0,8.37.04,19.75.13,34.13.09,14.37.17,23.39.23,27.06h-15.13c.06-3.67.15-10.77.27-21.31.12-10.54.18-23.66.18-39.37v-16.96c0-8.25-.15-23.28-.45-45.1.61,0,3.66-.06,9.15-.18,5.5-.12,10.56-.18,15.2-.18,5.31,0,10.47.31,15.47.92,5.01.61,9.9,1.92,14.65,3.93,6.04,2.57,10.84,6.34,14.37,11.32,3.54,4.97,5.31,10.82,5.31,17.54,0,8.67-2.66,15.89-8,21.66-5.34,5.77-10.39,10.06-15.14,12.87v.46c8.38,9.79,17.56,19.88,27.55,30.28,9.99,10.4,15.36,15.99,16.1,16.79Z"/><path class="cls-1" d="m936.94,556.19l-11.48,9.44c-1.34-1.41-6.1-6.71-14.29-15.92-8.18-9.2-20.8-23.56-37.83-43.07l.09-.83c2.32-.61,5.41-1.94,9.26-3.99,3.85-2.05,7.09-4.27,9.72-6.65,2.26-2.08,4.23-4.65,5.91-7.71,1.68-3.06,2.53-7.16,2.53-12.29,0-4.71-1.24-8.76-3.72-12.16-2.47-3.39-5.88-5.89-10.22-7.47-3.55-1.35-7.28-2.16-11.18-2.43-3.91-.28-7.52-.41-10.82-.41-2.2,0-3.88.02-5.04.05-1.16.03-2.01.04-2.56.04-.12,11.62-.2,21.86-.23,30.73-.03,8.87-.04,15.14-.04,18.81,0,8.37.04,19.75.14,34.13.09,14.37.17,23.39.23,27.06h-15.12c.06-3.67.15-10.77.27-21.31.12-10.54.18-23.66.18-39.37v-16.96c0-8.25-.15-23.28-.45-45.1.6,0,3.66-.06,9.15-.18,5.49-.12,10.56-.18,15.2-.18,5.31,0,10.47.31,15.47.92,5,.61,9.88,1.92,14.65,3.93,6.04,2.57,10.83,6.34,14.37,11.32,3.54,4.97,5.32,10.82,5.32,17.54,0,8.67-2.68,15.89-8.01,21.66-5.33,5.77-10.38,10.06-15.14,12.87v.46c8.37,9.79,17.56,19.88,27.55,30.28,10,10.4,15.36,15.99,16.1,16.79Z"/><path class="cls-1" d="m1063.27,558.62l-14.26,7.38c-.25-.67-2.21-5.23-5.87-13.66-3.66-8.44-8.51-19.28-14.52-32.54h-54.26c-6.45,14.24-11.42,25.27-14.92,33.09-3.5,7.83-5.43,12.19-5.8,13.11l-12.28-6.65c1.58-3.18,8.14-17.18,19.66-42.01,11.52-24.83,23.48-50.93,35.89-78.29h11.91c12.22,27.37,24.23,53.88,36.03,79.53,11.79,25.65,17.93,39,18.42,40.04Zm-39.82-50.55c-3.24-7.46-6.65-15.26-10.26-23.39-3.59-8.13-7.37-16.63-11.33-25.51l-.36.08c-3.08,6.71-6.78,14.97-11.12,24.77-4.34,9.8-7.93,17.81-10.76,24.04l-.05.09h43.92l-.04-.09Z"/><path class="cls-5" d="m167.39,668.66h-4.38l-5.42-14.48c-.54-1.39-1.13-2.7-1.76-3.93-.65-1.23-1.41-2.3-2.27-3.21-.87-.91-1.85-1.63-2.96-2.16-1.11-.53-2.42-.8-3.91-.8h-19.06v24.57h-3.98v-54.48h24.52c2.29,0,4.5.21,6.65.63,2.14.42,4.04,1.15,5.73,2.21,1.66,1.06,3.01,2.53,4,4.4.99,1.88,1.49,4.27,1.49,7.19,0,1.82-.22,3.52-.68,5.1-.44,1.58-1.13,2.98-2.04,4.23-.91,1.24-2.07,2.3-3.48,3.19-1.42.88-3.06,1.52-4.95,1.91,1.02.8,1.88,1.56,2.54,2.29.66.73,1.23,1.51,1.71,2.34.49.83.92,1.75,1.3,2.74.38.99.82,2.14,1.32,3.44l5.62,14.82Zm-39.75-28.56h18.91c2.69,0,4.99-.2,6.91-.59,1.92-.4,3.51-1.05,4.75-1.96,1.25-.91,2.16-2.1,2.77-3.56.59-1.46.89-3.25.89-5.38,0-3.75-1.19-6.43-3.56-8.04-2.38-1.61-5.92-2.41-10.62-2.41h-20.05v21.94Z"/><polygon class="cls-5" points="263.71 668.66 224.36 668.66 224.36 614.18 262.37 614.18 262.37 618.16 228.34 618.16 228.34 638.31 260.22 638.31 260.22 642.3 228.34 642.3 228.34 664.68 263.71 664.68 263.71 668.66"/><path class="cls-5" d="m340.67,669.65c-3.68,0-6.9-.39-9.65-1.17-2.75-.78-5.07-1.89-6.94-3.34-1.88-1.44-3.32-3.18-4.31-5.22-.99-2.04-1.57-4.33-1.74-6.89h3.93c.4,2.45,1.14,4.49,2.24,6.12,1.1,1.63,2.45,2.92,4.05,3.88,1.61.96,3.44,1.65,5.5,2.04,2.05.39,4.24.59,6.56.59s4.6-.26,6.55-.77c1.93-.51,3.59-1.27,4.97-2.24,1.38-.98,2.43-2.16,3.16-3.53.72-1.37,1.09-2.93,1.09-4.65,0-1.82-.31-3.36-.94-4.6-.64-1.25-1.69-2.33-3.19-3.26-1.49-.92-3.46-1.75-5.89-2.49-2.44-.72-5.46-1.47-9.08-2.23-2.98-.67-5.55-1.43-7.69-2.29-2.14-.86-3.9-1.87-5.3-3.01-1.39-1.14-2.42-2.45-3.08-3.93-.67-1.47-1-3.19-1-5.15,0-2.12.45-4.06,1.34-5.82.89-1.76,2.16-3.26,3.81-4.53,1.64-1.26,3.62-2.23,5.92-2.93,2.3-.69,4.85-1.04,7.63-1.04s5.34.32,7.66.97c2.32.65,4.35,1.58,6.09,2.81,1.74,1.22,3.15,2.72,4.23,4.47,1.07,1.76,1.76,3.76,2.05,5.97h-3.82c-.37-1.46-.96-2.81-1.79-4.08-.83-1.26-1.9-2.35-3.22-3.26-1.3-.92-2.87-1.62-4.66-2.14-1.82-.52-3.88-.78-6.21-.78-4.87,0-8.56.9-11.07,2.69-2.5,1.79-3.76,4.25-3.76,7.37,0,1.42.24,2.67.7,3.73.46,1.06,1.26,2.01,2.37,2.86,1.11.85,2.57,1.59,4.39,2.24,1.83.65,4.1,1.25,6.82,1.82,1.6.33,3.23.68,4.92,1.04,1.69.37,3.35.8,4.95,1.3,1.61.5,3.14,1.11,4.59,1.84,1.47.73,2.73,1.62,3.81,2.68,1.08,1.06,1.94,2.33,2.59,3.81.65,1.47.97,3.22.97,5.25,0,2.32-.49,4.46-1.48,6.39-.97,1.94-2.34,3.61-4.07,5.02-1.74,1.42-3.82,2.51-6.22,3.29-2.4.78-5.01,1.17-7.83,1.17"/><rect class="cls-5" x="418.73" y="614.18" width="3.98" height="54.48"/><path class="cls-5" d="m527.23,641c0,18.44-9.17,27.66-27.5,27.66h-16.47v-54.42h16.47c9.18,0,16.07,2.21,20.65,6.64,4.57,4.43,6.86,11.14,6.86,20.12m-4.23,0c0-3.59-.35-6.79-1.06-9.6-.72-2.82-1.97-5.21-3.76-7.19-1.79-1.98-4.19-3.47-7.19-4.5-3-1.03-6.79-1.54-11.37-1.54h-12.39v46.51h12.39c4.54,0,8.32-.53,11.32-1.59,3-1.06,5.39-2.62,7.19-4.65,1.79-2.04,3.05-4.52,3.78-7.44.73-2.92,1.09-6.25,1.09-9.99"/><polygon class="cls-5" points="623.3 668.66 583.96 668.66 583.96 614.18 621.96 614.18 621.96 618.16 587.93 618.16 587.93 638.31 619.82 638.31 619.82 642.3 587.93 642.3 587.93 664.68 623.3 664.68 623.3 668.66"/><polygon class="cls-5" points="722.26 668.66 717.04 668.66 683.8 618.91 683.8 668.66 679.82 668.66 679.82 614.18 685.3 614.18 718.28 663.84 718.28 614.18 722.26 614.18 722.26 668.66"/><path class="cls-5" d="m820.42,628.76c-.36-1.62-1.04-3.14-2.04-4.56-.99-1.41-2.24-2.64-3.72-3.68-1.5-1.04-3.21-1.87-5.15-2.46-1.94-.6-4.03-.9-6.24-.9-3.16,0-6.01.52-8.58,1.55-2.57,1.02-4.76,2.55-6.57,4.55-1.81,2.01-3.21,4.52-4.18,7.51-.97,3-1.47,6.49-1.47,10.47s.5,7.49,1.47,10.52c.98,3.04,2.37,5.58,4.18,7.64,1.81,2.05,3.98,3.61,6.52,4.67,2.53,1.06,5.36,1.59,8.48,1.59,4.7,0,8.58-1.05,11.64-3.16,3.05-2.11,4.93-5.18,5.67-9.23h4.13c-.4,2.59-1.22,4.9-2.44,6.94-1.22,2.04-2.76,3.76-4.62,5.15-1.86,1.4-4,2.45-6.42,3.18-2.43.73-5.04,1.1-7.85,1.1-3.85,0-7.31-.67-10.38-2.01-3.07-1.35-5.68-3.24-7.84-5.7-2.15-2.45-3.81-5.43-4.98-8.93-1.16-3.5-1.73-7.42-1.73-11.77s.57-8.19,1.73-11.64c1.17-3.45,2.83-6.39,5.01-8.83,2.17-2.44,4.79-4.31,7.86-5.63,3.06-1.31,6.51-1.96,10.33-1.96,2.62,0,5.11.38,7.48,1.14,2.37.77,4.51,1.83,6.4,3.21,1.88,1.38,3.48,3.02,4.77,4.93,1.29,1.91,2.19,4,2.69,6.29h-4.13Z"/><rect class="cls-5" x="883.15" y="614.18" width="3.98" height="54.48"/><path class="cls-5" d="m990.81,668.66h-4.78l-6.67-17.51h-26.81c-.96,2.75-2.01,5.66-3.13,8.73-1.13,3.07-2.21,6-3.24,8.78h-4.23c1.79-4.71,3.56-9.32,5.29-13.83,1.75-4.51,3.49-9,5.21-13.46,1.72-4.46,3.46-8.95,5.19-13.46,1.75-4.51,3.52-9.11,5.31-13.78h5.62l22.24,54.53Zm-12.6-20.65l-12.63-30.3-12,30.3h24.62Z"/><polygon class="cls-5" points="1076.34 668.66 1044.24 668.66 1044.24 614.18 1048.22 614.18 1048.22 664.68 1076.34 664.68 1076.34 668.66"/><polygon class="cls-2" points="652.75 222.6 641.64 215.17 607.34 266.39 606.23 216.02 592.86 216.02 591.48 278.85 560.56 232.68 549.46 240.12 590.96 302.11 589.05 389.21 610.05 389.21 607.85 289.65 652.75 222.6"/><path class="cls-4" d="m533.04,262.22v-.12s-.21-.01-.21-.01c-1.09-.66-2.25-1.25-3.53-1.73-5.01-1.91-10.67-1.81-15.82-.93h-.22v.04c-7.84,1.38-14.45,4.56-15.8,5.24l-.19-.07-.15.4.18.07c.72,1.81,5.23,12.54,13.15,19.55l.11.2.07-.04c2.26,1.97,4.78,3.63,7.58,4.69,12.99,4.94,25.2-4.89,26.8-6.25l.12.04.15-.4-.11-.04c-.26-1.87-2.38-14.47-12.14-20.63"/><path class="cls-4" d="m724.17,233.39l-.18-.4-.18.08c-1.79-.78-12.54-5.25-23.09-4.67l-.22-.06-.02.08c-2.99.19-5.96.78-8.68,1.99-12.71,5.61-14.49,21.18-14.69,23.29l-.1.04.16.4.11-.05c1.51,1.15,11.86,8.62,23.14,6.14l.07.09.16-.15c1.24-.29,2.48-.69,3.72-1.24,4.91-2.17,8.87-6.2,11.91-10.45l.16-.16-.03-.03c4.6-6.49,7.07-13.39,7.56-14.82l.18-.08Z"/><path class="cls-4" d="m581.61,230.26l.12-.16-.29-.22c-.84-1.95-1.88-3.89-3.15-5.78-5.04-7.46-12.89-12.79-20.81-16.56l-.31-.22-.04.05c-12.07-5.67-24.2-7.71-26.71-8.08l-.19-.27-.6.4.18.27c-.76,3.17-4.94,22.26-.86,39.52l-.04.39h.13c1.2,4.89,3.06,9.61,5.87,13.77,13.04,19.32,39.28,17.64,42.81,17.33l.1.16.61-.4-.1-.17c1.44-2.82,10.71-22.14,3.27-40.03"/><path class="cls-5" d="m519.81,252.58l.11.12.44-.41-.12-.11c.79-2.5,5.67-19.46-2.83-32.96l.09-.15-.27-.14c-.95-1.47-2.06-2.9-3.35-4.26-5.12-5.37-12.22-8.62-19.17-10.6l-.29-.14-.02.05c-10.59-2.96-20.72-2.94-22.8-2.91l-.19-.19-.44.41.19.19c-.18,2.68-.98,18.75,4.71,32.21l.02.32h.11c1.65,3.79,3.8,7.37,6.65,10.36,13.24,13.9,34.31,8.94,37.14,8.2"/><path class="cls-3" d="m680.34,266.97c-1.81-1.27-12.8-8.65-24.69-10.37l-.23-.12-.05.08c-3.38-.46-6.81-.46-10.12.28-15.42,3.41-20.89,20.37-21.56,22.67l-.14.03.11.48.13-.03c1.42,1.62,11.29,12.27,24.42,12.02l.07.12.21-.13c1.44-.04,2.91-.22,4.42-.55,5.97-1.32,11.28-4.94,15.61-8.99l.21-.14-.02-.04c6.58-6.2,10.89-13.34,11.74-14.82l.21-.05-.1-.48-.22.05Z"/><path class="cls-5" d="m704.14,156.53l.26-.31-.7-.58-.26.32c-4.07.22-28.35,1.94-47.56,12.92l-.47.09.03.16c-5.42,3.16-10.41,7.05-14.38,11.87-18.5,22.41-7.23,53.2-5.61,57.32l-.16.19.69.58.16-.19c3.88.74,30.26,5.01,49.02-10.22l.24.1.16-.43c2.04-1.69,3.99-3.61,5.79-5.81,7.15-8.66,10.76-19.92,12.46-30.72l.15-.45-.08-.03c2.52-16.44.67-31.67.24-34.8"/><path class="cls-5" d="m640.17,120.58l.05.1c-2.84,2.9-5.29,6.17-6.94,9.86-7.7,17.14,4.59,34.4,6.31,36.68l-.07.15.53.24.06-.15c2.55-.21,19.73-2.05,28.82-14.75l.17.02.02-.29c.99-1.4,1.87-2.93,2.62-4.61,2.98-6.62,3.3-14.26,2.52-21.28v-.31s-.03,0-.03,0c-1.24-10.68-5.01-19.85-5.81-21.73l.1-.24-.53-.24-.11.24c-2.49.83-17.34,6.06-27.43,16.19l-.28.14Z"/><path class="cls-5" d="m561.13,151.45l.12-.14-.26-.23c-.7-1.85-1.58-3.71-2.69-5.53-4.36-7.2-11.46-12.53-18.68-16.4l-.28-.22-.03.04c-11.03-5.84-22.27-8.29-24.59-8.75l-.16-.26-.58.35.16.27c-.85,2.93-5.63,20.56-2.58,36.86l-.05.37h.13c.9,4.63,2.43,9.12,4.86,13.13,11.31,18.63,35.9,18.24,39.21,18.1l.1.15.58-.35-.1-.16c1.49-2.58,11.02-20.2,4.85-37.24"/><path class="cls-4" d="m678.97,114.93l.36.12.03-.1c1.67-.3,12.85-2.59,18.04-11.51h.11s0-.19,0-.19c.56-.99,1.05-2.05,1.43-3.2,1.55-4.54,1.28-9.59.34-14.16v-.2h-.05c-1.48-6.95-4.53-12.75-5.18-13.94l.06-.16-.37-.13-.06.17c-1.59.7-11.03,5.07-17.03,12.36l-.18.11.04.06c-1.68,2.08-3.09,4.39-3.96,6.92-4,11.75,5.17,22.34,6.44,23.74l-.03.1Z"/><path class="cls-4" d="m512.31,170.04l.07-.13-.24-.13c-.84-1.31-1.81-2.59-2.96-3.8-4.52-4.81-10.83-7.74-16.99-9.53l-.25-.12-.03.04c-9.39-2.68-18.42-2.72-20.27-2.7l-.16-.17-.39.36.17.17c-.18,2.39-.97,16.68,4.03,28.68l.02.29h.09c1.45,3.38,3.35,6.58,5.87,9.25,11.71,12.44,30.49,8.14,33.01,7.49l.1.1.38-.36-.1-.11c.72-2.21,5.14-17.28-2.35-29.34"/><path class="cls-5" d="m597.31,86.39v.13h.47s0-.12,0-.12c1.83-.98,13.94-7.95,16.52-20.32l.13-.03-.07-.23c.26-1.36.41-2.78.43-4.27.04-5.87-2.21-11.63-5.08-16.57l-.09-.23h-.04c-4.4-7.48-10.17-13.06-11.37-14.18v-.21h-.48s0,.21,0,.21c-1.58,1.43-10.86,10.14-15.02,20.93l-.17.2.07.05c-1.16,3.07-1.91,6.29-1.91,9.56-.12,15.2,14.6,23.97,16.62,25.1"/><path class="cls-3" d="m632.54,188.26l-.14-.44c.48-2.59.74-5.31.74-8.14-.04-11.19-4.47-22.13-10.04-31.5l-.17-.44-.08.02c-8.55-14.21-19.67-24.7-22.01-26.82v-.4h-.9v.41c-2.98,2.75-20.51,19.57-28.22,40.23l-.31.37.13.1c-2.14,5.88-3.49,12.04-3.46,18.27.11,28.98,28.38,45.39,32.24,47.51v.24h.91v-.24c3.45-1.92,26.39-15.46,31.06-39.09l.24-.08Z"/><path class="cls-4" d="m539.53,109.38c5.02,22.4,29.69,30.29,33.05,31.27l.03.19.7-.15-.04-.19c2.34-2.07,17.78-16.45,17.38-35.54l.18-.1-.19-.31c-.07-2.09-.33-4.23-.82-6.42-1.93-8.66-7.22-16.36-13.13-22.66l-.2-.32-.06.03c-9.04-9.54-19.43-15.76-21.6-17.01l-.07-.31-.7.15.07.32c-1.83,2.64-12.53,18.63-14.98,35.93l-.18.34.13.06c-.66,4.91-.65,9.91.43,14.73"/><path class="cls-3" d="m613.5,82c-5.87,18.94,9.21,35.45,11.29,37.63l-.04.16.59.18.05-.16c2.65-.54,20.39-4.68,28.29-19.14h.18v-.31c.84-1.6,1.57-3.31,2.14-5.17,2.26-7.32,1.63-15.36-.09-22.61l-.03-.32h-.06c-2.66-11.03-7.77-20.16-8.86-22.02l.08-.26-.59-.19-.08.27c-2.52,1.19-17.4,8.57-26.67,20.47l-.28.18.06.1c-2.6,3.4-4.74,7.14-6,11.21"/><path class="cls-3" d="m747.88,170.01l.14-.17-.36-.32-.15.17c-2.21.04-15.44.55-26.06,6.18l-.26.04.02.09c-3,1.62-5.77,3.64-8.03,6.19-10.44,11.85-4.86,28.77-4.05,31.03l-.09.1.37.33.09-.1c2.09.47,16.36,3.25,26.81-4.69l.13.05.09-.23c1.14-.89,2.23-1.89,3.25-3.05,4.04-4.58,6.19-10.63,7.31-16.46l.09-.24-.04-.02c1.66-8.88.93-17.19.75-18.89"/><path class="cls-4" d="m696.15,110.55v.09c-2.98,1.62-5.76,3.64-8,6.19-10.44,11.85-4.87,28.77-4.06,31.03l-.08.1.37.33.08-.1c2.1.47,16.35,3.25,26.82-4.69l.12.06.1-.23c1.14-.89,2.23-1.89,3.25-3.05,4.03-4.58,6.19-10.63,7.31-16.46l.08-.24-.03-.02c1.65-8.88.92-17.19.74-18.89l.15-.17-.36-.32-.16.16c-2.21.04-15.43.55-26.05,6.18l-.26.04Z"/><path class="cls-3" d="m506.08,96.62l-.05.2h.07c.24,2.65.83,5.24,1.97,7.62,5.24,11.06,19,12.25,20.86,12.36l.04.09.34-.16-.04-.09c.97-1.35,7.3-10.65,4.83-20.53l.08-.08-.14-.14c-.28-1.07-.67-2.16-1.18-3.24-2.03-4.27-5.68-7.66-9.5-10.23l-.14-.14-.03.02c-5.82-3.89-11.96-5.91-13.23-6.3l-.07-.15-.35.16.07.15c-.64,1.59-4.32,11.17-3.55,20.45"/></svg>