<?xml version="1.0" encoding="UTF-8"?><svg id="Capa_1" xmlns="http://www.w3.org/2000/svg" viewBox="0 0 300 169"><defs><style>.cls-1{fill:#af3889;}.cls-2{fill:#009ca8;}.cls-3{fill:#00609a;}</style></defs><path class="cls-1" d="m25.34,131.69h-.87L7.84,91.76h3.07l14.02,33.44,13.91-33.44h3.19l-16.69,39.93Z"/><path class="cls-1" d="m52.18,131.29v-39.52h21.62v2.55h-18.54v15.82h18.02v2.49l-18.02.06v16.05h18.95v2.55h-22.02Z"/><path class="cls-1" d="m83.18,131.29v-39.52h3.07v36.97h19.53v2.55h-22.6Z"/><path class="cls-1" d="m114.01,131.29v-39.52h3.07v36.97h19.53v2.55h-22.6Z"/><path class="cls-1" d="m177.3,131.29l-6.26-13.68h-19.3l-6.26,13.68h-3.19l18.26-39.81h1.68l18.2,39.81h-3.13Zm-15.94-34.83l-8.46,18.6h16.98l-8.52-18.6Z"/><path class="cls-1" d="m223.77,131.29l-30.02-34.54v34.54h-3.07v-39.52h2.61c2.51,3.01,5,5.95,7.48,8.81,2.47,2.86,4.98,5.7,7.53,8.52,2.55,2.82,5.06,5.66,7.53,8.52,2.47,2.86,4.96,5.8,7.48,8.81v-34.66h3.07v39.52h-2.61Z"/><path class="cls-1" d="m240.81,131.29v-39.52h3.01v39.52h-3.01Z"/><path class="cls-1" d="m289.03,131.29l-6.26-13.68h-19.3l-6.26,13.68h-3.19l18.26-39.81h1.68l18.2,39.81h-3.13Zm-15.94-34.83l-8.46,18.6h16.98l-8.52-18.6Z"/><path class="cls-1" d="m247.62,87.13c1.42-1.49,2.04-3.45,1.88-5.35-1.91-.06-3.83.66-5.24,2.15s-2.04,3.45-1.88,5.35c1.91.06,3.83-.66,5.24-2.15Z"/><path class="cls-1" d="m168.13,11.5s-19.03,1.53-29.76,18.4c-10.73,16.86-4.04,34.75-4.04,34.75,0,0,19.03-1.53,29.76-18.4,10.73-16.86,4.04-34.75,4.04-34.75Z"/><path class="cls-2" d="m190.49,33.76s-3.44,8.97,1.88,17.5c5.32,8.53,14.89,9.38,14.89,9.38,0,0,3.44-8.97-1.88-17.5s-14.89-9.38-14.89-9.38Z"/><path class="cls-2" d="m92.35,43.65s-1.22,9.53,5.97,16.56c7.19,7.03,16.69,5.59,16.69,5.59,0,0,1.22-9.53-5.97-16.56-7.19-7.03-16.69-5.59-16.69-5.59Z"/><path class="cls-3" d="m117.81,25.1s-4.92,5.31-3.59,12.78,7.79,10.74,7.79,10.74c0,0,4.92-5.31,3.59-12.78-1.33-7.46-7.79-10.74-7.79-10.74Z"/><path class="cls-3" d="m178.36,42.34s-6.47,3.25-7.84,10.71c-1.37,7.46,3.53,12.79,3.53,12.79,0,0,6.47-3.25,7.84-10.71,1.37-7.46-3.53-12.79-3.53-12.79Z"/><path class="cls-1" d="m61.89,151.59c0,.7-.24,1.3-.71,1.82-.47.52-1.04.81-1.73.89l1.55,2.66h-.43l-1.55-2.65h-3.32v2.65h-.37v-8.1h3.82c.75,0,1.39.27,1.92.8.53.53.8,1.17.8,1.92Zm-2.73,2.35c.65,0,1.21-.23,1.66-.69.46-.46.69-1.01.69-1.66s-.23-1.21-.69-1.66-1.01-.69-1.66-.69h-3.45v4.71h3.45Z"/><path class="cls-1" d="m61.66,157.33h-1.28l-1.55-2.65h-2.74v2.65h-1.11v-8.84h4.19c.85,0,1.59.31,2.19.91.6.6.91,1.33.91,2.18,0,.79-.27,1.48-.8,2.07-.4.44-.88.74-1.42.9l1.61,2.77Zm-5.57-3.76h3.08c.55,0,1.01-.19,1.4-.58.39-.39.58-.85.58-1.4s-.19-1.01-.58-1.4c-.39-.39-.85-.58-1.4-.58h-3.08v3.97Z"/><path class="cls-1" d="m80.33,148.86v.37h-4.62v3.49h4.15v.37h-4.15v3.49h4.62v.37h-4.99v-8.1h4.99Z"/><polygon class="cls-1" points="80.7 157.33 74.98 157.33 74.98 148.49 80.7 148.49 80.7 149.6 76.09 149.6 76.09 152.36 80.23 152.36 80.23 153.47 76.09 153.47 76.09 156.22 80.7 156.22 80.7 157.33"/><path class="cls-1" d="m98.63,154.81c.05.7-.16,1.27-.63,1.69-.41.38-.93.58-1.57.62-.04,0-.09,0-.16,0-.97,0-1.8-.36-2.48-1.08l.27-.25c.42.44.93.74,1.54.87.31.07.58.1.8.08.53-.03.96-.19,1.3-.48.41-.35.59-.83.55-1.44-.03-.45-.21-.81-.54-1.07-.33-.26-.87-.46-1.6-.6l-.18-.04c-1.34-.29-2.04-.96-2.1-2-.04-.6.14-1.12.54-1.57.4-.45.9-.7,1.5-.73.27-.03.58,0,.94.08.69.15,1.28.48,1.75.98l-.27.26c-.42-.45-.94-.74-1.57-.88-.32-.07-.59-.1-.82-.07-.5.03-.92.23-1.25.6-.33.37-.48.81-.45,1.3.05.89.71,1.46,1.97,1.7l.2.03c.66.14,1.16.33,1.51.59.46.33.71.8.74,1.39Z"/><path class="cls-1" d="m96.27,157.5c-1.07,0-2-.4-2.75-1.19l-.26-.27.81-.76.25.27c.37.39.82.65,1.36.77.27.06.5.09.68.07.46-.03.81-.15,1.09-.39.32-.27.45-.64.42-1.14-.02-.35-.15-.61-.4-.8-.29-.22-.77-.4-1.44-.53l-.19-.04c-1.89-.41-2.34-1.5-2.39-2.34-.04-.7.17-1.31.63-1.84.46-.52,1.05-.81,1.75-.86.25-.03.65,0,1.04.09.76.17,1.41.54,1.93,1.09l.25.27-.81.77-.26-.27c-.37-.4-.82-.65-1.38-.77-.28-.06-.51-.09-.7-.07-.42.03-.74.18-1.01.48-.26.3-.38.64-.35,1.04.01.26.06,1.05,1.67,1.36l.19.03c.73.15,1.27.37,1.67.65.55.4.85.96.9,1.67.05.82-.2,1.49-.74,1.99-.47.43-1.08.67-1.8.72-.04,0-.1,0-.18,0Z"/><path class="cls-1" d="m112.23,148.86h.37v8.1h-.37v-8.1Z"/><rect class="cls-1" x="111.86" y="148.49" width="1.11" height="8.84"/><path class="cls-1" d="m128.86,148.86c1.11,0,2.07.4,2.86,1.19.79.79,1.18,1.74,1.18,2.86s-.4,2.07-1.18,2.86c-.79.79-1.75,1.19-2.86,1.19h-2.59v-8.1h2.59Zm0,7.73c1.01,0,1.88-.36,2.6-1.08s1.08-1.58,1.08-2.6-.36-1.88-1.08-2.6c-.72-.72-1.58-1.08-2.6-1.08h-2.22v7.35h2.22Z"/><path class="cls-1" d="m128.86,157.33h-2.96v-8.84h2.96c1.21,0,2.26.44,3.12,1.3.86.86,1.29,1.91,1.29,3.12s-.43,2.26-1.29,3.12c-.86.86-1.91,1.29-3.12,1.29Zm-1.85-1.11h1.85c.92,0,1.68-.32,2.34-.97.65-.65.97-1.42.97-2.33s-.32-1.69-.97-2.34c-.65-.65-1.42-.97-2.34-.97h-1.85v6.62Z"/><path class="cls-1" d="m151.35,148.86v.37h-4.62v3.49h4.15v.37h-4.15v3.49h4.62v.37h-4.99v-8.1h4.99Z"/><polygon class="cls-1" points="151.72 157.33 145.99 157.33 145.99 148.49 151.72 148.49 151.72 149.6 147.1 149.6 147.1 152.36 151.25 152.36 151.25 153.47 147.1 153.47 147.1 156.22 151.72 156.22 151.72 157.33"/><path class="cls-1" d="m171.21,148.86v8.1h-.58l-5.46-7.87v7.87h-.37v-8.1h.67l5.37,7.74v-7.74h.37Z"/><polygon class="cls-1" points="170.89 157.33 170.44 157.33 165.54 150.27 165.54 157.33 164.43 157.33 164.43 148.49 164.8 148.49 165.2 148.49 165.66 148.49 170.47 155.42 170.47 148.49 171.58 148.49 171.58 157.33 171.2 157.33 170.89 157.33"/><path class="cls-1" d="m188.79,156.76c.96,0,1.8-.32,2.52-.97l.26.27c-.79.72-1.72,1.08-2.79,1.08-1.15,0-2.13-.41-2.93-1.22-.81-.81-1.22-1.79-1.22-2.93s.41-2.12,1.22-2.93c.81-.81,1.79-1.22,2.93-1.22,1.06,0,1.99.36,2.79,1.08l-.26.27c-.72-.65-1.56-.97-2.52-.97-1.04,0-1.93.37-2.68,1.11-.74.74-1.11,1.63-1.11,2.67s.37,1.93,1.11,2.68c.74.74,1.63,1.11,2.68,1.11Z"/><path class="cls-1" d="m188.79,157.5c-1.24,0-2.32-.45-3.2-1.33-.88-.88-1.33-1.95-1.33-3.2s.45-2.31,1.33-3.19c.88-.88,1.95-1.33,3.2-1.33,1.15,0,2.18.39,3.04,1.17l.29.26-.79.79-.26-.23c-.65-.59-1.4-.88-2.28-.88-.95,0-1.74.33-2.41,1-.67.67-1,1.46-1,2.41s.33,1.74,1,2.41c.67.67,1.46,1,2.41,1,.88,0,1.62-.29,2.28-.88l.26-.23.79.79-.29.26c-.86.78-1.88,1.17-3.04,1.17Z"/><path class="cls-1" d="m205.19,148.86h.37v8.1h-.37v-8.1Z"/><rect class="cls-1" x="204.82" y="148.49" width="1.11" height="8.84"/><path class="cls-1" d="m222.99,148.86l3.35,8.1h-.4l-.75-1.81h-5.07l-.75,1.81h-.4l3.36-8.1h.67Zm-2.71,5.91h4.76l-2.38-5.74-2.38,5.74Z"/><path class="cls-1" d="m226.89,157.33h-1.2l-.75-1.81h-4.58l-.75,1.81h-1.2l3.66-8.84h1.16l3.66,8.84Zm-6.07-2.92h3.66l-1.83-4.41-1.83,4.41Z"/><path class="cls-1" d="m239.88,148.86v7.73h4.62v.37h-4.99v-8.1h.37Z"/><polygon class="cls-1" points="244.86 157.33 239.14 157.33 239.14 148.49 240.25 148.49 240.25 156.22 244.86 156.22 244.86 157.33"/></svg>