<?xml version="1.0" encoding="UTF-8"?><svg id="Capa_1" xmlns="http://www.w3.org/2000/svg" viewBox="0 0 700 700"><defs><style>.cls-1{fill:#004e59;}.cls-2{fill:#ffad5f;}.cls-3{fill:#ff6b00;}.cls-4{fill:#00abc8;}.cls-5{fill:#00758d;}.cls-6{fill:#00bed6;}.cls-7{fill:#5fd0df;}.cls-8{fill:#ff5100;}.cls-9{fill:#ff9015;}.cls-10{fill:#673918;}</style></defs><polygon class="cls-9" points="349.71 353.56 306.3 335.34 288.49 291.76 306.71 248.35 350.29 230.54 393.7 248.76 411.51 292.34 393.29 335.75 349.71 353.56"/><polygon class="cls-10" points="324.08 385.73 306.31 335.34 256.32 317.97 193.79 292.05 350 448.26 324.08 385.73"/><polygon class="cls-3" points="506.21 291.83 443.68 265.91 393.7 248.54 411.51 291.81 411.54 291.84 393.29 335.56 443.68 317.78 443.56 317.65 443.68 317.75 506.21 291.83"/><polygon class="cls-3" points="393.29 335.78 350.04 353.58 350.02 353.56 306.31 335.34 324.08 385.73 350 448.26 375.91 385.76 375.92 385.77 393.29 335.78"/><polygon class="cls-9" points="350 135.84 375.92 198.37 393.7 248.76 443.68 266.13 506.21 292.05 350 135.84"/><polygon class="cls-9" points="443.68 317.97 443.63 318.02 393.29 335.78 375.94 385.72 375.92 385.73 350 448.26 506.21 292.05 443.68 317.97"/><polygon class="cls-3" points="306.71 248.35 256.32 266.13 193.79 292.05 256.32 317.97 306.31 335.34 288.49 292.07 306.71 248.35"/><polygon class="cls-2" points="375.92 198.37 350 135.84 324.08 198.37 306.71 248.35 349.98 230.54 393.7 248.76 375.92 198.37"/><polygon class="cls-8" points="193.79 292.05 256.32 266.13 306.71 248.35 324.08 198.37 350 135.84 193.79 292.05"/><polygon class="cls-6" points="529.79 507.52 503.83 496.62 493.17 470.56 504.07 444.6 530.13 433.94 556.1 444.84 566.75 470.9 555.85 496.86 529.79 507.52"/><polygon class="cls-1" points="514.46 526.76 503.83 496.62 473.93 486.23 436.53 470.73 529.96 564.16 514.46 526.76"/><polygon class="cls-4" points="623.39 470.6 585.99 455.1 556.1 444.71 566.75 470.59 566.77 470.6 555.85 496.75 585.99 486.12 585.92 486.04 585.99 486.1 623.39 470.6"/><polygon class="cls-4" points="555.85 496.89 529.98 507.53 529.97 507.52 503.83 496.62 514.46 526.76 529.96 564.16 545.46 526.78 545.46 526.78 555.85 496.89"/><polygon class="cls-6" points="529.96 377.3 545.46 414.7 556.1 444.84 585.99 455.23 623.39 470.73 529.96 377.3"/><polygon class="cls-6" points="585.99 486.23 585.96 486.26 555.85 496.89 545.47 526.75 545.46 526.76 529.96 564.16 623.39 470.73 585.99 486.23"/><polygon class="cls-4" points="504.07 444.6 473.93 455.23 436.53 470.73 473.93 486.23 503.83 496.62 493.17 470.74 504.07 444.6"/><polygon class="cls-7" points="545.46 414.7 529.96 377.3 514.46 414.7 504.07 444.6 529.95 433.94 556.1 444.84 545.46 414.7"/><polygon class="cls-5" points="436.53 470.73 473.93 455.23 504.07 444.6 514.46 414.7 529.96 377.3 436.53 470.73"/><polygon class="cls-6" points="169.87 507.52 143.9 496.62 133.25 470.56 144.15 444.6 170.21 433.94 196.17 444.84 206.83 470.9 195.93 496.86 169.87 507.52"/><polygon class="cls-1" points="154.54 526.76 143.91 496.62 114.01 486.23 76.61 470.73 170.04 564.16 154.54 526.76"/><polygon class="cls-4" points="263.47 470.6 226.07 455.1 196.17 444.71 206.83 470.59 206.85 470.6 195.93 496.75 226.07 486.12 226 486.04 226.07 486.1 263.47 470.6"/><polygon class="cls-4" points="195.93 496.89 170.06 507.53 170.05 507.52 143.91 496.62 154.54 526.76 170.04 564.16 185.54 526.78 185.54 526.78 195.93 496.89"/><polygon class="cls-6" points="170.04 377.3 185.54 414.7 196.17 444.84 226.07 455.23 263.47 470.73 170.04 377.3"/><polygon class="cls-6" points="226.07 486.23 226.04 486.26 195.93 496.89 185.55 526.75 185.54 526.76 170.04 564.16 263.47 470.73 226.07 486.23"/><polygon class="cls-4" points="144.15 444.6 114.01 455.23 76.61 470.73 114.01 486.23 143.91 496.62 133.25 470.74 144.15 444.6"/><polygon class="cls-7" points="185.54 414.7 170.04 377.3 154.54 414.7 144.15 444.6 170.03 433.94 196.17 444.84 185.54 414.7"/><polygon class="cls-5" points="76.61 470.73 114.01 455.23 144.15 444.6 154.54 414.7 170.04 377.3 76.61 470.73"/></svg>