<?xml version="1.0" encoding="UTF-8"?><svg id="Capa_1" xmlns="http://www.w3.org/2000/svg" viewBox="0 0 700 700"><defs><style>.cls-1{fill:#8cc04b;}</style></defs><path class="cls-1" d="m635.26,251.04c-9.69-22.51-23.47-42.55-40.97-59.55-34.48-33.5-79.41-51.21-126.54-49.87-43.23,1.24-81.62,15.11-114.09,41.23-19.39,14.23-33.75,30.76-43.91,50.54-12.05,23.47-18.65,51.99-20.16,87.19-2.8,64.98-15.56,105.29-40.17,126.87-9.89,8.07-21.04,14.24-33.14,18.36-8.37,2.58-16.6,3.92-24.21,4.5v-24.46l53.92-53.32.16-.15-14.7-15.93-39.37,38.57v-58.87h-21.85v58.92l-38.39-32.62-13.47,17.15,51.67,46.26v24.19c-.83-.08-1.63-.17-2.4-.26-48.78-8.06-84.18-49.78-84.18-99.21,0-55.51,45.16-100.67,100.67-100.67,14.76,0,29.11,3.23,42.67,9.59l.18.08,20.61-32.12-.22-.11c-19.32-9.92-40.14-14.94-61.9-14.94-36.27,0-70.37,14.12-96.01,39.77-25.65,25.65-39.77,59.74-39.77,96.01s14.12,70.37,39.77,96.01c21.97,21.97,50.16,35.48,80.59,38.9v55.05l22.05.31v-54.68c25-.87,47.72-8.27,67.61-22.03,28.07-18.4,48.26-46.24,56.86-78.39,7.9-23.87,9.66-46.71,11.36-68.79.19-2.43.37-4.83.57-7.25,0-.23-.01-.46-.02-.69,0-.27-.02-.55-.02-.82,0-75.28,61.25-136.53,136.53-136.53s136.53,61.25,136.53,136.53c0,.24,0,.47-.02.71,0,.21-.02.41-.02.62,0,.05,0,.1,0,.16,0,.05,0,.09,0,.14,0,69.16-52.08,126.37-119.08,134.5v-63.86l54.07-53.47-14.7-15.93-39.37,38.57v-56.37h-21.85v56.42l-38.39-32.62-13.47,17.15,51.67,46.26v64.72c-15.72-.66-31.15-4.07-45.94-10.18-1.77-.71-3.56-1.47-5.33-2.26-.25-.11-.49-.22-.74-.33-.32-.14-.65-.28-.97-.44-10.49-4.89-20.3-11.07-29.16-18.37l-.14-.12-34.34,27.01.2.18c32,29.58,73.1,46.57,116.43,48.32v51.54l22.05.31v-52.26c19.48-1.53,38.41-6.15,56.44-13.77,21.74-9.2,41.26-22.36,58.03-39.13,16.77-16.77,29.93-36.29,39.13-58.03,9.52-22.51,14.35-46.42,14.35-71.06s-5.07-49.92-15.07-73.15Z"/></svg>