<?xml version="1.0" encoding="UTF-8"?><svg id="Capa_1" xmlns="http://www.w3.org/2000/svg" viewBox="0 0 700 700"><defs><style>.cls-1{fill:#c97d31;}.cls-2{fill:#238dc1;}.cls-3{fill:#6bcbb8;}.cls-4{fill:#009877;}</style></defs><polygon class="cls-1" points="424.01 371.99 404.96 359.25 346.15 447.07 344.25 360.7 321.32 360.7 318.96 468.43 265.95 389.27 246.91 402.03 318.07 508.3 314.79 657.65 350.79 657.65 347.03 486.95 424.01 371.99"/><path class="cls-3" d="m218.76,439.92v-.2s-.36-.02-.36-.02c-1.87-1.13-3.86-2.14-6.05-2.97-8.6-3.27-18.29-3.11-27.12-1.6h-.37l-.02.07c-13.43,2.37-24.75,7.81-27.07,8.98l-.32-.12-.26.69.31.12c1.24,3.1,8.96,21.5,22.55,33.51l.19.35.12-.07c3.88,3.37,8.2,6.23,12.99,8.04,22.27,8.47,43.2-8.38,45.96-10.72l.2.07.26-.69-.19-.07c-.45-3.21-4.08-24.81-20.82-35.37"/><path class="cls-3" d="m546.45,390.49l-.3-.68-.3.13c-3.07-1.34-21.49-9-39.59-8.01l-.38-.1-.04.13c-5.12.32-10.21,1.33-14.89,3.41-21.8,9.62-24.85,36.31-25.18,39.92l-.17.08.28.68.19-.08c2.58,1.97,20.34,14.78,39.68,10.53l.13.16.28-.25c2.12-.49,4.25-1.18,6.38-2.13,8.42-3.71,15.21-10.63,20.42-17.91l.27-.28-.05-.04c7.88-11.12,12.13-22.96,12.96-25.41l.31-.13Z"/><path class="cls-3" d="m302.03,385.12l.21-.27-.49-.38c-1.44-3.35-3.22-6.67-5.41-9.91-8.65-12.79-22.1-21.94-35.67-28.4l-.53-.37-.07.09c-20.69-9.73-41.49-13.22-45.79-13.86l-.33-.46-1.03.69.31.47c-1.3,5.44-8.48,38.16-1.47,67.75l-.06.67h.23c2.06,8.38,5.24,16.48,10.06,23.6,22.36,33.12,67.35,30.25,73.4,29.71l.18.27,1.04-.69-.18-.28c2.47-4.84,18.37-37.97,5.6-68.64"/><path class="cls-4" d="m196.07,423.39l.19.2.75-.71-.2-.19c1.36-4.28,9.73-33.36-4.85-56.52l.15-.26-.46-.23c-1.63-2.52-3.53-4.97-5.74-7.31-8.78-9.2-20.95-14.79-32.87-18.17l-.49-.24-.03.09c-18.16-5.07-35.52-5.05-39.09-4.98l-.33-.33-.75.7.33.33c-.31,4.6-1.67,32.16,8.07,55.23l.04.55.19-.02c2.82,6.53,6.52,12.66,11.4,17.79,22.69,23.83,58.84,15.33,63.69,14.06"/><path class="cls-2" d="m471.31,448.06c-3.11-2.17-21.95-14.84-42.34-17.78l-.39-.21-.09.14c-5.79-.79-11.68-.8-17.36.47-26.45,5.84-35.81,34.92-36.97,38.87l-.24.05.19.82.22-.05c2.43,2.77,19.36,21.03,41.87,20.61l.12.2.36-.22c2.47-.08,4.99-.38,7.58-.94,10.23-2.26,19.33-8.46,26.77-15.41l.36-.24-.04-.07c11.29-10.62,18.67-22.87,20.13-25.42l.36-.08-.17-.83-.37.08Z"/><path class="cls-4" d="m512.12,258.7l.44-.53-1.2-1-.45.54c-6.97.37-48.61,3.32-81.54,22.16l-.81.15.06.28c-9.3,5.42-17.84,12.08-24.66,20.35-31.72,38.43-12.39,91.22-9.61,98.27l-.27.32,1.19.99.27-.32c6.66,1.27,51.89,8.59,84.05-17.52l.42.17.28-.74c3.49-2.9,6.83-6.19,9.93-9.96,12.25-14.84,18.45-34.16,21.37-52.67l.26-.77-.13-.06c4.33-28.19,1.16-54.3.41-59.67"/><path class="cls-4" d="m402.45,197.06l.08.17c-4.87,4.97-9.07,10.58-11.89,16.9-13.2,29.39,7.87,58.98,10.83,62.9l-.12.25.9.42.11-.26c4.38-.35,33.83-3.52,49.41-25.3l.29.04.03-.51c1.69-2.41,3.21-5.03,4.49-7.91,5.11-11.34,5.66-24.45,4.32-36.49l.02-.52-.08-.02c-2.13-18.31-8.58-34.04-9.96-37.26l.17-.41-.9-.42-.19.42c-4.28,1.42-29.74,10.39-47.02,27.76l-.49.23Z"/><path class="cls-4" d="m266.92,250l.21-.24-.44-.39c-1.2-3.18-2.7-6.36-4.61-9.49-7.48-12.34-19.65-21.49-32.03-28.12l-.49-.37-.06.08c-18.91-10.01-38.18-14.21-42.17-15l-.27-.45-1,.6.27.46c-1.46,5.02-9.65,35.25-4.43,63.21l-.09.63.22.02c1.54,7.92,4.16,15.62,8.33,22.49,19.4,31.94,61.55,31.27,67.23,31.04l.17.27,1-.59-.17-.27c2.55-4.42,18.89-34.64,8.32-63.86"/><path class="cls-3" d="m468.96,187.37l.63.21.05-.17c2.87-.51,22.03-4.44,30.93-19.73h.19s0-.33,0-.33c.96-1.69,1.8-3.51,2.45-5.48,2.65-7.79,2.19-16.44.58-24.27v-.35h-.08c-2.54-11.92-7.77-21.86-8.88-23.9l.11-.27-.63-.21-.1.28c-2.73,1.2-18.92,8.69-29.21,21.2l-.31.18.07.1c-2.89,3.57-5.3,7.53-6.78,11.87-6.85,20.15,8.87,38.3,11.04,40.7l-.06.17Z"/><path class="cls-3" d="m183.21,281.86l.13-.23-.41-.21c-1.44-2.24-3.11-4.43-5.07-6.52-7.76-8.24-18.57-13.27-29.14-16.34l-.43-.21-.05.08c-16.11-4.59-31.58-4.67-34.76-4.63l-.27-.29-.67.62.29.3c-.31,4.1-1.66,28.61,6.91,49.18l.03.49.15-.02c2.48,5.82,5.74,11.3,10.06,15.88,20.07,21.33,52.28,13.95,56.59,12.84l.17.18.66-.62-.17-.18c1.23-3.79,8.82-29.63-4.03-50.3"/><path class="cls-4" d="m328.96,138.45v.22h.81s0-.21,0-.21c3.13-1.69,23.9-13.64,28.32-34.83l.22-.06-.12-.4c.44-2.33.71-4.76.74-7.31.08-10.07-3.8-19.94-8.71-28.41l-.15-.4-.07.02c-7.55-12.85-17.44-22.41-19.5-24.34v-.36h-.83s0,.35,0,.35c-2.7,2.45-18.62,17.39-25.75,35.88l-.29.34.12.09c-1.99,5.26-3.27,10.78-3.28,16.39-.21,26.05,25.04,41.09,28.5,43.03"/><path class="cls-2" d="m389.36,313.1l-.24-.75c.82-4.45,1.27-9.1,1.26-13.96-.07-19.19-7.66-37.94-17.21-54l-.29-.75-.14.04c-14.66-24.36-33.73-42.36-37.73-45.99v-.69h-1.54v.7c-5.11,4.72-35.16,33.55-48.38,68.97l-.53.64.23.17c-3.67,10.08-5.98,20.64-5.93,31.33.19,49.68,48.67,77.82,55.28,81.45v.42h1.55v-.42c5.91-3.28,45.24-26.51,53.26-67.03l.41-.13Z"/><path class="cls-3" d="m229.88,177.85c8.61,38.41,50.9,51.93,56.66,53.61l.06.32,1.2-.26-.07-.33c4.02-3.55,30.48-28.21,29.79-60.93l.3-.17-.33-.54c-.12-3.58-.56-7.26-1.41-11.01-3.32-14.85-12.38-28.06-22.51-38.85l-.35-.54-.1.06c-15.5-16.35-33.32-27.02-37.03-29.16l-.13-.54-1.19.26.12.54c-3.14,4.53-21.49,31.94-25.69,61.61l-.3.58.22.1c-1.13,8.43-1.12,16.99.74,25.25"/><path class="cls-2" d="m356.71,130.92c-10.07,32.47,15.79,60.78,19.37,64.51l-.08.27,1.01.31.09-.27c4.54-.93,34.96-8.02,48.5-32.82h.31l-.03-.54c1.46-2.73,2.71-5.68,3.7-8.86,3.88-12.54,2.79-26.33-.15-38.77l-.04-.55h-.1c-4.56-18.91-13.32-34.57-15.18-37.76l.14-.45-1.02-.32-.13.46c-4.31,2.04-29.83,14.69-45.73,35.1l-.47.31.11.17c-4.46,5.82-8.12,12.24-10.29,19.22"/><path class="cls-2" d="m587.11,281.81l.24-.28-.62-.56-.26.28c-3.79.08-26.48.95-44.68,10.59l-.45.07.03.16c-5.14,2.78-9.9,6.25-13.76,10.62-17.9,20.32-8.33,49.34-6.94,53.21l-.15.17.63.57.15-.17c3.59.8,28.04,5.58,45.96-8.04l.22.09.16-.39c1.95-1.52,3.81-3.25,5.57-5.23,6.93-7.84,10.62-18.23,12.53-28.23l.15-.42-.08-.04c2.85-15.23,1.59-29.47,1.28-32.4"/><path class="cls-3" d="m498.41,179.87l.02.16c-5.13,2.77-9.9,6.24-13.74,10.61-17.9,20.32-8.35,49.32-6.96,53.2l-.14.17.63.56.14-.17c3.6.81,28.04,5.58,45.98-8.04l.2.1.17-.4c1.96-1.52,3.82-3.24,5.58-5.23,6.92-7.84,10.62-18.23,12.53-28.23l.14-.41-.06-.04c2.84-15.23,1.58-29.47,1.27-32.39l.25-.29-.62-.55-.27.28c-3.79.08-26.46.95-44.67,10.6l-.45.07Z"/><path class="cls-2" d="m172.54,155.98l-.09.34.12.02c.42,4.51,1.43,8.96,3.38,13.04,8.99,18.96,32.58,21,35.77,21.19l.07.16.59-.28-.06-.16c1.66-2.32,12.51-18.27,8.29-35.2l.14-.13-.24-.24c-.48-1.84-1.14-3.7-2.03-5.56-3.48-7.32-9.75-13.13-16.28-17.54l-.24-.24-.04.04c-9.98-6.68-20.51-10.13-22.69-10.8l-.13-.26-.59.27.12.27c-1.1,2.73-7.4,19.15-6.08,35.06"/></svg>