<?xml version="1.0" encoding="UTF-8" standalone="no"?>
<!-- Created with Inkscape (http://www.inkscape.org/) -->

<svg
   width="5.2916665mm"
   height="4.8653789mm"
   viewBox="0 0 5.2916665 4.8653789"
   version="1.1"
   id="svg5"
   xml:space="preserve"
   inkscape:version="1.2.1 (9c6d41e410, 2022-07-14)"
   sodipodi:docname="niveles.svg"
   xmlns:inkscape="http://www.inkscape.org/namespaces/inkscape"
   xmlns:sodipodi="http://sodipodi.sourceforge.net/DTD/sodipodi-0.dtd"
   xmlns="http://www.w3.org/2000/svg"
   xmlns:svg="http://www.w3.org/2000/svg"><sodipodi:namedview
     id="namedview7"
     pagecolor="#ffffff"
     bordercolor="#000000"
     borderopacity="0.25"
     inkscape:showpageshadow="2"
     inkscape:pageopacity="0.0"
     inkscape:pagecheckerboard="0"
     inkscape:deskcolor="#d1d1d1"
     inkscape:document-units="mm"
     showgrid="false"
     inkscape:zoom="12.38642"
     inkscape:cx="4.7229144"
     inkscape:cy="8.9210605"
     inkscape:window-width="1920"
     inkscape:window-height="1001"
     inkscape:window-x="2391"
     inkscape:window-y="-9"
     inkscape:window-maximized="1"
     inkscape:current-layer="layer1" /><defs
     id="defs2" /><g
     inkscape:label="Capa 1"
     inkscape:groupmode="layer"
     id="layer1"
     transform="translate(-81.06609,-150.94748)"><g
       style="fill:currentColor;stroke-width:0.750063"
       id="g194"
       transform="matrix(0.35274807,0,0,0.35274807,80.889939,150.52164)"><path
         d="m 8.707,1.5 a 1,1 0 0 0 -1.414,0 L 0.646,8.146 A 0.5006316,0.5006316 0 0 0 1.354,8.854 L 8,2.207 14.646,8.854 A 0.5006316,0.5006316 0 0 0 15.354,8.146 L 13,5.793 V 2.5 A 0.5,0.5 0 0 0 12.5,2 h -1 A 0.5,0.5 0 0 0 11,2.5 v 1.293 z"
         id="path182"
         style="stroke-width:0.750063" /><path
         d="m 8,3.293 6,6 V 13.5 A 1.5,1.5 0 0 1 12.5,15 h -9 A 1.5,1.5 0 0 1 2,13.5 V 9.293 Z"
         id="path184"
         style="stroke-width:0.750063" /></g></g></svg>
