<?xml version="1.0" encoding="UTF-8"?><svg id="Capa_1" xmlns="http://www.w3.org/2000/svg" viewBox="0 0 300 218"><defs><style>.cls-1{fill:#00896f;}.cls-2{fill:#0080b9;}.cls-3{fill:#5f5b5e;}.cls-4{fill:#b8733d;}.cls-5{fill:#7bb091;}</style></defs><path class="cls-3" d="m46.2,137.55c-.09.22-2.03,4.41-5.82,12.56-3.79,8.15-7.41,16.01-10.86,23.57h-3.66c-3.8-8.48-7.43-16.5-10.91-24.04-3.46-7.55-5.28-11.5-5.44-11.87l4.29-2.13c.12.37,1.79,4.19,4.97,11.46,3.19,7.28,6.25,14.13,9.21,20.54h.06c3-6.59,6.13-13.52,9.36-20.81,3.23-7.28,4.9-11.03,5.02-11.26l3.79,1.97Z"/><path class="cls-3" d="m83.72,171.65l-4.29,2.22c-.08-.2-.67-1.57-1.76-4.1-1.1-2.54-2.55-5.79-4.36-9.77h-16.3c-1.93,4.27-3.43,7.59-4.48,9.94-1.05,2.35-1.63,3.66-1.74,3.94l-3.69-2c.47-.95,2.45-5.16,5.9-12.62,3.46-7.46,7.05-15.29,10.78-23.51h3.58c3.67,8.22,7.28,16.18,10.82,23.88,3.54,7.71,5.38,11.71,5.53,12.02m-11.97-15.18c-.97-2.24-2-4.58-3.08-7.02-1.09-2.45-2.21-5-3.4-7.66l-.12.03c-.92,2.01-2.03,4.49-3.34,7.44-1.31,2.94-2.38,5.35-3.23,7.22v.03s13.18,0,13.18,0v-.03Z"/><path class="cls-3" d="m113.04,173.07c-.22,0-1.38,0-3.48-.03-2.1-.02-4.78-.03-8.05-.03-2.15,0-4.19,0-6.13.03-1.94.02-3.58.03-4.92.03.04-3.15.07-6.36.1-9.6.03-3.24.04-6.42.04-9.54,0-5.21-.01-9.18-.05-11.92-.04-2.74-.07-4.65-.09-5.76h4.54c-.03,2.37-.06,5.1-.08,8.2-.02,3.1-.03,5.64-.03,7.62,0,4.82.01,8.85.03,12.07.02,3.22.02,4.93.02,5.12.76,0,1.67,0,2.73,0,1.06.01,2.03.02,2.89.02,3.29,0,6.14-.02,8.58-.04,2.43-.03,3.73-.04,3.9-.04v3.86Z"/><path class="cls-3" d="m146.29,140.15c-.3,0-1.52-.01-3.69-.03-2.17-.02-5.45-.03-9.83-.03-.03,3.77-.06,6.62-.08,8.57-.02,1.95-.03,4.6-.03,7.96s.01,6.52.04,9.86c.03,3.33.05,5.54.06,6.65h-4.54c.04-1.11.07-3.35.1-6.75.03-3.4.04-6.73.04-9.97v-7.62c0-1.89-.03-4.78-.08-8.7-3.91-.02-7.08-.01-9.52.02-2.43.03-3.76.04-4.01.04v-3.8c1.89,0,4.19,0,6.9.03,2.71.02,5.59.03,8.65.03,4.44,0,8.15,0,11.13-.03,2.98-.02,4.59-.03,4.84-.03v3.8Z"/><path class="cls-3" d="m176.4,173.07c-.16,0-1.38,0-3.66-.03-2.28-.02-5.09-.03-8.45-.03-2.33,0-4.47,0-6.4.03-1.94.02-3.58.03-4.92.03.04-1.07.07-3.37.1-6.91.03-3.54.04-7.2.04-10.98,0-2.08,0-4.82-.03-8.24-.02-3.41-.06-6.94-.11-10.6,1.31,0,2.94,0,4.89.03,1.95.02,3.97.03,6.04.03,3.51,0,6.36,0,8.56-.03,2.2-.02,3.4-.03,3.58-.03v3.83c-.18,0-1.33-.01-3.45-.04-2.12-.03-4.76-.04-7.91-.04-1.38,0-2.73,0-4.05.02-1.32,0-2.36.01-3.13.01,0,2.07-.02,4.14-.06,6.21-.04,2.06-.06,4.01-.06,5.84.83,0,1.81,0,2.94.01,1.13.01,2.14.01,3.02.01,3.23,0,6.11-.01,8.65-.03,2.54-.03,3.9-.04,4.06-.04v3.8c-.14,0-1.66-.01-4.54-.04-2.88-.03-5.52-.04-7.9-.04-.89,0-1.93,0-3.15,0-1.22.01-2.24.02-3.07.02,0,3.47.02,6.22.03,8.25.02,2.04.03,3.75.06,5.13,1.08.02,2.39.03,3.93.03,1.55.01,3.21.02,4.99.02,2.73,0,5.03,0,6.89-.03,1.86-.02,2.91-.03,3.12-.03v3.82Z"/><path class="cls-3" d="m215.46,170.93l-3.45,2.84c-.4-.43-1.83-2.02-4.29-4.78-2.47-2.76-6.25-7.08-11.36-12.94l.03-.25c.7-.19,1.63-.58,2.78-1.2,1.16-.61,2.13-1.28,2.92-2,.68-.62,1.27-1.39,1.78-2.31.51-.92.76-2.15.76-3.7,0-1.41-.37-2.63-1.12-3.64-.74-1.02-1.77-1.78-3.07-2.25-1.06-.4-2.18-.65-3.35-.73-1.17-.08-2.26-.12-3.25-.12-.66,0-1.16,0-1.52.02-.35,0-.6.01-.77.01-.03,3.49-.06,6.56-.07,9.23-.01,2.66-.01,4.54-.01,5.64,0,2.52.01,5.93.04,10.25.03,4.32.05,7.03.06,8.13h-4.54c.02-1.1.05-3.24.09-6.4.04-3.16.05-7.11.05-11.83v-5.1c0-2.47-.04-6.99-.14-13.54.19,0,1.1-.02,2.75-.05,1.65-.04,3.18-.06,4.56-.06,1.59,0,3.14.09,4.65.27,1.5.18,2.97.58,4.4,1.18,1.82.77,3.25,1.91,4.32,3.4,1.06,1.49,1.59,3.24,1.59,5.27,0,2.6-.8,4.77-2.41,6.5-1.6,1.73-3.12,3.02-4.54,3.86v.14c2.51,2.94,5.27,5.97,8.27,9.09,3.01,3.13,4.62,4.8,4.84,5.05"/><path class="cls-3" d="m251.19,170.93l-3.44,2.84c-.4-.43-1.84-2.02-4.29-4.78-2.46-2.76-6.25-7.08-11.36-12.94l.03-.25c.7-.19,1.62-.58,2.78-1.2,1.15-.61,2.13-1.28,2.92-2,.68-.62,1.27-1.39,1.78-2.31.51-.92.76-2.15.76-3.7,0-1.41-.37-2.63-1.12-3.64-.74-1.02-1.77-1.78-3.06-2.25-1.07-.4-2.18-.65-3.36-.73-1.18-.08-2.27-.12-3.25-.12-.66,0-1.16,0-1.52.02-.35,0-.6.01-.77.01-.03,3.49-.06,6.56-.06,9.23,0,2.66-.02,4.54-.02,5.64,0,2.52.02,5.93.04,10.25.03,4.32.05,7.03.07,8.13h-4.55c.02-1.1.05-3.24.09-6.4.03-3.16.05-7.11.05-11.83v-5.1c0-2.47-.04-6.99-.14-13.54.19,0,1.1-.02,2.75-.05,1.65-.04,3.17-.06,4.56-.06,1.6,0,3.15.09,4.65.27,1.5.18,2.97.58,4.4,1.18,1.81.77,3.25,1.91,4.32,3.4,1.06,1.49,1.59,3.24,1.59,5.27,0,2.6-.81,4.77-2.41,6.5-1.6,1.73-3.12,3.02-4.54,3.86v.14c2.51,2.94,5.27,5.97,8.27,9.09,3,3.13,4.62,4.8,4.84,5.05"/><path class="cls-3" d="m289.14,171.65l-4.28,2.22c-.08-.2-.67-1.57-1.76-4.1-1.11-2.54-2.55-5.79-4.36-9.77h-16.3c-1.94,4.27-3.43,7.59-4.48,9.94-1.05,2.35-1.63,3.66-1.74,3.94l-3.69-2c.47-.95,2.45-5.16,5.91-12.62,3.46-7.46,7.05-15.29,10.77-23.51h3.58c3.67,8.22,7.28,16.18,10.82,23.88,3.54,7.71,5.39,11.71,5.53,12.02m-11.96-15.18c-.97-2.24-2.01-4.58-3.08-7.02-1.08-2.45-2.21-5-3.4-7.66l-.12.03c-.92,2.01-2.03,4.49-3.34,7.44-1.31,2.94-2.38,5.35-3.23,7.22v.03s13.18,0,13.18,0v-.03Z"/><path class="cls-1" d="m20.08,204.7h-1.32l-1.63-4.35c-.16-.41-.34-.8-.53-1.17-.2-.37-.42-.69-.68-.97-.26-.27-.56-.49-.89-.65-.34-.16-.72-.24-1.17-.24h-5.72v7.38h-1.2v-16.36h7.36c.69,0,1.35.07,1.99.19.64.12,1.22.34,1.72.66.5.32.9.76,1.2,1.32.3.56.45,1.28.45,2.16,0,.54-.07,1.06-.2,1.54-.13.47-.34.89-.61,1.27-.28.37-.63.69-1.05.95-.42.26-.92.46-1.48.57.3.25.55.47.76.69.2.22.37.45.51.7.14.25.27.52.38.83.12.3.25.64.4,1.03l1.69,4.45Zm-11.94-8.58h5.68c.8,0,1.49-.06,2.07-.18.58-.11,1.06-.32,1.43-.6.37-.27.65-.62.83-1.06.18-.44.27-.97.27-1.61,0-1.12-.36-1.93-1.07-2.41-.71-.48-1.78-.72-3.19-.72h-6.02v6.59Z"/><polygon class="cls-1" points="49 204.7 37.19 204.7 37.19 188.34 48.6 188.34 48.6 189.53 38.38 189.53 38.38 195.58 47.96 195.58 47.96 196.78 38.38 196.78 38.38 203.51 49 203.51 49 204.7"/><path class="cls-1" d="m72.12,205c-1.11,0-2.07-.12-2.9-.35s-1.52-.57-2.09-1c-.56-.43-.99-.96-1.29-1.57-.29-.61-.47-1.3-.52-2.07h1.18c.12.74.35,1.35.67,1.84.33.49.74.87,1.22,1.16.48.29,1.03.49,1.66.62.61.11,1.27.17,1.97.17s1.38-.08,1.97-.23c.58-.15,1.07-.38,1.49-.67.42-.29.73-.65.95-1.06.22-.41.33-.88.33-1.39,0-.55-.1-1.01-.28-1.39-.19-.37-.51-.7-.95-.97-.46-.28-1.04-.53-1.77-.75-.73-.22-1.64-.44-2.73-.67-.89-.2-1.66-.43-2.3-.69-.64-.26-1.17-.56-1.59-.9-.42-.34-.73-.74-.93-1.18-.2-.45-.3-.96-.3-1.55,0-.64.13-1.22.4-1.75.26-.52.65-.97,1.14-1.36.5-.37,1.09-.66,1.78-.87.69-.21,1.46-.31,2.29-.31s1.6.1,2.3.29c.7.2,1.3.47,1.83.84.52.37.95.82,1.27,1.35.32.53.53,1.12.62,1.79h-1.15c-.11-.43-.29-.85-.54-1.23s-.57-.7-.96-.97c-.39-.28-.86-.49-1.41-.65-.54-.16-1.16-.23-1.86-.23-1.46,0-2.58.27-3.33.81-.75.54-1.12,1.27-1.12,2.21,0,.42.07.8.21,1.12.14.32.37.6.71.86.33.26.77.48,1.32.67.55.2,1.23.38,2.05.54.48.1.97.2,1.48.32.51.11,1,.24,1.49.39.49.14.94.33,1.38.55.45.22.82.49,1.15.81.33.32.59.7.78,1.14.2.44.3.97.3,1.58,0,.7-.15,1.34-.45,1.92-.29.58-.71,1.09-1.23,1.51-.53.43-1.15.75-1.86.98-.72.23-1.51.35-2.35.35"/><rect class="cls-1" x="95.56" y="188.34" width="1.19" height="16.36"/><path class="cls-1" d="m128.15,196.39c0,5.54-2.76,8.31-8.26,8.31h-4.95v-16.34h4.95c2.75,0,4.82.66,6.19,2,1.38,1.33,2.07,3.34,2.07,6.04m-1.27,0c0-1.08-.11-2.04-.32-2.89-.21-.84-.59-1.56-1.13-2.16-.54-.59-1.26-1.04-2.16-1.35-.9-.31-2.04-.46-3.41-.46h-3.72v13.97h3.72c1.36,0,2.5-.16,3.39-.48.9-.32,1.62-.78,2.16-1.4.54-.61.92-1.35,1.14-2.23.22-.88.33-1.87.33-3.01"/><polygon class="cls-1" points="157 204.7 145.18 204.7 145.18 188.34 156.59 188.34 156.59 189.53 146.38 189.53 146.38 195.58 155.95 195.58 155.95 196.78 146.38 196.78 146.38 203.51 157 203.51 157 204.7"/><polygon class="cls-1" points="186.72 204.7 185.15 204.7 175.17 189.76 175.17 204.7 173.97 204.7 173.97 188.34 175.62 188.34 185.52 203.25 185.52 188.34 186.72 188.34 186.72 204.7"/><path class="cls-1" d="m216.2,192.72c-.11-.49-.32-.95-.62-1.37-.29-.43-.66-.8-1.11-1.11-.45-.32-.97-.56-1.55-.74-.58-.18-1.21-.27-1.88-.27-.95,0-1.8.15-2.57.46-.77.31-1.43.77-1.98,1.37-.54.6-.97,1.36-1.26,2.26-.29.9-.44,1.95-.44,3.14s.15,2.25.44,3.16c.29.91.72,1.68,1.26,2.3.54.61,1.2,1.08,1.96,1.4.76.32,1.61.48,2.55.48,1.41,0,2.58-.31,3.5-.95.91-.63,1.48-1.56,1.7-2.78h1.24c-.12.78-.37,1.47-.73,2.09-.37.61-.83,1.13-1.39,1.55-.56.42-1.2.74-1.93.96-.73.21-1.52.32-2.36.32-1.15,0-2.19-.2-3.11-.6-.92-.41-1.71-.97-2.36-1.71-.64-.74-1.15-1.63-1.49-2.68-.35-1.05-.52-2.23-.52-3.54s.17-2.46.52-3.5c.35-1.03.86-1.92,1.5-2.65.65-.74,1.44-1.29,2.36-1.69.92-.39,1.95-.59,3.1-.59.79,0,1.54.12,2.25.34.72.23,1.35.55,1.92.97.56.42,1.04.91,1.43,1.49.39.57.66,1.2.8,1.89h-1.24Z"/><rect class="cls-1" x="235.04" y="188.34" width="1.19" height="16.36"/><path class="cls-1" d="m267.37,204.7h-1.43l-2-5.26h-8.06c-.29.83-.6,1.7-.94,2.62-.34.92-.66,1.8-.97,2.64h-1.27c.54-1.42,1.07-2.8,1.59-4.16.52-1.36,1.05-2.7,1.57-4.04.52-1.34,1.03-2.69,1.56-4.04.52-1.36,1.05-2.73,1.59-4.14h1.69l6.68,16.38Zm-3.78-6.21l-3.79-9.1-3.6,9.1h7.39Z"/><polygon class="cls-1" points="293.05 204.7 283.42 204.7 283.42 188.34 284.61 188.34 284.61 203.51 293.05 203.51 293.05 204.7"/><polygon class="cls-4" points="165.85 70.74 162.51 68.51 152.2 83.89 151.87 68.76 147.85 68.76 147.45 87.63 138.16 73.77 134.82 76 147.29 94.61 146.71 120.77 153.02 120.77 152.35 90.87 165.85 70.74"/><path class="cls-5" d="m129.89,82.64v-.04s-.06,0-.06,0c-.33-.2-.67-.37-1.06-.52-1.51-.57-3.21-.54-4.75-.28h-.07v.02c-2.35.41-4.34,1.36-4.75,1.57l-.05-.03-.04.13.05.02c.22.54,1.57,3.76,3.95,5.87l.04.06.02-.02c.68.59,1.44,1.1,2.28,1.41,3.9,1.48,7.56-1.47,8.05-1.88h.03s.04-.11.04-.11h-.03c-.08-.57-.72-4.36-3.65-6.21"/><path class="cls-5" d="m187.29,73.98l-.06-.12-.05.03c-.54-.23-3.77-1.58-6.93-1.4l-.07-.02v.02c-.91.06-1.8.23-2.62.6-3.82,1.69-4.35,6.36-4.4,7h-.03s.05.13.05.13h.03c.46.33,3.56,2.58,6.95,1.83l.03.03.05-.04c.37-.09.75-.21,1.11-.37,1.48-.66,2.67-1.86,3.58-3.14l.05-.05h0c1.38-1.95,2.12-4.03,2.27-4.46l.06-.02Z"/><path class="cls-5" d="m144.48,73.04l.04-.05-.09-.06c-.25-.58-.57-1.17-.94-1.74-1.52-2.24-3.87-3.84-6.24-4.97l-.1-.06v.02c-3.64-1.71-7.28-2.32-8.03-2.43l-.06-.08-.18.12.05.08c-.23.95-1.49,6.68-.26,11.86v.12s.03,0,.03,0c.36,1.47.92,2.88,1.76,4.13,3.92,5.8,11.8,5.3,12.86,5.21l.03.04.18-.12-.03-.05c.43-.85,3.21-6.65.98-12.02"/><path class="cls-1" d="m125.92,79.74l.03.03.13-.12-.03-.03c.24-.75,1.71-5.84-.85-9.9l.03-.04-.09-.05c-.28-.44-.62-.87-1-1.28-1.54-1.61-3.67-2.59-5.76-3.18l-.08-.04v.02c-3.18-.89-6.23-.89-6.85-.88l-.06-.06-.12.12.05.06c-.05.8-.29,5.63,1.41,9.67v.1s.05,0,.05,0c.49,1.14,1.13,2.22,2,3.12,3.97,4.17,10.3,2.68,11.15,2.46"/><path class="cls-2" d="m174.13,84.06c-.55-.38-3.84-2.59-7.41-3.11l-.08-.04v.03c-1.02-.14-2.05-.14-3.05.08-4.63,1.02-6.27,6.12-6.47,6.81h-.04s.03.15.03.15h.04c.42.47,3.39,3.67,7.33,3.6l.03.03.06-.03c.43-.02.87-.06,1.33-.17,1.78-.4,3.38-1.48,4.69-2.7l.07-.04v-.02c1.97-1.86,3.26-4,3.52-4.45l.06-.02-.03-.14h-.07Z"/><path class="cls-1" d="m181.27,50.89l.08-.09-.2-.18-.09.1c-1.22.06-8.52.58-14.28,3.87l-.15.03.02.05c-1.63.95-3.13,2.12-4.33,3.57-5.56,6.73-2.17,15.97-1.68,17.21l-.05.06.2.17.05-.05c1.17.22,9.09,1.5,14.72-3.07l.07.03.06-.13c.61-.51,1.2-1.08,1.74-1.75,2.15-2.6,3.23-5.98,3.74-9.23l.04-.14h-.03c.76-4.95.2-9.52.07-10.46"/><path class="cls-1" d="m162.06,40.1l.02.03c-.85.87-1.58,1.85-2.08,2.96-2.31,5.14,1.38,10.33,1.89,11.02l-.02.04.16.07.02-.04c.77-.06,5.93-.62,8.65-4.43h.05s0-.09,0-.09c.29-.42.56-.88.79-1.38.89-1.99.99-4.28.75-6.39v-.09s-.01,0-.01,0c-.37-3.2-1.5-5.96-1.74-6.53l.03-.07-.16-.07-.04.07c-.75.25-5.21,1.82-8.23,4.86l-.09.04Z"/><path class="cls-1" d="m138.33,49.37l.04-.04-.08-.06c-.21-.56-.47-1.12-.81-1.67-1.31-2.16-3.44-3.76-5.61-4.93l-.08-.06v.02c-3.33-1.76-6.7-2.49-7.4-2.64l-.05-.08-.17.11.05.08c-.26.88-1.69,6.17-.78,11.07v.11s.02,0,.02,0c.27,1.39.73,2.74,1.46,3.94,3.4,5.59,10.78,5.47,11.78,5.44l.03.05.18-.1-.03-.05c.45-.77,3.3-6.07,1.46-11.19"/><path class="cls-5" d="m173.71,38.4l.11.03v-.03c.51-.09,3.87-.77,5.43-3.46h.03v-.06c.17-.3.31-.62.43-.96.47-1.36.38-2.88.1-4.25v-.06h-.01c-.45-2.09-1.36-3.83-1.56-4.18l.02-.05-.11-.03-.02.04c-.48.22-3.31,1.53-5.12,3.72l-.06.03v.02c-.49.63-.92,1.32-1.17,2.08-1.2,3.53,1.55,6.71,1.93,7.13v.03Z"/><path class="cls-5" d="m123.67,54.95l.02-.04-.08-.04c-.25-.39-.55-.77-.88-1.14-1.36-1.44-3.25-2.33-5.11-2.86l-.08-.04v.02c-2.83-.8-5.53-.82-6.09-.81l-.05-.05-.12.11.05.05c-.05.72-.29,5.01,1.21,8.62v.09s.03,0,.03,0c.43,1.02,1.01,1.98,1.76,2.78,3.52,3.74,9.16,2.44,9.91,2.26l.03.03.11-.11-.03-.04c.21-.66,1.55-5.18-.7-8.81"/><path class="cls-1" d="m149.19,29.83v.05h.14v-.04c.55-.29,4.19-2.39,4.96-6.1l.04-.02-.02-.06c.08-.4.12-.83.13-1.28.01-1.76-.66-3.49-1.53-4.97l-.03-.08h0c-1.32-2.25-3.05-3.92-3.42-4.26v-.06h-.14s0,.06,0,.06c-.47.43-3.26,3.04-4.51,6.28l-.05.06.02.02c-.34.92-.57,1.89-.57,2.87-.04,4.56,4.38,7.2,4.99,7.53"/><path class="cls-2" d="m159.77,60.43l-.05-.13c.15-.78.23-1.59.23-2.44-.01-3.37-1.34-6.65-3.01-9.46l-.05-.13h-.02c-2.57-4.26-5.91-7.42-6.61-8.05v-.12h-.27v.13c-.9.83-6.16,5.87-8.48,12.08l-.09.11.04.03c-.64,1.76-1.04,3.61-1.04,5.49.03,8.7,8.53,13.63,9.69,14.27v.07h.27v-.07c1.03-.58,7.92-4.65,9.33-11.74l.07-.03Z"/><path class="cls-5" d="m131.84,36.73c1.51,6.73,8.92,9.1,9.92,9.39v.06s.22-.04.22-.04v-.06c.69-.61,5.33-4.93,5.21-10.67l.06-.03-.06-.09c-.01-.63-.09-1.27-.24-1.93-.58-2.6-2.17-4.91-3.94-6.81l-.07-.09h-.01c-2.71-2.85-5.84-4.72-6.48-5.1l-.03-.09-.21.05.03.09c-.55.8-3.77,5.6-4.5,10.79l-.06.1.04.02c-.2,1.48-.2,2.98.13,4.42"/><path class="cls-2" d="m154.05,28.51c-1.77,5.69,2.76,10.64,3.4,11.3l-.02.05.17.06.02-.05c.79-.16,6.12-1.4,8.5-5.75h.06v-.09c.25-.48.47-.99.64-1.55.68-2.2.49-4.61-.03-6.79v-.09h-.02c-.8-3.32-2.34-6.06-2.67-6.62l.03-.08-.17-.05-.03.08c-.75.36-5.22,2.57-8.01,6.15l-.09.06.03.03c-.78,1.02-1.43,2.14-1.8,3.37"/><path class="cls-2" d="m194.41,54.94l.05-.05-.12-.09-.05.05c-.66.01-4.63.17-7.82,1.86h-.08s0,.04,0,.04c-.9.48-1.74,1.09-2.41,1.86-3.13,3.56-1.46,8.64-1.21,9.32l-.03.03.11.09.02-.03c.63.15,4.92.99,8.06-1.4l.04.02.03-.07c.34-.27.67-.57.98-.92,1.21-1.38,1.85-3.2,2.19-4.95l.03-.07h-.01c.5-2.68.28-5.17.22-5.68"/><path class="cls-5" d="m178.87,37.09v.03c-.9.49-1.72,1.09-2.41,1.86-3.14,3.56-1.46,8.64-1.22,9.33l-.02.03.11.1.03-.03c.63.14,4.91.98,8.05-1.4l.04.02.03-.07c.34-.27.67-.57.98-.92,1.21-1.38,1.86-3.2,2.19-4.95l.03-.07h-.01c.5-2.68.28-5.17.23-5.68l.04-.06-.11-.09-.05.05c-.67,0-4.64.17-7.82,1.85h-.08Z"/><path class="cls-2" d="m121.79,32.9l-.02.06h.02c.08.8.25,1.57.6,2.29,1.58,3.32,5.7,3.67,6.26,3.71v.03s.12-.05.12-.05v-.03c.28-.41,2.18-3.2,1.44-6.16l.02-.02-.03-.04c-.09-.32-.2-.65-.36-.97-.6-1.28-1.71-2.3-2.85-3.07l-.04-.05h0c-1.75-1.16-3.59-1.77-3.98-1.89l-.02-.04-.1.05.02.05c-.19.47-1.3,3.35-1.06,6.14"/></svg>